<?xml version="1.0" encoding="utf-8"?>
<!-- Generator: Adobe Illustrator 23.0.5, SVG Export Plug-In . SVG Version: 6.00 Build 0)  -->
<svg version="1.1" xmlns="http://www.w3.org/2000/svg" xmlns:xlink="http://www.w3.org/1999/xlink" x="0px" y="0px"
	 viewBox="0 0 128 50" style="enable-background:new 0 0 128 50;" xml:space="preserve">
<style type="text/css">
	.st0{fill:#737779;}
	.st1{fill:url(#SVGID_1_);}
	.st2{clip-path:url(#SVGID_3_);}
	.st3{clip-path:url(#SVGID_5_);}
	.st4{fill:none;stroke:#000000;stroke-width:0.5;stroke-miterlimit:10;}
</style>
<g id="Vrstva_1">
	<g>
		<path d="M39.5,14.1l-2.3,1.8c-1.3-1.7-2.8-2.9-4.6-3.8c-1.8-0.9-3.8-1.3-5.9-1.3c-2.3,0-4.5,0.6-6.5,1.7s-3.5,2.6-4.6,4.5
			c-1.1,1.9-1.6,4-1.6,6.4c0,3.6,1.2,6.6,3.7,9c2.5,2.4,5.6,3.6,9.3,3.6c4.1,0,7.6-1.6,10.3-4.8l2.3,1.8c-1.5,1.9-3.3,3.3-5.5,4.3
			c-2.2,1-4.6,1.5-7.3,1.5c-5.1,0-9.2-1.7-12.2-5.1c-2.5-2.9-3.7-6.4-3.7-10.5c0-4.3,1.5-7.9,4.5-10.9s6.8-4.4,11.3-4.4
			c2.7,0,5.2,0.5,7.4,1.6S38.1,12.2,39.5,14.1z"/>
		<path d="M48,33.7c0.7,0,1.3,0.2,1.7,0.7c0.5,0.5,0.7,1.1,0.7,1.8c0,0.7-0.2,1.3-0.7,1.7c-0.5,0.5-1.1,0.7-1.7,0.7
			c-0.7,0-1.3-0.2-1.7-0.7c-0.5-0.5-0.7-1.1-0.7-1.7c0-0.7,0.2-1.3,0.7-1.8C46.8,33.9,47.3,33.7,48,33.7z"/>
	</g>
	<g>
		<path d="M79.7,33.7c0.7,0,1.3,0.2,1.7,0.7c0.5,0.5,0.7,1.1,0.7,1.8c0,0.7-0.2,1.3-0.7,1.7c-0.5,0.5-1.1,0.7-1.7,0.7
			s-1.3-0.2-1.7-0.7c-0.5-0.5-0.7-1.1-0.7-1.7c0-0.7,0.2-1.3,0.7-1.8C78.4,33.9,79,33.7,79.7,33.7z"/>
		<path d="M100.4,8.7l13.7,29.4h-3.2l-4.6-9.7H93.6L89,38.1h-3.3L99.6,8.7H100.4z M100,14.9l-5,10.6h10L100,14.9z"/>
		<path d="M121.2,33.7c0.7,0,1.3,0.2,1.7,0.7c0.5,0.5,0.7,1.1,0.7,1.8c0,0.7-0.2,1.3-0.7,1.7c-0.5,0.5-1.1,0.7-1.7,0.7
			s-1.3-0.2-1.7-0.7c-0.5-0.5-0.7-1.1-0.7-1.7c0-0.7,0.2-1.3,0.7-1.8C120,33.9,120.6,33.7,121.2,33.7z"/>
	</g>
	<g>
		<path class="st0" d="M52.2,27.9c0.2,0.6,0.5,1.3,0.9,1.8c1.1,1.9,2.6,3.4,4.5,4.5c1.9,1.1,4.1,1.7,6.3,1.7c3.4,0,6.3-1.2,8.8-3.6
			c2.4-2.4,3.6-5.4,3.6-8.8c0-2.4-0.5-4.5-1.6-6.4c-1.1-1.9-2.6-3.4-4.6-4.6c-1.9-1.1-4-1.7-6.2-1.7c-2.2,0-4.3,0.6-6.3,1.7
			c-2,1.1-3.5,2.6-4.6,4.5c-0.5,0.9-0.9,1.8-1.2,2.8l-2.9-1c0.7-2.4,2-4.5,3.9-6.4c3-3,6.7-4.5,11.2-4.5c2.7,0,5.3,0.7,7.7,2
			c2.4,1.4,4.2,3.3,5.6,5.7c1.4,2.4,2,5,2,7.8c0,4.2-1.5,7.8-4.5,10.8c-3,3-6.7,4.5-11,4.5c-4.3,0-7.9-1.5-10.9-4.5
			c-1.6-1.6-2.8-3.4-3.5-5.4"/>
	</g>
	<linearGradient id="SVGID_1_" gradientUnits="userSpaceOnUse" x1="43.8699" y1="26.9847" x2="43.8699" y2="20.7833">
		<stop  offset="0" style="stop-color:#9F0500"/>
		<stop  offset="0.1617" style="stop-color:#A10500"/>
		<stop  offset="0.259" style="stop-color:#AB0500"/>
		<stop  offset="0.3392" style="stop-color:#BA0500"/>
		<stop  offset="0.4101" style="stop-color:#D10400"/>
		<stop  offset="0.4743" style="stop-color:#F00200"/>
		<stop  offset="0.5" style="stop-color:#FF0000"/>
		<stop  offset="0.5237" style="stop-color:#F10200"/>
		<stop  offset="0.5882" style="stop-color:#D20400"/>
		<stop  offset="0.6594" style="stop-color:#BB0500"/>
		<stop  offset="0.7399" style="stop-color:#AC0500"/>
		<stop  offset="0.8376" style="stop-color:#A30500"/>
		<stop  offset="1" style="stop-color:#A00500"/>
	</linearGradient>
	<path class="st1" d="M63.6,27c-0.8,0-1.5-0.3-2-0.7H26.8c-0.1,0-0.2,0-0.3,0c-1.3,0-2.4-1.1-2.4-2.4c0-1.3,1.1-2.4,2.4-2.4v0h35.1
		c0.5-0.5,1.2-0.7,2-0.7"/>
	<g>
		<g>
			<defs>
				<path id="SVGID_2_" d="M63.6,20.8c1.7,0,3.1,1.4,3.1,3.1c0,1.7-1.4,3.1-3.1,3.1"/>
			</defs>
			<clipPath id="SVGID_3_">
				<use xlink:href="#SVGID_2_"  style="overflow:visible;"/>
			</clipPath>
			<g class="st2">
				<g>
					<defs>
						<rect id="SVGID_4_" x="58.6" y="15.8" width="13.1" height="16.2"/>
					</defs>
					<clipPath id="SVGID_5_">
						<use xlink:href="#SVGID_4_"  style="overflow:visible;"/>
					</clipPath>
					<g class="st3">
						<defs>
							<rect id="SVGID_6_" x="58.6" y="15.8" width="13.1" height="16.2"/>
						</defs>
						<clipPath id="SVGID_7_">
							<use xlink:href="#SVGID_6_"  style="overflow:visible;"/>
						</clipPath>
						<g style="clip-path:url(#SVGID_7_);">
							
								<image style="overflow:visible;" width="28" height="35" xlink:href="12FB3DCC.jpg"  transform="matrix(0.48 0 0 0.48 58.56 15.56)">
							</image>
						</g>
					</g>
				</g>
			</g>
		</g>
	</g>
	<line class="st4" x1="2.2" y1="5.8" x2="125" y2="5.8"/>
	<line class="st4" x1="2.2" y1="40.8" x2="125" y2="40.8"/>
</g>
<g id="Vrstva_2">
	<g>
		<path d="M81,42.1h0.5v4.9h2.1v0.5H81V42.1z"/>
		<path d="M88.4,43.6v4h-0.5v-0.7c-0.2,0.3-0.5,0.5-0.7,0.6c-0.3,0.1-0.6,0.2-0.9,0.2c-0.6,0-1.1-0.2-1.5-0.6
			c-0.4-0.4-0.6-0.9-0.6-1.5c0-0.6,0.2-1.1,0.6-1.5c0.4-0.4,0.9-0.6,1.5-0.6c0.3,0,0.6,0.1,0.9,0.2s0.5,0.4,0.7,0.6v-0.7H88.4z
			 M86.3,44c-0.3,0-0.6,0.1-0.8,0.2c-0.2,0.1-0.4,0.3-0.6,0.6c-0.1,0.3-0.2,0.5-0.2,0.8c0,0.3,0.1,0.6,0.2,0.8s0.3,0.5,0.6,0.6
			c0.2,0.1,0.5,0.2,0.8,0.2c0.3,0,0.6-0.1,0.8-0.2c0.3-0.1,0.4-0.3,0.6-0.6c0.1-0.2,0.2-0.5,0.2-0.8c0-0.5-0.2-0.9-0.5-1.2
			C87.2,44.1,86.8,44,86.3,44z"/>
		<path d="M91.6,44l-0.3,0.3c-0.3-0.3-0.5-0.4-0.8-0.4c-0.2,0-0.3,0.1-0.4,0.2s-0.2,0.2-0.2,0.4c0,0.1,0,0.3,0.1,0.4
			c0.1,0.1,0.3,0.3,0.6,0.4c0.4,0.2,0.6,0.4,0.8,0.6c0.1,0.2,0.2,0.4,0.2,0.6c0,0.3-0.1,0.6-0.3,0.8c-0.2,0.2-0.5,0.3-0.9,0.3
			c-0.2,0-0.5-0.1-0.7-0.2c-0.2-0.1-0.4-0.2-0.5-0.4l0.3-0.4c0.3,0.3,0.5,0.4,0.8,0.4c0.2,0,0.4-0.1,0.5-0.2
			c0.1-0.1,0.2-0.3,0.2-0.5c0-0.1,0-0.3-0.1-0.4c-0.1-0.1-0.3-0.3-0.7-0.4c-0.4-0.2-0.6-0.4-0.7-0.6c-0.1-0.2-0.2-0.4-0.2-0.6
			c0-0.3,0.1-0.6,0.3-0.8c0.2-0.2,0.5-0.3,0.8-0.3C90.9,43.5,91.2,43.6,91.6,44z"/>
		<path d="M95.9,46.3l0.4,0.2c-0.1,0.3-0.3,0.5-0.5,0.7c-0.2,0.2-0.4,0.3-0.6,0.4c-0.2,0.1-0.5,0.1-0.8,0.1c-0.7,0-1.2-0.2-1.5-0.6
			c-0.4-0.4-0.6-0.9-0.6-1.5c0-0.5,0.2-1,0.5-1.4c0.4-0.5,0.9-0.8,1.6-0.8c0.7,0,1.2,0.3,1.6,0.8c0.3,0.4,0.4,0.8,0.4,1.4h-3.6
			c0,0.5,0.2,0.9,0.4,1.2c0.3,0.3,0.6,0.4,1.1,0.4c0.2,0,0.4,0,0.6-0.1s0.4-0.2,0.5-0.3C95.6,46.7,95.8,46.5,95.9,46.3z M95.9,45.2
			c-0.1-0.3-0.2-0.5-0.3-0.7c-0.1-0.2-0.3-0.3-0.5-0.4C94.9,44,94.6,44,94.4,44c-0.4,0-0.7,0.1-1,0.4c-0.2,0.2-0.4,0.5-0.5,0.8H95.9
			z"/>
		<path d="M97.3,43.6h0.5v0.6c0.2-0.2,0.3-0.4,0.5-0.5c0.2-0.1,0.4-0.2,0.5-0.2c0.1,0,0.3,0,0.5,0.1L99,44c-0.1,0-0.2-0.1-0.3-0.1
			c-0.2,0-0.3,0.1-0.5,0.2c-0.2,0.1-0.3,0.4-0.4,0.7c-0.1,0.2-0.1,0.7-0.1,1.4v1.4h-0.5V43.6z"/>
		<path d="M105.9,42v5.6h-0.5v-0.7c-0.2,0.3-0.5,0.5-0.7,0.6c-0.3,0.1-0.6,0.2-0.9,0.2c-0.6,0-1.1-0.2-1.5-0.6
			c-0.4-0.4-0.6-0.9-0.6-1.5c0-0.6,0.2-1.1,0.6-1.5s0.9-0.6,1.5-0.6c0.3,0,0.6,0.1,0.9,0.2c0.3,0.1,0.5,0.4,0.7,0.6V42H105.9z
			 M103.8,44c-0.3,0-0.6,0.1-0.8,0.2c-0.2,0.1-0.4,0.3-0.6,0.6c-0.1,0.3-0.2,0.5-0.2,0.8c0,0.3,0.1,0.6,0.2,0.8s0.3,0.5,0.6,0.6
			c0.2,0.1,0.5,0.2,0.8,0.2c0.3,0,0.6-0.1,0.8-0.2c0.3-0.1,0.5-0.3,0.6-0.6c0.1-0.2,0.2-0.5,0.2-0.8c0-0.5-0.2-0.9-0.5-1.2
			C104.6,44.1,104.2,44,103.8,44z"/>
		<path d="M110.4,46.3l0.4,0.2c-0.1,0.3-0.3,0.5-0.5,0.7c-0.2,0.2-0.4,0.3-0.6,0.4c-0.2,0.1-0.5,0.1-0.8,0.1c-0.7,0-1.2-0.2-1.5-0.6
			c-0.4-0.4-0.6-0.9-0.6-1.5c0-0.5,0.2-1,0.5-1.4c0.4-0.5,0.9-0.8,1.6-0.8c0.7,0,1.2,0.3,1.6,0.8c0.3,0.4,0.4,0.8,0.4,1.4h-3.6
			c0,0.5,0.2,0.9,0.4,1.2c0.3,0.3,0.6,0.4,1.1,0.4c0.2,0,0.4,0,0.6-0.1s0.4-0.2,0.5-0.3C110.1,46.7,110.3,46.5,110.4,46.3z
			 M110.4,45.2c-0.1-0.3-0.2-0.5-0.3-0.7c-0.1-0.2-0.3-0.3-0.5-0.4c-0.2-0.1-0.4-0.2-0.7-0.2c-0.4,0-0.7,0.1-1,0.4
			c-0.2,0.2-0.4,0.5-0.5,0.8H110.4z"/>
		<path d="M114,44l-0.3,0.3c-0.3-0.3-0.5-0.4-0.8-0.4c-0.2,0-0.3,0.1-0.4,0.2s-0.2,0.2-0.2,0.4c0,0.1,0,0.3,0.1,0.4
			c0.1,0.1,0.3,0.3,0.6,0.4c0.4,0.2,0.6,0.4,0.8,0.6c0.1,0.2,0.2,0.4,0.2,0.6c0,0.3-0.1,0.6-0.3,0.8c-0.2,0.2-0.5,0.3-0.9,0.3
			c-0.2,0-0.5-0.1-0.7-0.2c-0.2-0.1-0.4-0.2-0.5-0.4l0.3-0.4c0.3,0.3,0.5,0.4,0.8,0.4c0.2,0,0.4-0.1,0.5-0.2
			c0.1-0.1,0.2-0.3,0.2-0.5c0-0.1,0-0.3-0.1-0.4c-0.1-0.1-0.3-0.3-0.7-0.4c-0.4-0.2-0.6-0.4-0.7-0.6c-0.1-0.2-0.2-0.4-0.2-0.6
			c0-0.3,0.1-0.6,0.3-0.8c0.2-0.2,0.5-0.3,0.8-0.3C113.2,43.5,113.6,43.6,114,44z"/>
		<path d="M115.1,41.9c0.1,0,0.2,0,0.3,0.1c0.1,0.1,0.1,0.2,0.1,0.3c0,0.1,0,0.2-0.1,0.3c-0.1,0.1-0.2,0.1-0.3,0.1
			c-0.1,0-0.2,0-0.3-0.1c-0.1-0.1-0.1-0.2-0.1-0.3c0-0.1,0-0.2,0.1-0.3C114.9,42,115,41.9,115.1,41.9z M114.8,43.6h0.5v4h-0.5V43.6z
			"/>
		<path d="M119.9,43.6h0.5v3.2c0,0.6,0,1-0.1,1.2c-0.1,0.4-0.4,0.7-0.7,0.9c-0.3,0.2-0.7,0.3-1.2,0.3c-0.3,0-0.7,0-0.9-0.1
			c-0.3-0.1-0.5-0.2-0.7-0.4c-0.2-0.2-0.3-0.4-0.5-0.7h0.6c0.2,0.3,0.4,0.5,0.6,0.6c0.2,0.1,0.5,0.2,0.9,0.2c0.4,0,0.7-0.1,0.9-0.2
			s0.4-0.3,0.5-0.5c0.1-0.2,0.2-0.5,0.2-1v-0.2c-0.2,0.2-0.4,0.4-0.7,0.6c-0.3,0.1-0.6,0.2-0.9,0.2c-0.4,0-0.7-0.1-1-0.3
			c-0.3-0.2-0.6-0.4-0.8-0.7c-0.2-0.3-0.3-0.7-0.3-1c0-0.4,0.1-0.7,0.3-1s0.4-0.6,0.8-0.8c0.3-0.2,0.7-0.3,1-0.3
			c0.3,0,0.6,0.1,0.8,0.2s0.5,0.3,0.8,0.6V43.6z M118.4,44c-0.3,0-0.6,0.1-0.8,0.2c-0.3,0.1-0.5,0.3-0.6,0.6
			c-0.1,0.3-0.2,0.5-0.2,0.8c0,0.4,0.1,0.8,0.4,1.1c0.3,0.3,0.7,0.4,1.2,0.4c0.5,0,0.9-0.1,1.2-0.4c0.3-0.3,0.4-0.7,0.4-1.1
			c0-0.3-0.1-0.6-0.2-0.8c-0.1-0.2-0.3-0.4-0.6-0.6C118.9,44,118.6,44,118.4,44z"/>
		<path d="M121.5,43.6h0.5v0.7c0.2-0.3,0.4-0.5,0.7-0.6s0.5-0.2,0.8-0.2c0.3,0,0.6,0.1,0.8,0.2c0.2,0.2,0.4,0.4,0.5,0.6
			c0.1,0.3,0.2,0.7,0.2,1.2v2.1h-0.5v-1.9c0-0.5,0-0.8-0.1-0.9c-0.1-0.3-0.2-0.5-0.3-0.6c-0.2-0.1-0.4-0.2-0.7-0.2
			c-0.3,0-0.6,0.1-0.8,0.3c-0.2,0.2-0.4,0.5-0.5,0.8c0,0.2-0.1,0.6-0.1,1.1v1.5h-0.5V43.6z"/>
	</g>
	<g>
	</g>
	<g>
	</g>
	<g>
	</g>
	<g>
	</g>
	<g>
	</g>
	<g>
	</g>
</g>
</svg>
