  0
SECTION
  2
HEADER
  9
$ACADVER
  1
AC1024
  9
$ACADMAINTVER
 70
     6
  9
$DWGCODEPAGE
  3
ANSI_1250
  9
$INSBASE
 10
0.0
 20
0.0
 30
0.0
  9
$EXTMIN
 10
1.000000000000000E+20
 20
1.000000000000000E+20
 30
1.000000000000000E+20
  9
$EXTMAX
 10
-1.000000000000000E+20
 20
-1.000000000000000E+20
 30
-1.000000000000000E+20
  9
$LIMMIN
 10
0.0
 20
0.0
  9
$LIMMAX
 10
12.0
 20
9.0
  9
$ORTHOMODE
 70
     0
  9
$REGENMODE
 70
     1
  9
$FILLMODE
 70
     1
  9
$QTEXTMODE
 70
     0
  9
$MIRRTEXT
 70
     1
  9
$LTSCALE
 40
1.0
  9
$ATTMODE
 70
     1
  9
$TEXTSIZE
 40
0.2
  9
$TRACEWID
 40
0.05
  9
$TEXTSTYLE
  7
Standard
  9
$CLAYER
  8
0
  9
$CELTYPE
  6
ByLayer
  9
$CECOLOR
 62
   256
  9
$CELTSCALE
 40
1.0
  9
$DISPSILH
 70
     0
  9
$DIMSCALE
 40
1.0
  9
$DIMASZ
 40
0.18
  9
$DIMEXO
 40
0.0625
  9
$DIMDLI
 40
0.38
  9
$DIMRND
 40
0.0
  9
$DIMDLE
 40
0.0
  9
$DIMEXE
 40
0.18
  9
$DIMTP
 40
0.0
  9
$DIMTM
 40
0.0
  9
$DIMTXT
 40
0.18
  9
$DIMCEN
 40
0.09
  9
$DIMTSZ
 40
0.0
  9
$DIMTOL
 70
     0
  9
$DIMLIM
 70
     0
  9
$DIMTIH
 70
     1
  9
$DIMTOH
 70
     1
  9
$DIMSE1
 70
     0
  9
$DIMSE2
 70
     0
  9
$DIMTAD
 70
     0
  9
$DIMZIN
 70
     0
  9
$DIMBLK
  1

  9
$DIMASO
 70
     1
  9
$DIMSHO
 70
     1
  9
$DIMPOST
  1

  9
$DIMAPOST
  1

  9
$DIMALT
 70
     0
  9
$DIMALTD
 70
     2
  9
$DIMALTF
 40
25.4
  9
$DIMLFAC
 40
1.0
  9
$DIMTOFL
 70
     0
  9
$DIMTVP
 40
0.0
  9
$DIMTIX
 70
     0
  9
$DIMSOXD
 70
     0
  9
$DIMSAH
 70
     0
  9
$DIMBLK1
  1

  9
$DIMBLK2
  1

  9
$DIMSTYLE
  2
Standard
  9
$DIMCLRD
 70
     0
  9
$DIMCLRE
 70
     0
  9
$DIMCLRT
 70
     0
  9
$DIMTFAC
 40
1.0
  9
$DIMGAP
 40
0.09
  9
$DIMJUST
 70
     0
  9
$DIMSD1
 70
     0
  9
$DIMSD2
 70
     0
  9
$DIMTOLJ
 70
     1
  9
$DIMTZIN
 70
     0
  9
$DIMALTZ
 70
     0
  9
$DIMALTTZ
 70
     0
  9
$DIMUPT
 70
     0
  9
$DIMDEC
 70
     4
  9
$DIMTDEC
 70
     4
  9
$DIMALTU
 70
     2
  9
$DIMALTTD
 70
     2
  9
$DIMTXSTY
  7
Standard
  9
$DIMAUNIT
 70
     0
  9
$DIMADEC
 70
     0
  9
$DIMALTRND
 40
0.0
  9
$DIMAZIN
 70
     0
  9
$DIMDSEP
 70
    46
  9
$DIMATFIT
 70
     3
  9
$DIMFRAC
 70
     0
  9
$DIMLDRBLK
  1

  9
$DIMLUNIT
 70
     2
  9
$DIMLWD
 70
    -2
  9
$DIMLWE
 70
    -2
  9
$DIMTMOVE
 70
     0
  9
$DIMFXL
 40
1.0
  9
$DIMFXLON
 70
     0
  9
$DIMJOGANG
 40
0.7853981633974483
  9
$DIMTFILL
 70
     0
  9
$DIMTFILLCLR
 70
     0
  9
$DIMARCSYM
 70
     0
  9
$DIMLTYPE
  6

  9
$DIMLTEX1
  6

  9
$DIMLTEX2
  6

  9
$DIMTXTDIRECTION
 70
     0
  9
$LUNITS
 70
     2
  9
$LUPREC
 70
     4
  9
$SKETCHINC
 40
0.1
  9
$FILLETRAD
 40
0.5
  9
$AUNITS
 70
     0
  9
$AUPREC
 70
     0
  9
$MENU
  1
.
  9
$ELEVATION
 40
0.0
  9
$PELEVATION
 40
0.0
  9
$THICKNESS
 40
0.0
  9
$LIMCHECK
 70
     0
  9
$CHAMFERA
 40
0.5
  9
$CHAMFERB
 40
0.5
  9
$CHAMFERC
 40
1.0
  9
$CHAMFERD
 40
0.0
  9
$SKPOLY
 70
     0
  9
$TDCREATE
 40
2459624.896527176
  9
$TDUCREATE
 40
2459624.854860509
  9
$TDUPDATE
 40
2459624.896527245
  9
$TDUUPDATE
 40
2459624.854860579
  9
$TDINDWG
 40
0.0000000116
  9
$TDUSRTIMER
 40
0.0000000116
  9
$USRTIMER
 70
     1
  9
$ANGBASE
 50
0.0
  9
$ANGDIR
 70
     0
  9
$PDMODE
 70
     0
  9
$PDSIZE
 40
0.0
  9
$PLINEWID
 40
0.0
  9
$SPLFRAME
 70
     0
  9
$SPLINETYPE
 70
     6
  9
$SPLINESEGS
 70
     8
  9
$HANDSEED
  5
C0
  9
$SURFTAB1
 70
     6
  9
$SURFTAB2
 70
     6
  9
$SURFTYPE
 70
     6
  9
$SURFU
 70
     6
  9
$SURFV
 70
     6
  9
$UCSBASE
  2

  9
$UCSNAME
  2

  9
$UCSORG
 10
0.0
 20
0.0
 30
0.0
  9
$UCSXDIR
 10
1.0
 20
0.0
 30
0.0
  9
$UCSYDIR
 10
0.0
 20
1.0
 30
0.0
  9
$UCSORTHOREF
  2

  9
$UCSORTHOVIEW
 70
     0
  9
$UCSORGTOP
 10
0.0
 20
0.0
 30
0.0
  9
$UCSORGBOTTOM
 10
0.0
 20
0.0
 30
0.0
  9
$UCSORGLEFT
 10
0.0
 20
0.0
 30
0.0
  9
$UCSORGRIGHT
 10
0.0
 20
0.0
 30
0.0
  9
$UCSORGFRONT
 10
0.0
 20
0.0
 30
0.0
  9
$UCSORGBACK
 10
0.0
 20
0.0
 30
0.0
  9
$PUCSBASE
  2

  9
$PUCSNAME
  2

  9
$PUCSORG
 10
0.0
 20
0.0
 30
0.0
  9
$PUCSXDIR
 10
1.0
 20
0.0
 30
0.0
  9
$PUCSYDIR
 10
0.0
 20
1.0
 30
0.0
  9
$PUCSORTHOREF
  2

  9
$PUCSORTHOVIEW
 70
     0
  9
$PUCSORGTOP
 10
0.0
 20
0.0
 30
0.0
  9
$PUCSORGBOTTOM
 10
0.0
 20
0.0
 30
0.0
  9
$PUCSORGLEFT
 10
0.0
 20
0.0
 30
0.0
  9
$PUCSORGRIGHT
 10
0.0
 20
0.0
 30
0.0
  9
$PUCSORGFRONT
 10
0.0
 20
0.0
 30
0.0
  9
$PUCSORGBACK
 10
0.0
 20
0.0
 30
0.0
  9
$USERI1
 70
     0
  9
$USERI2
 70
     0
  9
$USERI3
 70
     0
  9
$USERI4
 70
     0
  9
$USERI5
 70
     0
  9
$USERR1
 40
0.0
  9
$USERR2
 40
0.0
  9
$USERR3
 40
0.0
  9
$USERR4
 40
0.0
  9
$USERR5
 40
0.0
  9
$WORLDVIEW
 70
     1
  9
$SHADEDGE
 70
     3
  9
$SHADEDIF
 70
    70
  9
$TILEMODE
 70
     1
  9
$MAXACTVP
 70
    64
  9
$PINSBASE
 10
0.0
 20
0.0
 30
0.0
  9
$PLIMCHECK
 70
     0
  9
$PEXTMIN
 10
1.000000000000000E+20
 20
1.000000000000000E+20
 30
1.000000000000000E+20
  9
$PEXTMAX
 10
-1.000000000000000E+20
 20
-1.000000000000000E+20
 30
-1.000000000000000E+20
  9
$PLIMMIN
 10
0.0
 20
0.0
  9
$PLIMMAX
 10
12.0
 20
9.0
  9
$UNITMODE
 70
     0
  9
$VISRETAIN
 70
     1
  9
$PLINEGEN
 70
     0
  9
$PSLTSCALE
 70
     1
  9
$TREEDEPTH
 70
  3020
  9
$CMLSTYLE
  2
Standard
  9
$CMLJUST
 70
     0
  9
$CMLSCALE
 40
1.0
  9
$PROXYGRAPHICS
 70
     1
  9
$MEASUREMENT
 70
     0
  9
$CELWEIGHT
370
    -1
  9
$ENDCAPS
280
     0
  9
$JOINSTYLE
280
     0
  9
$LWDISPLAY
290
     1
  9
$INSUNITS
 70
     1
  9
$HYPERLINKBASE
  1

  9
$STYLESHEET
  1

  9
$XEDIT
290
     1
  9
$CEPSNTYPE
380
     0
  9
$PSTYLEMODE
290
     1
  9
$FINGERPRINTGUID
  2
{8AC9EEA5-989C-4E77-B8AA-4F0B1244D56C}
  9
$VERSIONGUID
  2
{FAEB1C32-E019-11D5-929B-00C0DF256EC4}
  9
$EXTNAMES
290
     1
  9
$PSVPSCALE
 40
0.0
  9
$OLESTARTUP
290
     0
  9
$SORTENTS
280
   127
  9
$INDEXCTL
280
     0
  9
$HIDETEXT
280
     1
  9
$XCLIPFRAME
280
     2
  9
$HALOGAP
280
     0
  9
$OBSCOLOR
 70
   257
  9
$OBSLTYPE
280
     0
  9
$INTERSECTIONDISPLAY
280
     0
  9
$INTERSECTIONCOLOR
 70
   257
  9
$DIMASSOC
280
     2
  9
$PROJECTNAME
  1

  9
$CAMERADISPLAY
290
     0
  9
$LENSLENGTH
 40
50.0
  9
$CAMERAHEIGHT
 40
0.0
  9
$STEPSPERSEC
 40
2.0
  9
$STEPSIZE
 40
6.0
  9
$3DDWFPREC
 40
2.0
  9
$PSOLWIDTH
 40
0.25
  9
$PSOLHEIGHT
 40
4.0
  9
$LOFTANG1
 40
1.570796326794897
  9
$LOFTANG2
 40
1.570796326794897
  9
$LOFTMAG1
 40
0.0
  9
$LOFTMAG2
 40
0.0
  9
$LOFTPARAM
 70
     7
  9
$LOFTNORMALS
280
     1
  9
$LATITUDE
 40
37.795
  9
$LONGITUDE
 40
-122.394
  9
$NORTHDIRECTION
 40
0.0
  9
$TIMEZONE
 70
 -8000
  9
$LIGHTGLYPHDISPLAY
280
     1
  9
$TILEMODELIGHTSYNCH
280
     1
  9
$CMATERIAL
347
3C
  9
$SOLIDHIST
280
     1
  9
$SHOWHIST
280
     1
  9
$DWFFRAME
280
     2
  9
$DGNFRAME
280
     2
  9
$REALWORLDSCALE
290
     1
  9
$INTERFERECOLOR
 62
   256
  9
$CSHADOW
280
     0
  9
$SHADOWPLANELOCATION
 40
0.0
  0
ENDSEC
  0
SECTION
  2
CLASSES
  0
CLASS
  1
ACDBDICTIONARYWDFLT
  2
AcDbDictionaryWithDefault
  3
ObjectDBX Classes
 90
        0
 91
        4
280
     0
281
     0
  0
CLASS
  1
VISUALSTYLE
  2
AcDbVisualStyle
  3
ObjectDBX Classes
 90
     4095
 91
        4
280
     0
281
     0
  0
CLASS
  1
MATERIAL
  2
AcDbMaterial
  3
ObjectDBX Classes
 90
     1153
 91
        4
280
     0
281
     0
  0
CLASS
  1
SUN
  2
AcDbSun
  3
SCENEOE
 90
     1024
 91
        4
280
     0
281
     0
  0
ENDSEC
  0
SECTION
  2
TABLES
  0
TABLE
  2
VPORT
  5
8
330
0
100
AcDbSymbolTable
 70
     1
  0
VPORT
  5
29
330
8
100
AcDbSymbolTableRecord
100
AcDbViewportTableRecord
  2
*Active
 70
     0
 10
0.0
 20
0.0
 11
1.0
 21
1.0
 12
0.0
 22
0.0
 13
0.0
 23
0.0
 14
0.5
 24
0.5
 15
0.5
 25
0.5
 16
0.0
 26
0.0
 36
1.0
 17
64.0
 27
-32.0
 37
0.0
 40
64.0
 41
2.0
 42
50.0
 43
0.0
 44
0.0
 50
0.0
 51
0.0
 71
     0
 72
   100
 73
     1
 74
     3
 75
     0
 76
     0
 77
     0
 78
     0
281
     0
 65
     1
110
0.0
120
0.0
130
0.0
111
1.0
121
0.0
131
0.0
112
0.0
122
1.0
132
0.0
 79
     0
146
0.0
 60
     3
 61
     5
292
     1
282
     1
141
0.0
142
0.0
 63
   250
361
3F
  0
ENDTAB
  0
TABLE
  2
LTYPE
  5
5
330
0
100
AcDbSymbolTable
 70
     1
  0
LTYPE
  5
14
330
5
100
AcDbSymbolTableRecord
100
AcDbLinetypeTableRecord
  2
ByBlock
 70
     0
  3

 72
    65
 73
     0
 40
0.0
  0
LTYPE
  5
15
330
5
100
AcDbSymbolTableRecord
100
AcDbLinetypeTableRecord
  2
ByLayer
 70
     0
  3

 72
    65
 73
     0
 40
0.0
  0
LTYPE
  5
16
330
5
100
AcDbSymbolTableRecord
100
AcDbLinetypeTableRecord
  2
Continuous
 70
     0
  3
Solid line
 72
    65
 73
     0
 40
0.0
  0
ENDTAB
  0
TABLE
  2
LAYER
  5
2
330
0
100
AcDbSymbolTable
 70
     5
  0
LAYER
  5
10
330
2
100
AcDbSymbolTableRecord
100
AcDbLayerTableRecord
  2
0
 70
     0
 62
     7
  6
Continuous
370
    -3
390
F
347
3E
  0
LAYER
  5
40
330
2
100
AcDbSymbolTableRecord
100
AcDbLayerTableRecord
  2
Vrstva 1
 70
     5
 62
     7
  6
Continuous
370
    -3
390
F
347
3E
  0
LAYER
  5
53
330
2
100
AcDbSymbolTableRecord
100
AcDbLayerTableRecord
  2
Vrstva 2
 70
     5
 62
     7
  6
Continuous
370
    -3
390
F
347
3E
  0
LAYER
  5
55
330
2
100
AcDbSymbolTableRecord
100
AcDbLayerTableRecord
  2
Vrstva 3
 70
     5
 62
     7
  6
Continuous
370
    -3
390
F
347
3E
  0
LAYER
  5
56
330
2
100
AcDbSymbolTableRecord
100
AcDbLayerTableRecord
  2
Vrstva 4
 70
     0
 62
     7
  6
Continuous
370
    -3
390
F
347
3E
  0
ENDTAB
  0
TABLE
  2
STYLE
  5
3
330
0
100
AcDbSymbolTable
 70
     1
  0
STYLE
  5
11
330
3
100
AcDbSymbolTableRecord
100
AcDbTextStyleTableRecord
  2
Standard
 70
     0
 40
0.0
 41
1.0
 50
0.0
 71
     0
 42
0.2
  3
txt
  4

  0
ENDTAB
  0
TABLE
  2
VIEW
  5
6
330
0
100
AcDbSymbolTable
 70
     0
  0
ENDTAB
  0
TABLE
  2
UCS
  5
7
330
0
100
AcDbSymbolTable
 70
     0
  0
ENDTAB
  0
TABLE
  2
APPID
  5
9
330
0
100
AcDbSymbolTable
 70
     1
  0
APPID
  5
12
330
9
100
AcDbSymbolTableRecord
100
AcDbRegAppTableRecord
  2
ACAD
 70
     0
  0
ENDTAB
  0
TABLE
  2
DIMSTYLE
  5
A
330
0
100
AcDbSymbolTable
 70
     1
100
AcDbDimStyleTable
  0
DIMSTYLE
105
27
330
A
100
AcDbSymbolTableRecord
100
AcDbDimStyleTableRecord
  2
Standard
 70
     0
178
     0
340
11
  0
ENDTAB
  0
TABLE
  2
BLOCK_RECORD
  5
1
330
0
100
AcDbSymbolTable
 70
     6
  0
BLOCK_RECORD
  5
1F
330
1
100
AcDbSymbolTableRecord
100
AcDbBlockTableRecord
  2
*Model_Space
340
22
 70
     0
280
     1
281
     0
  0
BLOCK_RECORD
  5
1B
330
1
100
AcDbSymbolTableRecord
100
AcDbBlockTableRecord
  2
*Paper_Space
340
1E
 70
     0
280
     1
281
     0
  0
BLOCK_RECORD
  5
23
330
1
100
AcDbSymbolTableRecord
100
AcDbBlockTableRecord
  2
*Paper_Space0
340
26
 70
     0
280
     1
281
     0
  0
BLOCK_RECORD
  5
43
330
1
100
AcDbSymbolTableRecord
100
AcDbBlockTableRecord
  2
block 2
340
0
102
{BLKREFS
331
44
102
}
 70
     0
280
     1
281
     0
  0
BLOCK_RECORD
  5
57
330
1
100
AcDbSymbolTableRecord
100
AcDbBlockTableRecord
  2
block 3
340
0
102
{BLKREFS
331
58
102
}
 70
     0
280
     1
281
     0
  0
BLOCK_RECORD
  5
5F
330
1
100
AcDbSymbolTableRecord
100
AcDbBlockTableRecord
  2
block 4
340
0
102
{BLKREFS
331
60
102
}
 70
     0
280
     1
281
     0
  0
BLOCK_RECORD
  5
79
330
1
100
AcDbSymbolTableRecord
100
AcDbBlockTableRecord
  2
block 5
340
0
102
{BLKREFS
331
7A
102
}
 70
     0
280
     1
281
     0
  0
BLOCK_RECORD
  5
80
330
1
100
AcDbSymbolTableRecord
100
AcDbBlockTableRecord
  2
block 6
340
0
102
{BLKREFS
331
81
102
}
 70
     0
280
     1
281
     0
  0
ENDTAB
  0
ENDSEC
  0
SECTION
  2
BLOCKS
  0
BLOCK
  5
20
330
1F
100
AcDbEntity
  8
0
100
AcDbBlockBegin
  2
*Model_Space
 70
     0
 10
0.0
 20
0.0
 30
0.0
  3
*Model_Space
  1

  0
ENDBLK
  5
21
330
1F
100
AcDbEntity
  8
0
100
AcDbBlockEnd
  0
BLOCK
  5
1C
330
1B
100
AcDbEntity
 67
     1
  8
0
100
AcDbBlockBegin
  2
*Paper_Space
 70
     0
 10
0.0
 20
0.0
 30
0.0
  3
*Paper_Space
  1

  0
ENDBLK
  5
1D
330
1B
100
AcDbEntity
 67
     1
  8
0
100
AcDbBlockEnd
  0
BLOCK
  5
24
330
23
100
AcDbEntity
  8
0
100
AcDbBlockBegin
  2
*Paper_Space0
 70
     0
 10
0.0
 20
0.0
 30
0.0
  3
*Paper_Space0
  1

  0
ENDBLK
  5
25
330
23
100
AcDbEntity
  8
0
100
AcDbBlockEnd
  0
BLOCK
  5
45
330
43
100
AcDbEntity
  8
0
100
AcDbBlockBegin
  2
block 2
 70
     0
 10
0.0
 20
0.0
 30
0.0
  3
block 2
  1

  0
SPLINE
  5
47
330
43
100
AcDbEntity
  8
Vrstva 1
370
     0
100
AcDbSpline
210
0.0
220
0.0
230
1.0
 70
     8
 71
     3
 72
    68
 73
    64
 74
     0
 42
0.0000000001
 43
0.0000000001
 12
1.0
 22
0.0
 32
0.0
 13
1.0
 23
0.0
 33
0.0
 40
0.0
 40
0.0
 40
0.0
 40
0.0
 40
1.0
 40
1.0
 40
1.0
 40
2.0
 40
2.0
 40
2.0
 40
3.0
 40
3.0
 40
3.0
 40
4.0
 40
4.0
 40
4.0
 40
5.0
 40
5.0
 40
5.0
 40
6.0
 40
6.0
 40
6.0
 40
7.0
 40
7.0
 40
7.0
 40
8.0
 40
8.0
 40
8.0
 40
9.0
 40
9.0
 40
9.0
 40
10.0
 40
10.0
 40
10.0
 40
11.0
 40
11.0
 40
11.0
 40
12.0
 40
12.0
 40
12.0
 40
13.0
 40
13.0
 40
13.0
 40
14.0
 40
14.0
 40
14.0
 40
15.0
 40
15.0
 40
15.0
 40
16.0
 40
16.0
 40
16.0
 40
17.0
 40
17.0
 40
17.0
 40
18.0
 40
18.0
 40
18.0
 40
19.0
 40
19.0
 40
19.0
 40
20.0
 40
20.0
 40
20.0
 40
21.0
 40
21.0
 40
21.0
 40
21.0
 10
52.16321620978215
 20
-34.88937220361004
 30
0.0
 10
52.39588277557141
 20
-35.52606309167641
 30
0.0
 10
52.68091353689306
 20
-36.14220603058493
 30
0.0
 10
53.01830200022141
 20
-36.73780751396225
 30
0.0
 10
54.1051358044806
 20
-38.65664330985419
 30
0.0
 10
55.61849815390906
 20
-40.16870328198274
 30
0.0
 10
57.55860611124263
 20
-41.27442155625067
 30
0.0
 10
59.49871406865077
 20
-42.38035689324897
 30
0.0
 10
61.60899931834319
 20
-42.93321603031654
 30
0.0
 10
63.88902773455084
 20
-42.93321603031654
 30
0.0
 10
67.30320966132422
 20
-42.93321603031654
 30
0.0
 10
70.22010054657403
 20
-41.7309047777635
 30
0.0
 10
72.64035157858598
 20
-39.32584814674374
 30
0.0
 10
75.06016848496984
 20
-36.92100857861078
 30
0.0
 10
76.27051106392355
 20
-33.97307770272892
 30
0.0
 10
76.27051106392355
 20
-30.48205551891988
 30
0.0
 10
76.27051106392355
 20
-28.12366740556354
 30
0.0
 10
75.7235126242831
 20
-25.98538104526324
 30
0.0
 10
74.63038399669676
 20
-24.06676231232086
 30
0.0
 10
73.53725536909042
 20
-22.1483606421898
 30
0.0
 10
72.01694700781809
 20
-20.62284277193157
 30
0.0
 10
70.06945891273608
 20
-19.49020870146978
 30
0.0
 10
68.12283906918856
 20
-18.35757463101436
 30
0.0
 10
66.06247828026608
 20
-17.79125759581893
 30
0.0
 10
63.88902773455084
 20
-17.79125759581893
 30
0.0
 10
61.67542055739978
 20
-17.79125759581893
 30
0.0
 10
59.58206621182853
 20
-18.35757463101436
 30
0.0
 10
57.60853057201075
 20
-19.49020870146978
 30
0.0
 10
55.63521199507613
 20
-20.62284277193157
 30
0.0
 10
54.1051358044806
 20
-22.13164680102545
 30
0.0
 10
53.01830200022141
 20
-24.01683785155456
 30
0.0
 10
52.51595324421396
 20
-24.88819773688556
 30
0.0
 10
52.12967737416329
 20
-25.80732233356503
 30
0.0
 10
51.85949582439935
 20
-26.77412590379117
 30
0.0
 10
51.85949582439935
 20
-26.77412590379117
 30
0.0
 10
48.98292243303513
 20
-25.76571269118631
 30
0.0
 10
48.98292243303513
 20
-25.76571269118631
 30
0.0
 10
49.68507959455656
 20
-23.37181919874365
 30
0.0
 10
50.97376827300013
 20
-21.24619508162141
 30
0.0
 10
52.84877589651205
 20
-19.38884033988961
 30
0.0
 10
55.84619710745756
 20
-16.42028849102371
 30
0.0
 10
59.56969362804739
 20
-14.93557844085535
 30
0.0
 10
64.01883133250885
 20
-14.93557844085535
 30
0.0
 10
66.76315723381231
 20
-14.93557844085535
 30
0.0
 10
69.31451424101579
 20
-15.61802411299232
 30
0.0
 10
71.67225116572808
 20
-16.98248133164452
 30
0.0
 10
74.03042221620308
 20
-18.34737267598757
 30
0.0
 10
75.89195341372033
 20
-20.23451729239514
 30
0.0
 10
77.25771300952692
 20
-22.64391518087359
 30
0.0
 10
78.62303847970907
 20
-25.05374719511019
 30
0.0
 10
79.30591827754142
 20
-27.66978893850865
 30
0.0
 10
79.30591827754142
 20
-30.49204041106077
 30
0.0
 10
79.30591827754142
 20
-34.72563468274348
 30
0.0
 10
77.80731620347979
 20
-38.33365375510402
 30
0.0
 10
74.80967792971387
 20
-41.31566350196226
 30
0.0
 10
71.8120396558279
 20
-44.29810737473417
 30
0.0
 10
68.1354287158465
 20
-45.78889518541291
 30
0.0
 10
63.77919392094464
 20
-45.78889518541291
 30
0.0
 10
59.47635659272146
 20
-45.78889518541291
 30
0.0
 10
55.82970032917365
 20
-44.29116136289122
 30
0.0
 10
52.83879100437662
 20
-41.29569371767866
 30
0.0
 10
51.22406543377292
 20
-39.67838983654656
 30
0.0
 10
50.0451854737712
 20
-37.87100462351736
 30
0.0
 10
49.30221945194808
 20
-35.87340142328503
 30
0.0
  0
HATCH
  5
48
330
43
100
AcDbEntity
  8
Vrstva 1
 62
     8
420
  7501433
100
AcDbHatch
 10
0.0
 20
0.0
 30
0.0
210
0.0
220
0.0
230
1.0
  2
SOLID
 70
     1
 71
     0
 91
        1
 92
        1
 93
        2
 72
     4
 94
        3
 73
     0
 74
     0
 95
       68
 96
       64
 40
0.0
 40
0.0
 40
0.0
 40
0.0
 40
1.0
 40
1.0
 40
1.0
 40
2.0
 40
2.0
 40
2.0
 40
3.0
 40
3.0
 40
3.0
 40
4.0
 40
4.0
 40
4.0
 40
5.0
 40
5.0
 40
5.0
 40
6.0
 40
6.0
 40
6.0
 40
7.0
 40
7.0
 40
7.0
 40
8.0
 40
8.0
 40
8.0
 40
9.0
 40
9.0
 40
9.0
 40
10.0
 40
10.0
 40
10.0
 40
11.0
 40
11.0
 40
11.0
 40
12.0
 40
12.0
 40
12.0
 40
13.0
 40
13.0
 40
13.0
 40
14.0
 40
14.0
 40
14.0
 40
15.0
 40
15.0
 40
15.0
 40
16.0
 40
16.0
 40
16.0
 40
17.0
 40
17.0
 40
17.0
 40
18.0
 40
18.0
 40
18.0
 40
19.0
 40
19.0
 40
19.0
 40
20.0
 40
20.0
 40
20.0
 40
21.0
 40
21.0
 40
21.0
 40
21.0
 10
52.16321620978215
 20
-34.88937220361004
 10
52.39588277557141
 20
-35.52606309167641
 10
52.68091353689306
 20
-36.14220603058493
 10
53.01830200022141
 20
-36.73780751396225
 10
54.1051358044806
 20
-38.65664330985419
 10
55.61849815390906
 20
-40.16870328198274
 10
57.55860611124263
 20
-41.27442155625067
 10
59.49871406865077
 20
-42.38035689324897
 10
61.60899931834319
 20
-42.93321603031654
 10
63.88902773455084
 20
-42.93321603031654
 10
67.30320966132422
 20
-42.93321603031654
 10
70.22010054657403
 20
-41.7309047777635
 10
72.64035157858598
 20
-39.32584814674374
 10
75.06016848496984
 20
-36.92100857861078
 10
76.27051106392355
 20
-33.97307770272892
 10
76.27051106392355
 20
-30.48205551891988
 10
76.27051106392355
 20
-28.12366740556354
 10
75.7235126242831
 20
-25.98538104526324
 10
74.63038399669676
 20
-24.06676231232086
 10
73.53725536909042
 20
-22.1483606421898
 10
72.01694700781809
 20
-20.62284277193157
 10
70.06945891273608
 20
-19.49020870146978
 10
68.12283906918856
 20
-18.35757463101436
 10
66.06247828026608
 20
-17.79125759581893
 10
63.88902773455084
 20
-17.79125759581893
 10
61.67542055739978
 20
-17.79125759581893
 10
59.58206621182853
 20
-18.35757463101436
 10
57.60853057201075
 20
-19.49020870146978
 10
55.63521199507613
 20
-20.62284277193157
 10
54.1051358044806
 20
-22.13164680102545
 10
53.01830200022141
 20
-24.01683785155456
 10
52.51595324421396
 20
-24.88819773688556
 10
52.12967737416329
 20
-25.80732233356503
 10
51.85949582439935
 20
-26.77412590379117
 10
51.85949582439935
 20
-26.77412590379117
 10
48.98292243303513
 20
-25.76571269118631
 10
48.98292243303513
 20
-25.76571269118631
 10
49.68507959455656
 20
-23.37181919874365
 10
50.97376827300013
 20
-21.24619508162141
 10
52.84877589651205
 20
-19.38884033988961
 10
55.84619710745756
 20
-16.42028849102371
 10
59.56969362804739
 20
-14.93557844085535
 10
64.01883133250885
 20
-14.93557844085535
 10
66.76315723381231
 20
-14.93557844085535
 10
69.31451424101579
 20
-15.61802411299232
 10
71.67225116572808
 20
-16.98248133164452
 10
74.03042221620308
 20
-18.34737267598757
 10
75.89195341372033
 20
-20.23451729239514
 10
77.25771300952692
 20
-22.64391518087359
 10
78.62303847970907
 20
-25.05374719511019
 10
79.30591827754142
 20
-27.66978893850865
 10
79.30591827754142
 20
-30.49204041106077
 10
79.30591827754142
 20
-34.72563468274348
 10
77.80731620347979
 20
-38.33365375510402
 10
74.80967792971387
 20
-41.31566350196226
 10
71.8120396558279
 20
-44.29810737473417
 10
68.1354287158465
 20
-45.78889518541291
 10
63.77919392094464
 20
-45.78889518541291
 10
59.47635659272146
 20
-45.78889518541291
 10
55.82970032917365
 20
-44.29116136289122
 10
52.83879100437662
 20
-41.29569371767866
 10
51.22406543377292
 20
-39.67838983654656
 10
50.0451854737712
 20
-37.87100462351736
 10
49.30221945194808
 20
-35.87340142328503
 97
        0
 72
     1
 10
49.30221945194808
 20
-35.87340142328503
 11
52.16321620978215
 21
-34.88937220361004
 97
        0
 75
     2
 76
     1
 98
        0
  0
ENDBLK
  5
46
330
43
100
AcDbEntity
  8
0
100
AcDbBlockEnd
  0
BLOCK
  5
59
330
57
100
AcDbEntity
  8
0
100
AcDbBlockBegin
  2
block 3
 70
     0
 10
0.0
 20
0.0
 30
0.0
  3
block 3
  1

  0
SPLINE
  5
5B
330
57
100
AcDbEntity
  8
Vrstva 4
370
     0
100
AcDbSpline
210
0.0
220
0.0
230
1.0
 70
    11
 71
     3
 72
    59
 73
    55
 74
     0
 42
0.0000000001
 43
0.0000000001
 12
1.0
 22
0.0
 32
0.0
 13
1.0
 23
0.0
 33
0.0
 40
0.0
 40
0.0
 40
0.0
 40
0.0
 40
1.0
 40
1.0
 40
1.0
 40
2.0
 40
2.0
 40
2.0
 40
3.0
 40
3.0
 40
3.0
 40
4.0
 40
4.0
 40
4.0
 40
5.0
 40
5.0
 40
5.0
 40
6.0
 40
6.0
 40
6.0
 40
7.0
 40
7.0
 40
7.0
 40
8.0
 40
8.0
 40
8.0
 40
9.0
 40
9.0
 40
9.0
 40
10.0
 40
10.0
 40
10.0
 40
11.0
 40
11.0
 40
11.0
 40
12.0
 40
12.0
 40
12.0
 40
13.0
 40
13.0
 40
13.0
 40
14.0
 40
14.0
 40
14.0
 40
15.0
 40
15.0
 40
15.0
 40
16.0
 40
16.0
 40
16.0
 40
17.0
 40
17.0
 40
17.0
 40
18.0
 40
18.0
 40
18.0
 40
18.0
 10
39.76953125
 20
-21.421875
 30
0.0
 10
39.76953125
 20
-21.421875
 30
0.0
 10
37.453125
 20
-23.19921875
 30
0.0
 10
37.453125
 20
-23.19921875
 30
0.0
 10
36.17529296875
 20
-21.53515625
 30
0.0
 10
34.640625
 20
-20.2734375
 30
0.0
 10
32.85009765625
 20
-19.4150390625
 30
0.0
 10
31.0595703125
 20
-18.55615234375
 30
0.0
 10
29.09228515625
 20
-18.126953125
 30
0.0
 10
26.94921875
 20
-18.126953125
 30
0.0
 10
24.60546875
 20
-18.126953125
 30
0.0
 10
22.43603515625
 20
-18.689453125
 30
0.0
 10
20.43896484375
 20
-19.814453125
 30
0.0
 10
18.44189453125
 20
-20.939453125
 30
0.0
 10
16.89404296875
 20
-22.4501953125
 30
0.0
 10
15.7958984375
 20
-24.34765625
 30
0.0
 10
14.69775390625
 20
-26.24462890625
 30
0.0
 10
14.1484375
 20
-28.37841796875
 30
0.0
 10
14.1484375
 20
-30.74755859375
 30
0.0
 10
14.1484375
 20
-34.3291015625
 30
0.0
 10
15.37646484375
 20
-37.3173828125
 30
0.0
 10
17.8330078125
 20
-39.7138671875
 30
0.0
 10
20.2890625
 20
-42.1103515625
 30
0.0
 10
23.3876953125
 20
-43.30859375
 30
0.0
 10
27.12890625
 20
-43.30859375
 30
0.0
 10
31.24267578125
 20
-43.30859375
 30
0.0
 10
34.68408203125
 20
-41.6982421875
 30
0.0
 10
37.453125
 20
-38.4765625
 30
0.0
 10
37.453125
 20
-38.4765625
 30
0.0
 10
39.76953125
 20
-40.2333984375
 30
0.0
 10
39.76953125
 20
-40.2333984375
 30
0.0
 10
38.30517578125
 20
-42.09765625
 30
0.0
 10
36.4775390625
 20
-43.5380859375
 30
0.0
 10
34.2880859375
 20
-44.556640625
 30
0.0
 10
32.09765625
 20
-45.5751953125
 30
0.0
 10
29.6513671875
 20
-46.0849609375
 30
0.0
 10
26.94921875
 20
-46.0849609375
 30
0.0
 10
21.81005859375
 20
-46.0849609375
 30
0.0
 10
17.755859375
 20
-44.3740234375
 30
0.0
 10
14.78759765625
 20
-40.9521484375
 30
0.0
 10
12.2978515625
 20
-38.0634765625
 30
0.0
 10
11.05322265625
 20
-34.5751953125
 30
0.0
 10
11.05322265625
 20
-30.48828125
 30
0.0
 10
11.05322265625
 20
-26.18798828125
 30
0.0
 10
12.560546875
 20
-22.5703125
 30
0.0
 10
15.576171875
 20
-19.634765625
 30
0.0
 10
18.591796875
 20
-16.69921875
 30
0.0
 10
22.369140625
 20
-15.2314453125
 30
0.0
 10
26.9091796875
 20
-15.2314453125
 30
0.0
 10
29.6513671875
 20
-15.2314453125
 30
0.0
 10
32.1279296875
 20
-15.77392578125
 30
0.0
 10
34.337890625
 20
-16.85888671875
 30
0.0
 10
36.5478515625
 20
-17.94384765625
 30
0.0
 10
38.3583984375
 20
-19.46484375
 30
0.0
 10
39.76953125
 20
-21.421875
 30
0.0
  0
HATCH
  5
5C
330
57
100
AcDbEntity
  8
Vrstva 4
 62
     7
420
 16777215
100
AcDbHatch
 10
0.0
 20
0.0
 30
0.0
210
0.0
220
0.0
230
1.0
  2
SOLID
 70
     1
 71
     0
 91
        1
 92
        1
 93
        1
 72
     4
 94
        3
 73
     0
 74
     1
 95
       59
 96
       55
 40
0.0
 40
0.0
 40
0.0
 40
0.0
 40
1.0
 40
1.0
 40
1.0
 40
2.0
 40
2.0
 40
2.0
 40
3.0
 40
3.0
 40
3.0
 40
4.0
 40
4.0
 40
4.0
 40
5.0
 40
5.0
 40
5.0
 40
6.0
 40
6.0
 40
6.0
 40
7.0
 40
7.0
 40
7.0
 40
8.0
 40
8.0
 40
8.0
 40
9.0
 40
9.0
 40
9.0
 40
10.0
 40
10.0
 40
10.0
 40
11.0
 40
11.0
 40
11.0
 40
12.0
 40
12.0
 40
12.0
 40
13.0
 40
13.0
 40
13.0
 40
14.0
 40
14.0
 40
14.0
 40
15.0
 40
15.0
 40
15.0
 40
16.0
 40
16.0
 40
16.0
 40
17.0
 40
17.0
 40
17.0
 40
18.0
 40
18.0
 40
18.0
 40
18.0
 10
39.76953125
 20
-21.421875
 10
39.76953125
 20
-21.421875
 10
37.453125
 20
-23.19921875
 10
37.453125
 20
-23.19921875
 10
36.17529296875
 20
-21.53515625
 10
34.640625
 20
-20.2734375
 10
32.85009765625
 20
-19.4150390625
 10
31.0595703125
 20
-18.55615234375
 10
29.09228515625
 20
-18.126953125
 10
26.94921875
 20
-18.126953125
 10
24.60546875
 20
-18.126953125
 10
22.43603515625
 20
-18.689453125
 10
20.43896484375
 20
-19.814453125
 10
18.44189453125
 20
-20.939453125
 10
16.89404296875
 20
-22.4501953125
 10
15.7958984375
 20
-24.34765625
 10
14.69775390625
 20
-26.24462890625
 10
14.1484375
 20
-28.37841796875
 10
14.1484375
 20
-30.74755859375
 10
14.1484375
 20
-34.3291015625
 10
15.37646484375
 20
-37.3173828125
 10
17.8330078125
 20
-39.7138671875
 10
20.2890625
 20
-42.1103515625
 10
23.3876953125
 20
-43.30859375
 10
27.12890625
 20
-43.30859375
 10
31.24267578125
 20
-43.30859375
 10
34.68408203125
 20
-41.6982421875
 10
37.453125
 20
-38.4765625
 10
37.453125
 20
-38.4765625
 10
39.76953125
 20
-40.2333984375
 10
39.76953125
 20
-40.2333984375
 10
38.30517578125
 20
-42.09765625
 10
36.4775390625
 20
-43.5380859375
 10
34.2880859375
 20
-44.556640625
 10
32.09765625
 20
-45.5751953125
 10
29.6513671875
 20
-46.0849609375
 10
26.94921875
 20
-46.0849609375
 10
21.81005859375
 20
-46.0849609375
 10
17.755859375
 20
-44.3740234375
 10
14.78759765625
 20
-40.9521484375
 10
12.2978515625
 20
-38.0634765625
 10
11.05322265625
 20
-34.5751953125
 10
11.05322265625
 20
-30.48828125
 10
11.05322265625
 20
-26.18798828125
 10
12.560546875
 20
-22.5703125
 10
15.576171875
 20
-19.634765625
 10
18.591796875
 20
-16.69921875
 10
22.369140625
 20
-15.2314453125
 10
26.9091796875
 20
-15.2314453125
 10
29.6513671875
 20
-15.2314453125
 10
32.1279296875
 20
-15.77392578125
 10
34.337890625
 20
-16.85888671875
 10
36.5478515625
 20
-17.94384765625
 10
38.3583984375
 20
-19.46484375
 10
39.76953125
 20
-21.421875
 97
        0
 97
        0
 75
     2
 76
     1
 98
        0
  0
SPLINE
  5
5D
330
57
100
AcDbEntity
  8
Vrstva 4
370
     0
100
AcDbSpline
210
0.0
220
0.0
230
1.0
 70
    11
 71
     3
 72
    29
 73
    25
 74
     0
 42
0.0000000001
 43
0.0000000001
 12
1.0
 22
0.0
 32
0.0
 13
1.0
 23
0.0
 33
0.0
 40
0.0
 40
0.0
 40
0.0
 40
0.0
 40
1.0
 40
1.0
 40
1.0
 40
2.0
 40
2.0
 40
2.0
 40
3.0
 40
3.0
 40
3.0
 40
4.0
 40
4.0
 40
4.0
 40
5.0
 40
5.0
 40
5.0
 40
6.0
 40
6.0
 40
6.0
 40
7.0
 40
7.0
 40
7.0
 40
8.0
 40
8.0
 40
8.0
 40
8.0
 10
48.2763671875
 20
-40.9521484375
 30
0.0
 10
48.95556640625
 20
-40.9521484375
 30
0.0
 10
49.53466796875
 20
-41.1923828125
 30
0.0
 10
50.01416015625
 20
-41.6708984375
 30
0.0
 10
50.4931640625
 20
-42.150390625
 30
0.0
 10
50.73291015625
 20
-42.736328125
 30
0.0
 10
50.73291015625
 20
-43.4287109375
 30
0.0
 10
50.73291015625
 20
-44.107421875
 30
0.0
 10
50.4931640625
 20
-44.6904296875
 30
0.0
 10
50.01416015625
 20
-45.17578125
 30
0.0
 10
49.53466796875
 20
-45.662109375
 30
0.0
 10
48.95556640625
 20
-45.9052734375
 30
0.0
 10
48.2763671875
 20
-45.9052734375
 30
0.0
 10
47.59765625
 20
-45.9052734375
 30
0.0
 10
47.0185546875
 20
-45.662109375
 30
0.0
 10
46.5390625
 20
-45.17578125
 30
0.0
 10
46.06005859375
 20
-44.6904296875
 30
0.0
 10
45.8203125
 20
-44.107421875
 30
0.0
 10
45.8203125
 20
-43.4287109375
 30
0.0
 10
45.8203125
 20
-42.736328125
 30
0.0
 10
46.06005859375
 20
-42.150390625
 30
0.0
 10
46.5390625
 20
-41.6708984375
 30
0.0
 10
47.0185546875
 20
-41.1923828125
 30
0.0
 10
47.59765625
 20
-40.9521484375
 30
0.0
 10
48.2763671875
 20
-40.9521484375
 30
0.0
  0
HATCH
  5
5E
330
57
100
AcDbEntity
  8
Vrstva 4
 62
     7
420
 16777215
100
AcDbHatch
 10
0.0
 20
0.0
 30
0.0
210
0.0
220
0.0
230
1.0
  2
SOLID
 70
     1
 71
     0
 91
        1
 92
        1
 93
        1
 72
     4
 94
        3
 73
     0
 74
     1
 95
       29
 96
       25
 40
0.0
 40
0.0
 40
0.0
 40
0.0
 40
1.0
 40
1.0
 40
1.0
 40
2.0
 40
2.0
 40
2.0
 40
3.0
 40
3.0
 40
3.0
 40
4.0
 40
4.0
 40
4.0
 40
5.0
 40
5.0
 40
5.0
 40
6.0
 40
6.0
 40
6.0
 40
7.0
 40
7.0
 40
7.0
 40
8.0
 40
8.0
 40
8.0
 40
8.0
 10
48.2763671875
 20
-40.9521484375
 10
48.95556640625
 20
-40.9521484375
 10
49.53466796875
 20
-41.1923828125
 10
50.01416015625
 20
-41.6708984375
 10
50.4931640625
 20
-42.150390625
 10
50.73291015625
 20
-42.736328125
 10
50.73291015625
 20
-43.4287109375
 10
50.73291015625
 20
-44.107421875
 10
50.4931640625
 20
-44.6904296875
 10
50.01416015625
 20
-45.17578125
 10
49.53466796875
 20
-45.662109375
 10
48.95556640625
 20
-45.9052734375
 10
48.2763671875
 20
-45.9052734375
 10
47.59765625
 20
-45.9052734375
 10
47.0185546875
 20
-45.662109375
 10
46.5390625
 20
-45.17578125
 10
46.06005859375
 20
-44.6904296875
 10
45.8203125
 20
-44.107421875
 10
45.8203125
 20
-43.4287109375
 10
45.8203125
 20
-42.736328125
 10
46.06005859375
 20
-42.150390625
 10
46.5390625
 20
-41.6708984375
 10
47.0185546875
 20
-41.1923828125
 10
47.59765625
 20
-40.9521484375
 10
48.2763671875
 20
-40.9521484375
 97
        0
 97
        0
 75
     2
 76
     1
 98
        0
  0
ENDBLK
  5
5A
330
57
100
AcDbEntity
  8
0
100
AcDbBlockEnd
  0
BLOCK
  5
61
330
5F
100
AcDbEntity
  8
0
100
AcDbBlockBegin
  2
block 4
 70
     0
 10
0.0
 20
0.0
 30
0.0
  3
block 4
  1

  0
SPLINE
  5
63
330
5F
100
AcDbEntity
  8
Vrstva 4
370
     0
100
AcDbSpline
210
0.0
220
0.0
230
1.0
 70
    11
 71
     3
 72
    29
 73
    25
 74
     0
 42
0.0000000001
 43
0.0000000001
 12
1.0
 22
0.0
 32
0.0
 13
1.0
 23
0.0
 33
0.0
 40
0.0
 40
0.0
 40
0.0
 40
0.0
 40
1.0
 40
1.0
 40
1.0
 40
2.0
 40
2.0
 40
2.0
 40
3.0
 40
3.0
 40
3.0
 40
4.0
 40
4.0
 40
4.0
 40
5.0
 40
5.0
 40
5.0
 40
6.0
 40
6.0
 40
6.0
 40
7.0
 40
7.0
 40
7.0
 40
8.0
 40
8.0
 40
8.0
 40
8.0
 10
79.9130859375
 20
-40.9521484375
 30
0.0
 10
80.591796875
 20
-40.9521484375
 30
0.0
 10
81.1708984375
 20
-41.1923828125
 30
0.0
 10
81.650390625
 20
-41.6708984375
 30
0.0
 10
82.1298828125
 20
-42.150390625
 30
0.0
 10
82.369140625
 20
-42.736328125
 30
0.0
 10
82.369140625
 20
-43.4287109375
 30
0.0
 10
82.369140625
 20
-44.107421875
 30
0.0
 10
82.1298828125
 20
-44.6904296875
 30
0.0
 10
81.650390625
 20
-45.17578125
 30
0.0
 10
81.1708984375
 20
-45.662109375
 30
0.0
 10
80.591796875
 20
-45.9052734375
 30
0.0
 10
79.9130859375
 20
-45.9052734375
 30
0.0
 10
79.234375
 20
-45.9052734375
 30
0.0
 10
78.6552734375
 20
-45.662109375
 30
0.0
 10
78.17578125
 20
-45.17578125
 30
0.0
 10
77.6962890625
 20
-44.6904296875
 30
0.0
 10
77.45703125
 20
-44.107421875
 30
0.0
 10
77.45703125
 20
-43.4287109375
 30
0.0
 10
77.45703125
 20
-42.736328125
 30
0.0
 10
77.6962890625
 20
-42.150390625
 30
0.0
 10
78.17578125
 20
-41.6708984375
 30
0.0
 10
78.6552734375
 20
-41.1923828125
 30
0.0
 10
79.234375
 20
-40.9521484375
 30
0.0
 10
79.9130859375
 20
-40.9521484375
 30
0.0
  0
HATCH
  5
64
330
5F
100
AcDbEntity
  8
Vrstva 4
 62
     7
420
 16777215
100
AcDbHatch
 10
0.0
 20
0.0
 30
0.0
210
0.0
220
0.0
230
1.0
  2
SOLID
 70
     1
 71
     0
 91
        1
 92
        1
 93
        1
 72
     4
 94
        3
 73
     0
 74
     1
 95
       29
 96
       25
 40
0.0
 40
0.0
 40
0.0
 40
0.0
 40
1.0
 40
1.0
 40
1.0
 40
2.0
 40
2.0
 40
2.0
 40
3.0
 40
3.0
 40
3.0
 40
4.0
 40
4.0
 40
4.0
 40
5.0
 40
5.0
 40
5.0
 40
6.0
 40
6.0
 40
6.0
 40
7.0
 40
7.0
 40
7.0
 40
8.0
 40
8.0
 40
8.0
 40
8.0
 10
79.9130859375
 20
-40.9521484375
 10
80.591796875
 20
-40.9521484375
 10
81.1708984375
 20
-41.1923828125
 10
81.650390625
 20
-41.6708984375
 10
82.1298828125
 20
-42.150390625
 10
82.369140625
 20
-42.736328125
 10
82.369140625
 20
-43.4287109375
 10
82.369140625
 20
-44.107421875
 10
82.1298828125
 20
-44.6904296875
 10
81.650390625
 20
-45.17578125
 10
81.1708984375
 20
-45.662109375
 10
80.591796875
 20
-45.9052734375
 10
79.9130859375
 20
-45.9052734375
 10
79.234375
 20
-45.9052734375
 10
78.6552734375
 20
-45.662109375
 10
78.17578125
 20
-45.17578125
 10
77.6962890625
 20
-44.6904296875
 10
77.45703125
 20
-44.107421875
 10
77.45703125
 20
-43.4287109375
 10
77.45703125
 20
-42.736328125
 10
77.6962890625
 20
-42.150390625
 10
78.17578125
 20
-41.6708984375
 10
78.6552734375
 20
-41.1923828125
 10
79.234375
 20
-40.9521484375
 10
79.9130859375
 20
-40.9521484375
 97
        0
 97
        0
 75
     2
 76
     1
 98
        0
  0
POLYLINE
  5
65
330
5F
100
AcDbEntity
  8
Vrstva 4
370
     0
100
AcDb2dPolyline
 66
     1
 10
0.0
 20
0.0
 30
0.0
  0
VERTEX
  5
66
330
65
100
AcDbEntity
  8
Vrstva 4
370
     0
100
AcDbVertex
100
AcDb2dVertex
 10
100.6220703125
 20
-15.97021484375
 30
0.0
  0
VERTEX
  5
67
330
65
100
AcDbEntity
  8
Vrstva 4
370
     0
100
AcDbVertex
100
AcDb2dVertex
 10
114.3212890625
 20
-45.345703125
 30
0.0
  0
VERTEX
  5
68
330
65
100
AcDbEntity
  8
Vrstva 4
370
     0
100
AcDbVertex
100
AcDb2dVertex
 10
111.150390625
 20
-45.345703125
 30
0.0
  0
VERTEX
  5
69
330
65
100
AcDbEntity
  8
Vrstva 4
370
     0
100
AcDbVertex
100
AcDb2dVertex
 10
106.5302734375
 20
-35.6806640625
 30
0.0
  0
VERTEX
  5
6A
330
65
100
AcDbEntity
  8
Vrstva 4
370
     0
100
AcDbVertex
100
AcDb2dVertex
 10
93.8759765625
 20
-35.6806640625
 30
0.0
  0
VERTEX
  5
6B
330
65
100
AcDbEntity
  8
Vrstva 4
370
     0
100
AcDbVertex
100
AcDb2dVertex
 10
89.2998046875
 20
-45.345703125
 30
0.0
  0
VERTEX
  5
6C
330
65
100
AcDbEntity
  8
Vrstva 4
370
     0
100
AcDbVertex
100
AcDb2dVertex
 10
86.0244140625
 20
-45.345703125
 30
0.0
  0
VERTEX
  5
6D
330
65
100
AcDbEntity
  8
Vrstva 4
370
     0
100
AcDbVertex
100
AcDb2dVertex
 10
99.9033203125
 20
-15.97021484375
 30
0.0
  0
VERTEX
  5
6E
330
65
100
AcDbEntity
  8
Vrstva 4
370
     0
100
AcDbVertex
100
AcDb2dVertex
 10
100.6220703125
 20
-15.97021484375
 30
0.0
  0
SEQEND
  5
6F
330
65
100
AcDbEntity
  8
Vrstva 4
370
     0
  0
POLYLINE
  5
70
330
5F
100
AcDbEntity
  8
Vrstva 4
370
     0
100
AcDb2dPolyline
 66
     1
 10
0.0
 20
0.0
 30
0.0
  0
VERTEX
  5
71
330
70
100
AcDbEntity
  8
Vrstva 4
370
     0
100
AcDbVertex
100
AcDb2dVertex
 10
100.251953125
 20
-22.21142578125
 30
0.0
  0
VERTEX
  5
72
330
70
100
AcDbEntity
  8
Vrstva 4
370
     0
100
AcDbVertex
100
AcDb2dVertex
 10
95.2177734375
 20
-32.8447265625
 30
0.0
  0
VERTEX
  5
73
330
70
100
AcDbEntity
  8
Vrstva 4
370
     0
100
AcDbVertex
100
AcDb2dVertex
 10
105.2607421875
 20
-32.8447265625
 30
0.0
  0
VERTEX
  5
74
330
70
100
AcDbEntity
  8
Vrstva 4
370
     0
100
AcDbVertex
100
AcDb2dVertex
 10
100.251953125
 20
-22.21142578125
 30
0.0
  0
SEQEND
  5
75
330
70
100
AcDbEntity
  8
Vrstva 4
370
     0
  0
HATCH
  5
76
330
5F
100
AcDbEntity
  8
Vrstva 4
 62
     7
420
 16777215
100
AcDbHatch
 10
0.0
 20
0.0
 30
0.0
210
0.0
220
0.0
230
1.0
  2
SOLID
 70
     1
 71
     0
 91
        2
 92
        1
 93
        8
 72
     1
 10
100.6220703125
 20
-15.97021484375
 11
114.3212890625
 21
-45.345703125
 72
     1
 10
114.3212890625
 20
-45.345703125
 11
111.150390625
 21
-45.345703125
 72
     1
 10
111.150390625
 20
-45.345703125
 11
106.5302734375
 21
-35.6806640625
 72
     1
 10
106.5302734375
 20
-35.6806640625
 11
93.8759765625
 21
-35.6806640625
 72
     1
 10
93.8759765625
 20
-35.6806640625
 11
89.2998046875
 21
-45.345703125
 72
     1
 10
89.2998046875
 20
-45.345703125
 11
86.0244140625
 21
-45.345703125
 72
     1
 10
86.0244140625
 20
-45.345703125
 11
99.9033203125
 21
-15.97021484375
 72
     1
 10
99.9033203125
 20
-15.97021484375
 11
100.6220703125
 21
-15.97021484375
 97
        0
 92
        1
 93
        3
 72
     1
 10
100.251953125
 20
-22.21142578125
 11
95.2177734375
 21
-32.8447265625
 72
     1
 10
95.2177734375
 20
-32.8447265625
 11
105.2607421875
 21
-32.8447265625
 72
     1
 10
105.2607421875
 20
-32.8447265625
 11
100.251953125
 21
-22.21142578125
 97
        0
 75
     2
 76
     1
 98
        0
  0
SPLINE
  5
77
330
5F
100
AcDbEntity
  8
Vrstva 4
370
     0
100
AcDbSpline
210
0.0
220
0.0
230
1.0
 70
    11
 71
     3
 72
    29
 73
    25
 74
     0
 42
0.0000000001
 43
0.0000000001
 12
1.0
 22
0.0
 32
0.0
 13
1.0
 23
0.0
 33
0.0
 40
0.0
 40
0.0
 40
0.0
 40
0.0
 40
1.0
 40
1.0
 40
1.0
 40
2.0
 40
2.0
 40
2.0
 40
3.0
 40
3.0
 40
3.0
 40
4.0
 40
4.0
 40
4.0
 40
5.0
 40
5.0
 40
5.0
 40
6.0
 40
6.0
 40
6.0
 40
7.0
 40
7.0
 40
7.0
 40
8.0
 40
8.0
 40
8.0
 40
8.0
 10
121.490234375
 20
-40.9521484375
 30
0.0
 10
122.1689453125
 20
-40.9521484375
 30
0.0
 10
122.748046875
 20
-41.1923828125
 30
0.0
 10
123.2275390625
 20
-41.6708984375
 30
0.0
 10
123.70703125
 20
-42.150390625
 30
0.0
 10
123.9462890625
 20
-42.736328125
 30
0.0
 10
123.9462890625
 20
-43.4287109375
 30
0.0
 10
123.9462890625
 20
-44.107421875
 30
0.0
 10
123.70703125
 20
-44.6904296875
 30
0.0
 10
123.2275390625
 20
-45.17578125
 30
0.0
 10
122.748046875
 20
-45.662109375
 30
0.0
 10
122.1689453125
 20
-45.9052734375
 30
0.0
 10
121.490234375
 20
-45.9052734375
 30
0.0
 10
120.8115234375
 20
-45.9052734375
 30
0.0
 10
120.232421875
 20
-45.662109375
 30
0.0
 10
119.7529296875
 20
-45.17578125
 30
0.0
 10
119.2734375
 20
-44.6904296875
 30
0.0
 10
119.0341796875
 20
-44.107421875
 30
0.0
 10
119.0341796875
 20
-43.4287109375
 30
0.0
 10
119.0341796875
 20
-42.736328125
 30
0.0
 10
119.2734375
 20
-42.150390625
 30
0.0
 10
119.7529296875
 20
-41.6708984375
 30
0.0
 10
120.232421875
 20
-41.1923828125
 30
0.0
 10
120.8115234375
 20
-40.9521484375
 30
0.0
 10
121.490234375
 20
-40.9521484375
 30
0.0
  0
HATCH
  5
78
330
5F
100
AcDbEntity
  8
Vrstva 4
 62
     7
420
 16777215
100
AcDbHatch
 10
0.0
 20
0.0
 30
0.0
210
0.0
220
0.0
230
1.0
  2
SOLID
 70
     1
 71
     0
 91
        1
 92
        1
 93
        1
 72
     4
 94
        3
 73
     0
 74
     1
 95
       29
 96
       25
 40
0.0
 40
0.0
 40
0.0
 40
0.0
 40
1.0
 40
1.0
 40
1.0
 40
2.0
 40
2.0
 40
2.0
 40
3.0
 40
3.0
 40
3.0
 40
4.0
 40
4.0
 40
4.0
 40
5.0
 40
5.0
 40
5.0
 40
6.0
 40
6.0
 40
6.0
 40
7.0
 40
7.0
 40
7.0
 40
8.0
 40
8.0
 40
8.0
 40
8.0
 10
121.490234375
 20
-40.9521484375
 10
122.1689453125
 20
-40.9521484375
 10
122.748046875
 20
-41.1923828125
 10
123.2275390625
 20
-41.6708984375
 10
123.70703125
 20
-42.150390625
 10
123.9462890625
 20
-42.736328125
 10
123.9462890625
 20
-43.4287109375
 10
123.9462890625
 20
-44.107421875
 10
123.70703125
 20
-44.6904296875
 10
123.2275390625
 20
-45.17578125
 10
122.748046875
 20
-45.662109375
 10
122.1689453125
 20
-45.9052734375
 10
121.490234375
 20
-45.9052734375
 10
120.8115234375
 20
-45.9052734375
 10
120.232421875
 20
-45.662109375
 10
119.7529296875
 20
-45.17578125
 10
119.2734375
 20
-44.6904296875
 10
119.0341796875
 20
-44.107421875
 10
119.0341796875
 20
-43.4287109375
 10
119.0341796875
 20
-42.736328125
 10
119.2734375
 20
-42.150390625
 10
119.7529296875
 20
-41.6708984375
 10
120.232421875
 20
-41.1923828125
 10
120.8115234375
 20
-40.9521484375
 10
121.490234375
 20
-40.9521484375
 97
        0
 97
        0
 75
     2
 76
     1
 98
        0
  0
ENDBLK
  5
62
330
5F
100
AcDbEntity
  8
0
100
AcDbBlockEnd
  0
BLOCK
  5
7B
330
79
100
AcDbEntity
  8
0
100
AcDbBlockBegin
  2
block 5
 70
     0
 10
0.0
 20
0.0
 30
0.0
  3
block 5
  1

  0
SPLINE
  5
7D
330
79
100
AcDbEntity
  8
Vrstva 4
370
     0
100
AcDbSpline
210
0.0
220
0.0
230
1.0
 70
     8
 71
     3
 72
    68
 73
    64
 74
     0
 42
0.0000000001
 43
0.0000000001
 12
1.0
 22
0.0
 32
0.0
 13
1.0
 23
0.0
 33
0.0
 40
0.0
 40
0.0
 40
0.0
 40
0.0
 40
1.0
 40
1.0
 40
1.0
 40
2.0
 40
2.0
 40
2.0
 40
3.0
 40
3.0
 40
3.0
 40
4.0
 40
4.0
 40
4.0
 40
5.0
 40
5.0
 40
5.0
 40
6.0
 40
6.0
 40
6.0
 40
7.0
 40
7.0
 40
7.0
 40
8.0
 40
8.0
 40
8.0
 40
9.0
 40
9.0
 40
9.0
 40
10.0
 40
10.0
 40
10.0
 40
11.0
 40
11.0
 40
11.0
 40
12.0
 40
12.0
 40
12.0
 40
13.0
 40
13.0
 40
13.0
 40
14.0
 40
14.0
 40
14.0
 40
15.0
 40
15.0
 40
15.0
 40
16.0
 40
16.0
 40
16.0
 40
17.0
 40
17.0
 40
17.0
 40
18.0
 40
18.0
 40
18.0
 40
19.0
 40
19.0
 40
19.0
 40
20.0
 40
20.0
 40
20.0
 40
21.0
 40
21.0
 40
21.0
 40
21.0
 10
52.41692267371945
 20
-35.1757153782346
 30
0.0
 10
52.64958923950871
 20
-35.81240626630097
 30
0.0
 10
52.93462000083036
 20
-36.42854920521131
 30
0.0
 10
53.27200846415872
 20
-37.02415068858681
 30
0.0
 10
54.3588422684179
 20
-38.94298648447875
 30
0.0
 10
55.87220461784636
 20
-40.45504645660913
 30
0.0
 10
57.81231257517993
 20
-41.56076473087523
 30
0.0
 10
59.75242053258808
 20
-42.66670006787535
 30
0.0
 10
61.8627057822805
 20
-43.21955920494293
 30
0.0
 10
64.14273419848814
 20
-43.21955920494293
 30
0.0
 10
67.55691612526061
 20
-43.21955920494293
 30
0.0
 10
70.47380701051225
 20
-42.01724795238988
 30
0.0
 10
72.89405804252237
 20
-39.6121913213683
 30
0.0
 10
75.31387494890805
 20
-37.20735175323716
 30
0.0
 10
76.52421752786177
 20
-34.2594208773553
 30
0.0
 10
76.52421752786177
 20
-30.76839869354535
 30
0.0
 10
76.52421752786177
 20
-28.41001058018901
 30
0.0
 10
75.97721908822132
 20
-26.27172421988871
 30
0.0
 10
74.88409046063316
 20
-24.35310548694633
 30
0.0
 10
73.79096183302681
 20
-22.43470381681527
 30
0.0
 10
72.27065347175449
 20
-20.90918594655705
 30
0.0
 10
70.3231653766743
 20
-19.77655187609525
 30
0.0
 10
68.37654553312677
 20
-18.64391780563983
 30
0.0
 10
66.31618474420247
 20
-18.07760077044441
 30
0.0
 10
64.14273419848814
 20
-18.07760077044441
 30
0.0
 10
61.92912702133708
 20
-18.07760077044441
 30
0.0
 10
59.83577267576584
 20
-18.64391780563983
 30
0.0
 10
57.86223703594806
 20
-19.77655187609525
 30
0.0
 10
55.88891845901344
 20
-20.90918594655705
 30
0.0
 10
54.3588422684179
 20
-22.41798997565093
 30
0.0
 10
53.27200846415872
 20
-24.30318102618003
 30
0.0
 10
52.76965970815127
 20
-25.17454091151103
 30
0.0
 10
52.3833838381006
 20
-26.0936655081905
 30
0.0
 10
52.11320228833665
 20
-27.06046907841665
 30
0.0
 10
52.11320228833665
 20
-27.06046907841665
 30
0.0
 10
49.23662889697243
 20
-26.05205586581178
 30
0.0
 10
49.23662889697243
 20
-26.05205586581178
 30
0.0
 10
49.93878605849386
 20
-23.65816237336912
 30
0.0
 10
51.22747473693744
 20
-21.53253825624688
 30
0.0
 10
53.10248236044936
 20
-19.67518351451508
 30
0.0
 10
56.09990357139486
 20
-16.70663166564918
 30
0.0
 10
59.82340009198469
 20
-15.22192161548082
 30
0.0
 10
64.27253779644616
 20
-15.22192161548082
 30
0.0
 10
67.01686369775052
 20
-15.22192161548082
 30
0.0
 10
69.568220704954
 20
-15.90436728761779
 30
0.0
 10
71.92595762966448
 20
-17.26882450626999
 30
0.0
 10
74.2841286801413
 20
-18.63371585061304
 30
0.0
 10
76.14565987765673
 20
-20.52086046702061
 30
0.0
 10
77.51141947346332
 20
-22.93025835549906
 30
0.0
 10
78.87674494364546
 20
-25.34009036973566
 30
0.0
 10
79.55962474147964
 20
-27.95613211313412
 30
0.0
 10
79.55962474147964
 20
-30.77838358568624
 30
0.0
 10
79.55962474147964
 20
-35.01197785736804
 30
0.0
 10
78.061022667418
 20
-38.61999692973041
 30
0.0
 10
75.06338439365209
 20
-41.60200667658864
 30
0.0
 10
72.06574611976612
 20
-44.58445054935873
 30
0.0
 10
68.3891351797829
 20
-46.07523836003747
 30
0.0
 10
64.03290038488194
 20
-46.07523836003747
 30
0.0
 10
59.73006305665876
 20
-46.07523836003747
 30
0.0
 10
56.08340679311095
 20
-44.57750453751578
 30
0.0
 10
53.09249746831392
 20
-41.58203689230504
 30
0.0
 10
51.47777189771023
 20
-39.96473301117294
 30
0.0
 10
50.2988919377085
 20
-38.15734779814375
 30
0.0
 10
49.55592591588538
 20
-36.15974459790959
 30
0.0
  0
HATCH
  5
7E
330
79
100
AcDbEntity
  8
Vrstva 4
 62
     8
420
  7501433
100
AcDbHatch
 10
0.0
 20
0.0
 30
0.0
210
0.0
220
0.0
230
1.0
  2
SOLID
 70
     1
 71
     0
 91
        1
 92
        1
 93
        2
 72
     4
 94
        3
 73
     0
 74
     0
 95
       68
 96
       64
 40
0.0
 40
0.0
 40
0.0
 40
0.0
 40
1.0
 40
1.0
 40
1.0
 40
2.0
 40
2.0
 40
2.0
 40
3.0
 40
3.0
 40
3.0
 40
4.0
 40
4.0
 40
4.0
 40
5.0
 40
5.0
 40
5.0
 40
6.0
 40
6.0
 40
6.0
 40
7.0
 40
7.0
 40
7.0
 40
8.0
 40
8.0
 40
8.0
 40
9.0
 40
9.0
 40
9.0
 40
10.0
 40
10.0
 40
10.0
 40
11.0
 40
11.0
 40
11.0
 40
12.0
 40
12.0
 40
12.0
 40
13.0
 40
13.0
 40
13.0
 40
14.0
 40
14.0
 40
14.0
 40
15.0
 40
15.0
 40
15.0
 40
16.0
 40
16.0
 40
16.0
 40
17.0
 40
17.0
 40
17.0
 40
18.0
 40
18.0
 40
18.0
 40
19.0
 40
19.0
 40
19.0
 40
20.0
 40
20.0
 40
20.0
 40
21.0
 40
21.0
 40
21.0
 40
21.0
 10
52.41692267371945
 20
-35.1757153782346
 10
52.64958923950871
 20
-35.81240626630097
 10
52.93462000083036
 20
-36.42854920521131
 10
53.27200846415872
 20
-37.02415068858681
 10
54.3588422684179
 20
-38.94298648447875
 10
55.87220461784636
 20
-40.45504645660913
 10
57.81231257517993
 20
-41.56076473087523
 10
59.75242053258808
 20
-42.66670006787535
 10
61.8627057822805
 20
-43.21955920494293
 10
64.14273419848814
 20
-43.21955920494293
 10
67.55691612526061
 20
-43.21955920494293
 10
70.47380701051225
 20
-42.01724795238988
 10
72.89405804252237
 20
-39.6121913213683
 10
75.31387494890805
 20
-37.20735175323716
 10
76.52421752786177
 20
-34.2594208773553
 10
76.52421752786177
 20
-30.76839869354535
 10
76.52421752786177
 20
-28.41001058018901
 10
75.97721908822132
 20
-26.27172421988871
 10
74.88409046063316
 20
-24.35310548694633
 10
73.79096183302681
 20
-22.43470381681527
 10
72.27065347175449
 20
-20.90918594655705
 10
70.3231653766743
 20
-19.77655187609525
 10
68.37654553312677
 20
-18.64391780563983
 10
66.31618474420247
 20
-18.07760077044441
 10
64.14273419848814
 20
-18.07760077044441
 10
61.92912702133708
 20
-18.07760077044441
 10
59.83577267576584
 20
-18.64391780563983
 10
57.86223703594806
 20
-19.77655187609525
 10
55.88891845901344
 20
-20.90918594655705
 10
54.3588422684179
 20
-22.41798997565093
 10
53.27200846415872
 20
-24.30318102618003
 10
52.76965970815127
 20
-25.17454091151103
 10
52.3833838381006
 20
-26.0936655081905
 10
52.11320228833665
 20
-27.06046907841665
 10
52.11320228833665
 20
-27.06046907841665
 10
49.23662889697243
 20
-26.05205586581178
 10
49.23662889697243
 20
-26.05205586581178
 10
49.93878605849386
 20
-23.65816237336912
 10
51.22747473693744
 20
-21.53253825624688
 10
53.10248236044936
 20
-19.67518351451508
 10
56.09990357139486
 20
-16.70663166564918
 10
59.82340009198469
 20
-15.22192161548082
 10
64.27253779644616
 20
-15.22192161548082
 10
67.01686369775052
 20
-15.22192161548082
 10
69.568220704954
 20
-15.90436728761779
 10
71.92595762966448
 20
-17.26882450626999
 10
74.2841286801413
 20
-18.63371585061304
 10
76.14565987765673
 20
-20.52086046702061
 10
77.51141947346332
 20
-22.93025835549906
 10
78.87674494364546
 20
-25.34009036973566
 10
79.55962474147964
 20
-27.95613211313412
 10
79.55962474147964
 20
-30.77838358568624
 10
79.55962474147964
 20
-35.01197785736804
 10
78.061022667418
 20
-38.61999692973041
 10
75.06338439365209
 20
-41.60200667658864
 10
72.06574611976612
 20
-44.58445054935873
 10
68.3891351797829
 20
-46.07523836003747
 10
64.03290038488194
 20
-46.07523836003747
 10
59.73006305665876
 20
-46.07523836003747
 10
56.08340679311095
 20
-44.57750453751578
 10
53.09249746831392
 20
-41.58203689230504
 10
51.47777189771023
 20
-39.96473301117294
 10
50.2988919377085
 20
-38.15734779814375
 10
49.55592591588538
 20
-36.15974459790959
 97
        0
 72
     1
 10
49.55592591588538
 20
-36.15974459790959
 11
52.41692267371945
 21
-35.1757153782346
 97
        0
 75
     2
 76
     1
 98
        0
  0
ENDBLK
  5
7C
330
79
100
AcDbEntity
  8
0
100
AcDbBlockEnd
  0
BLOCK
  5
82
330
80
100
AcDbEntity
  8
0
100
AcDbBlockBegin
  2
block 6
 70
     0
 10
0.0
 20
0.0
 30
0.0
  3
block 6
  1

  0
POLYLINE
  5
84
330
80
100
AcDbEntity
  8
Vrstva 4
370
     0
100
AcDb2dPolyline
 66
     1
 10
0.0
 20
0.0
 30
0.0
  0
VERTEX
  5
85
330
84
100
AcDbEntity
  8
Vrstva 4
370
     0
100
AcDbVertex
100
AcDb2dVertex
 10
81.23046875
 20
-49.4345703125
 30
0.0
  0
VERTEX
  5
86
330
84
100
AcDbEntity
  8
Vrstva 4
370
     0
100
AcDbVertex
100
AcDb2dVertex
 10
81.7744140625
 20
-49.4345703125
 30
0.0
  0
VERTEX
  5
87
330
84
100
AcDbEntity
  8
Vrstva 4
370
     0
100
AcDbVertex
100
AcDb2dVertex
 10
81.7744140625
 20
-54.3564453125
 30
0.0
  0
VERTEX
  5
88
330
84
100
AcDbEntity
  8
Vrstva 4
370
     0
100
AcDbVertex
100
AcDb2dVertex
 10
83.87109375
 20
-54.3564453125
 30
0.0
  0
VERTEX
  5
89
330
84
100
AcDbEntity
  8
Vrstva 4
370
     0
100
AcDbVertex
100
AcDb2dVertex
 10
83.87109375
 20
-54.8828125
 30
0.0
  0
VERTEX
  5
8A
330
84
100
AcDbEntity
  8
Vrstva 4
370
     0
100
AcDbVertex
100
AcDb2dVertex
 10
81.23046875
 20
-54.8828125
 30
0.0
  0
VERTEX
  5
8B
330
84
100
AcDbEntity
  8
Vrstva 4
370
     0
100
AcDbVertex
100
AcDb2dVertex
 10
81.23046875
 20
-49.4345703125
 30
0.0
  0
SEQEND
  5
8C
330
84
100
AcDbEntity
  8
Vrstva 4
370
     0
  0
HATCH
  5
8D
330
80
100
AcDbEntity
  8
Vrstva 4
 62
     7
420
 16777215
100
AcDbHatch
 10
0.0
 20
0.0
 30
0.0
210
0.0
220
0.0
230
1.0
  2
SOLID
 70
     1
 71
     0
 91
        1
 92
        1
 93
        6
 72
     1
 10
81.23046875
 20
-49.4345703125
 11
81.7744140625
 21
-49.4345703125
 72
     1
 10
81.7744140625
 20
-49.4345703125
 11
81.7744140625
 21
-54.3564453125
 72
     1
 10
81.7744140625
 20
-54.3564453125
 11
83.87109375
 21
-54.3564453125
 72
     1
 10
83.87109375
 20
-54.3564453125
 11
83.87109375
 21
-54.8828125
 72
     1
 10
83.87109375
 20
-54.8828125
 11
81.23046875
 21
-54.8828125
 72
     1
 10
81.23046875
 20
-54.8828125
 11
81.23046875
 21
-49.4345703125
 97
        0
 75
     2
 76
     1
 98
        0
  0
SPLINE
  5
8E
330
80
100
AcDbEntity
  8
Vrstva 4
370
     0
100
AcDbSpline
210
0.0
220
0.0
230
1.0
 70
    11
 71
     3
 72
    44
 73
    40
 74
     0
 42
0.0000000001
 43
0.0000000001
 12
1.0
 22
0.0
 32
0.0
 13
1.0
 23
0.0
 33
0.0
 40
0.0
 40
0.0
 40
0.0
 40
0.0
 40
1.0
 40
1.0
 40
1.0
 40
2.0
 40
2.0
 40
2.0
 40
3.0
 40
3.0
 40
3.0
 40
4.0
 40
4.0
 40
4.0
 40
5.0
 40
5.0
 40
5.0
 40
6.0
 40
6.0
 40
6.0
 40
7.0
 40
7.0
 40
7.0
 40
8.0
 40
8.0
 40
8.0
 40
9.0
 40
9.0
 40
9.0
 40
10.0
 40
10.0
 40
10.0
 40
11.0
 40
11.0
 40
11.0
 40
12.0
 40
12.0
 40
12.0
 40
13.0
 40
13.0
 40
13.0
 40
13.0
 10
88.6640625
 20
-50.853515625
 30
0.0
 10
88.6640625
 20
-50.853515625
 30
0.0
 10
88.6640625
 20
-54.8828125
 30
0.0
 10
88.6640625
 20
-54.8828125
 30
0.0
 10
88.6640625
 20
-54.8828125
 30
0.0
 10
88.15234375
 20
-54.8828125
 30
0.0
 10
88.15234375
 20
-54.8828125
 30
0.0
 10
88.15234375
 20
-54.8828125
 30
0.0
 10
88.15234375
 20
-54.1904296875
 30
0.0
 10
88.15234375
 20
-54.1904296875
 30
0.0
 10
87.935546875
 20
-54.4541015625
 30
0.0
 10
87.69140625
 20
-54.6533203125
 30
0.0
 10
87.4208984375
 20
-54.7861328125
 30
0.0
 10
87.1513671875
 20
-54.919921875
 30
0.0
 10
86.85546875
 20
-54.986328125
 30
0.0
 10
86.5341796875
 20
-54.986328125
 30
0.0
 10
85.9638671875
 20
-54.986328125
 30
0.0
 10
85.4765625
 20
-54.779296875
 30
0.0
 10
85.0732421875
 20
-54.3662109375
 30
0.0
 10
84.669921875
 20
-53.9521484375
 30
0.0
 10
84.4677734375
 20
-53.44921875
 30
0.0
 10
84.4677734375
 20
-52.8564453125
 30
0.0
 10
84.4677734375
 20
-52.2763671875
 30
0.0
 10
84.6708984375
 20
-51.7802734375
 30
0.0
 10
85.0791015625
 20
-51.3681640625
 30
0.0
 10
85.486328125
 20
-50.9560546875
 30
0.0
 10
85.9765625
 20
-50.7490234375
 30
0.0
 10
86.548828125
 20
-50.7490234375
 30
0.0
 10
86.8798828125
 20
-50.7490234375
 30
0.0
 10
87.1796875
 20
-50.8203125
 30
0.0
 10
87.447265625
 20
-50.9609375
 30
0.0
 10
87.71484375
 20
-51.1015625
 30
0.0
 10
87.9501953125
 20
-51.3125
 30
0.0
 10
88.15234375
 20
-51.59375
 30
0.0
 10
88.15234375
 20
-51.59375
 30
0.0
 10
88.15234375
 20
-50.853515625
 30
0.0
 10
88.15234375
 20
-50.853515625
 30
0.0
 10
88.15234375
 20
-50.853515625
 30
0.0
 10
88.6640625
 20
-50.853515625
 30
0.0
 10
88.6640625
 20
-50.853515625
 30
0.0
  0
SPLINE
  5
8F
330
80
100
AcDbEntity
  8
Vrstva 4
370
     0
100
AcDbSpline
210
0.0
220
0.0
230
1.0
 70
    11
 71
     3
 72
    38
 73
    34
 74
     0
 42
0.0000000001
 43
0.0000000001
 12
1.0
 22
0.0
 32
0.0
 13
1.0
 23
0.0
 33
0.0
 40
0.0
 40
0.0
 40
0.0
 40
0.0
 40
1.0
 40
1.0
 40
1.0
 40
2.0
 40
2.0
 40
2.0
 40
3.0
 40
3.0
 40
3.0
 40
4.0
 40
4.0
 40
4.0
 40
5.0
 40
5.0
 40
5.0
 40
6.0
 40
6.0
 40
6.0
 40
7.0
 40
7.0
 40
7.0
 40
8.0
 40
8.0
 40
8.0
 40
9.0
 40
9.0
 40
9.0
 40
10.0
 40
10.0
 40
10.0
 40
11.0
 40
11.0
 40
11.0
 40
11.0
 10
86.591796875
 20
-51.2490234375
 30
0.0
 10
86.302734375
 20
-51.2490234375
 30
0.0
 10
86.037109375
 20
-51.3203125
 30
0.0
 10
85.79296875
 20
-51.4619140625
 30
0.0
 10
85.548828125
 20
-51.6044921875
 30
0.0
 10
85.3544921875
 20
-51.8037109375
 30
0.0
 10
85.2099609375
 20
-52.0595703125
 30
0.0
 10
85.0654296875
 20
-52.31640625
 30
0.0
 10
84.9931640625
 20
-52.587890625
 30
0.0
 10
84.9931640625
 20
-52.8740234375
 30
0.0
 10
84.9931640625
 20
-53.1572265625
 30
0.0
 10
85.06640625
 20
-53.4287109375
 30
0.0
 10
85.2119140625
 20
-53.6875
 30
0.0
 10
85.357421875
 20
-53.9462890625
 30
0.0
 10
85.552734375
 20
-54.1484375
 30
0.0
 10
85.7978515625
 20
-54.2919921875
 30
0.0
 10
86.04296875
 20
-54.4365234375
 30
0.0
 10
86.306640625
 20
-54.5087890625
 30
0.0
 10
86.587890625
 20
-54.5087890625
 30
0.0
 10
86.8720703125
 20
-54.5087890625
 30
0.0
 10
87.140625
 20
-54.4375
 30
0.0
 10
87.39453125
 20
-54.2939453125
 30
0.0
 10
87.6484375
 20
-54.1513671875
 30
0.0
 10
87.84375
 20
-53.9580078125
 30
0.0
 10
87.98046875
 20
-53.712890625
 30
0.0
 10
88.1171875
 20
-53.46875
 30
0.0
 10
88.1865234375
 20
-53.1943359375
 30
0.0
 10
88.1865234375
 20
-52.888671875
 30
0.0
 10
88.1865234375
 20
-52.421875
 30
0.0
 10
88.0322265625
 20
-52.0322265625
 30
0.0
 10
87.7255859375
 20
-51.7197265625
 30
0.0
 10
87.4189453125
 20
-51.40625
 30
0.0
 10
87.0400390625
 20
-51.2490234375
 30
0.0
 10
86.591796875
 20
-51.2490234375
 30
0.0
  0
HATCH
  5
90
330
80
100
AcDbEntity
  8
Vrstva 4
 62
     7
420
 16777215
100
AcDbHatch
 10
0.0
 20
0.0
 30
0.0
210
0.0
220
0.0
230
1.0
  2
SOLID
 70
     1
 71
     0
 91
        2
 92
        1
 93
        1
 72
     4
 94
        3
 73
     0
 74
     1
 95
       44
 96
       40
 40
0.0
 40
0.0
 40
0.0
 40
0.0
 40
1.0
 40
1.0
 40
1.0
 40
2.0
 40
2.0
 40
2.0
 40
3.0
 40
3.0
 40
3.0
 40
4.0
 40
4.0
 40
4.0
 40
5.0
 40
5.0
 40
5.0
 40
6.0
 40
6.0
 40
6.0
 40
7.0
 40
7.0
 40
7.0
 40
8.0
 40
8.0
 40
8.0
 40
9.0
 40
9.0
 40
9.0
 40
10.0
 40
10.0
 40
10.0
 40
11.0
 40
11.0
 40
11.0
 40
12.0
 40
12.0
 40
12.0
 40
13.0
 40
13.0
 40
13.0
 40
13.0
 10
88.6640625
 20
-50.853515625
 10
88.6640625
 20
-50.853515625
 10
88.6640625
 20
-54.8828125
 10
88.6640625
 20
-54.8828125
 10
88.6640625
 20
-54.8828125
 10
88.15234375
 20
-54.8828125
 10
88.15234375
 20
-54.8828125
 10
88.15234375
 20
-54.8828125
 10
88.15234375
 20
-54.1904296875
 10
88.15234375
 20
-54.1904296875
 10
87.935546875
 20
-54.4541015625
 10
87.69140625
 20
-54.6533203125
 10
87.4208984375
 20
-54.7861328125
 10
87.1513671875
 20
-54.919921875
 10
86.85546875
 20
-54.986328125
 10
86.5341796875
 20
-54.986328125
 10
85.9638671875
 20
-54.986328125
 10
85.4765625
 20
-54.779296875
 10
85.0732421875
 20
-54.3662109375
 10
84.669921875
 20
-53.9521484375
 10
84.4677734375
 20
-53.44921875
 10
84.4677734375
 20
-52.8564453125
 10
84.4677734375
 20
-52.2763671875
 10
84.6708984375
 20
-51.7802734375
 10
85.0791015625
 20
-51.3681640625
 10
85.486328125
 20
-50.9560546875
 10
85.9765625
 20
-50.7490234375
 10
86.548828125
 20
-50.7490234375
 10
86.8798828125
 20
-50.7490234375
 10
87.1796875
 20
-50.8203125
 10
87.447265625
 20
-50.9609375
 10
87.71484375
 20
-51.1015625
 10
87.9501953125
 20
-51.3125
 10
88.15234375
 20
-51.59375
 10
88.15234375
 20
-51.59375
 10
88.15234375
 20
-50.853515625
 10
88.15234375
 20
-50.853515625
 10
88.15234375
 20
-50.853515625
 10
88.6640625
 20
-50.853515625
 10
88.6640625
 20
-50.853515625
 97
        0
 97
        0
 92
        1
 93
        1
 72
     4
 94
        3
 73
     0
 74
     1
 95
       38
 96
       34
 40
0.0
 40
0.0
 40
0.0
 40
0.0
 40
1.0
 40
1.0
 40
1.0
 40
2.0
 40
2.0
 40
2.0
 40
3.0
 40
3.0
 40
3.0
 40
4.0
 40
4.0
 40
4.0
 40
5.0
 40
5.0
 40
5.0
 40
6.0
 40
6.0
 40
6.0
 40
7.0
 40
7.0
 40
7.0
 40
8.0
 40
8.0
 40
8.0
 40
9.0
 40
9.0
 40
9.0
 40
10.0
 40
10.0
 40
10.0
 40
11.0
 40
11.0
 40
11.0
 40
11.0
 10
86.591796875
 20
-51.2490234375
 10
86.302734375
 20
-51.2490234375
 10
86.037109375
 20
-51.3203125
 10
85.79296875
 20
-51.4619140625
 10
85.548828125
 20
-51.6044921875
 10
85.3544921875
 20
-51.8037109375
 10
85.2099609375
 20
-52.0595703125
 10
85.0654296875
 20
-52.31640625
 10
84.9931640625
 20
-52.587890625
 10
84.9931640625
 20
-52.8740234375
 10
84.9931640625
 20
-53.1572265625
 10
85.06640625
 20
-53.4287109375
 10
85.2119140625
 20
-53.6875
 10
85.357421875
 20
-53.9462890625
 10
85.552734375
 20
-54.1484375
 10
85.7978515625
 20
-54.2919921875
 10
86.04296875
 20
-54.4365234375
 10
86.306640625
 20
-54.5087890625
 10
86.587890625
 20
-54.5087890625
 10
86.8720703125
 20
-54.5087890625
 10
87.140625
 20
-54.4375
 10
87.39453125
 20
-54.2939453125
 10
87.6484375
 20
-54.1513671875
 10
87.84375
 20
-53.9580078125
 10
87.98046875
 20
-53.712890625
 10
88.1171875
 20
-53.46875
 10
88.1865234375
 20
-53.1943359375
 10
88.1865234375
 20
-52.888671875
 10
88.1865234375
 20
-52.421875
 10
88.0322265625
 20
-52.0322265625
 10
87.7255859375
 20
-51.7197265625
 10
87.4189453125
 20
-51.40625
 10
87.0400390625
 20
-51.2490234375
 10
86.591796875
 20
-51.2490234375
 97
        0
 97
        0
 75
     2
 76
     1
 98
        0
  0
SPLINE
  5
91
330
80
100
AcDbEntity
  8
Vrstva 4
370
     0
100
AcDbSpline
210
0.0
220
0.0
230
1.0
 70
    11
 71
     3
 72
    74
 73
    70
 74
     0
 42
0.0000000001
 43
0.0000000001
 12
1.0
 22
0.0
 32
0.0
 13
1.0
 23
0.0
 33
0.0
 40
0.0
 40
0.0
 40
0.0
 40
0.0
 40
1.0
 40
1.0
 40
1.0
 40
2.0
 40
2.0
 40
2.0
 40
3.0
 40
3.0
 40
3.0
 40
4.0
 40
4.0
 40
4.0
 40
5.0
 40
5.0
 40
5.0
 40
6.0
 40
6.0
 40
6.0
 40
7.0
 40
7.0
 40
7.0
 40
8.0
 40
8.0
 40
8.0
 40
9.0
 40
9.0
 40
9.0
 40
10.0
 40
10.0
 40
10.0
 40
11.0
 40
11.0
 40
11.0
 40
12.0
 40
12.0
 40
12.0
 40
13.0
 40
13.0
 40
13.0
 40
14.0
 40
14.0
 40
14.0
 40
15.0
 40
15.0
 40
15.0
 40
16.0
 40
16.0
 40
16.0
 40
17.0
 40
17.0
 40
17.0
 40
18.0
 40
18.0
 40
18.0
 40
19.0
 40
19.0
 40
19.0
 40
20.0
 40
20.0
 40
20.0
 40
21.0
 40
21.0
 40
21.0
 40
22.0
 40
22.0
 40
22.0
 40
23.0
 40
23.0
 40
23.0
 40
23.0
 10
91.8564453125
 20
-51.2939453125
 30
0.0
 10
91.8564453125
 20
-51.2939453125
 30
0.0
 10
91.5234375
 20
-51.638671875
 30
0.0
 10
91.5234375
 20
-51.638671875
 30
0.0
 10
91.24609375
 20
-51.369140625
 30
0.0
 10
90.974609375
 20
-51.234375
 30
0.0
 10
90.7099609375
 20
-51.234375
 30
0.0
 10
90.5419921875
 20
-51.234375
 30
0.0
 10
90.3974609375
 20
-51.2900390625
 30
0.0
 10
90.27734375
 20
-51.4013671875
 30
0.0
 10
90.1572265625
 20
-51.5126953125
 30
0.0
 10
90.09765625
 20
-51.6416015625
 30
0.0
 10
90.09765625
 20
-51.7900390625
 30
0.0
 10
90.09765625
 20
-51.9208984375
 30
0.0
 10
90.146484375
 20
-52.0458984375
 30
0.0
 10
90.24609375
 20
-52.1640625
 30
0.0
 10
90.3447265625
 20
-52.28515625
 30
0.0
 10
90.552734375
 20
-52.427734375
 30
0.0
 10
90.869140625
 20
-52.58984375
 30
0.0
 10
91.2548828125
 20
-52.7900390625
 30
0.0
 10
91.517578125
 20
-52.982421875
 30
0.0
 10
91.65625
 20
-53.16796875
 30
0.0
 10
91.7919921875
 20
-53.35546875
 30
0.0
 10
91.8603515625
 20
-53.56640625
 30
0.0
 10
91.8603515625
 20
-53.8017578125
 30
0.0
 10
91.8603515625
 20
-54.1318359375
 30
0.0
 10
91.744140625
 20
-54.412109375
 30
0.0
 10
91.51171875
 20
-54.6416015625
 30
0.0
 10
91.279296875
 20
-54.8720703125
 30
0.0
 10
90.98828125
 20
-54.986328125
 30
0.0
 10
90.6396484375
 20
-54.986328125
 30
0.0
 10
90.4072265625
 20
-54.986328125
 30
0.0
 10
90.185546875
 20
-54.935546875
 30
0.0
 10
89.9736328125
 20
-54.8349609375
 30
0.0
 10
89.7626953125
 20
-54.7333984375
 30
0.0
 10
89.587890625
 20
-54.59375
 30
0.0
 10
89.44921875
 20
-54.416015625
 30
0.0
 10
89.44921875
 20
-54.416015625
 30
0.0
 10
89.775390625
 20
-54.0458984375
 30
0.0
 10
89.775390625
 20
-54.0458984375
 30
0.0
 10
90.0400390625
 20
-54.3447265625
 30
0.0
 10
90.3212890625
 20
-54.494140625
 30
0.0
 10
90.6181640625
 20
-54.494140625
 30
0.0
 10
90.826171875
 20
-54.494140625
 30
0.0
 10
91.0029296875
 20
-54.427734375
 30
0.0
 10
91.1484375
 20
-54.2939453125
 30
0.0
 10
91.294921875
 20
-54.16015625
 30
0.0
 10
91.3681640625
 20
-54.00390625
 30
0.0
 10
91.3681640625
 20
-53.8232421875
 30
0.0
 10
91.3681640625
 20
-53.67578125
 30
0.0
 10
91.3193359375
 20
-53.54296875
 30
0.0
 10
91.22265625
 20
-53.427734375
 30
0.0
 10
91.126953125
 20
-53.3134765625
 30
0.0
 10
90.9091796875
 20
-53.1708984375
 30
0.0
 10
90.5693359375
 20
-52.998046875
 30
0.0
 10
90.2060546875
 20
-52.8095703125
 30
0.0
 10
89.958984375
 20
-52.625
 30
0.0
 10
89.8271484375
 20
-52.4423828125
 30
0.0
 10
89.6962890625
 20
-52.259765625
 30
0.0
 10
89.630859375
 20
-52.05078125
 30
0.0
 10
89.630859375
 20
-51.81640625
 30
0.0
 10
89.630859375
 20
-51.509765625
 30
0.0
 10
89.7353515625
 20
-51.255859375
 30
0.0
 10
89.9443359375
 20
-51.052734375
 30
0.0
 10
90.1533203125
 20
-50.8505859375
 30
0.0
 10
90.4169921875
 20
-50.7490234375
 30
0.0
 10
90.736328125
 20
-50.7490234375
 30
0.0
 10
91.107421875
 20
-50.7490234375
 30
0.0
 10
91.48046875
 20
-50.9306640625
 30
0.0
 10
91.8564453125
 20
-51.2939453125
 30
0.0
  0
HATCH
  5
92
330
80
100
AcDbEntity
  8
Vrstva 4
 62
     7
420
 16777215
100
AcDbHatch
 10
0.0
 20
0.0
 30
0.0
210
0.0
220
0.0
230
1.0
  2
SOLID
 70
     1
 71
     0
 91
        1
 92
        1
 93
        1
 72
     4
 94
        3
 73
     0
 74
     1
 95
       74
 96
       70
 40
0.0
 40
0.0
 40
0.0
 40
0.0
 40
1.0
 40
1.0
 40
1.0
 40
2.0
 40
2.0
 40
2.0
 40
3.0
 40
3.0
 40
3.0
 40
4.0
 40
4.0
 40
4.0
 40
5.0
 40
5.0
 40
5.0
 40
6.0
 40
6.0
 40
6.0
 40
7.0
 40
7.0
 40
7.0
 40
8.0
 40
8.0
 40
8.0
 40
9.0
 40
9.0
 40
9.0
 40
10.0
 40
10.0
 40
10.0
 40
11.0
 40
11.0
 40
11.0
 40
12.0
 40
12.0
 40
12.0
 40
13.0
 40
13.0
 40
13.0
 40
14.0
 40
14.0
 40
14.0
 40
15.0
 40
15.0
 40
15.0
 40
16.0
 40
16.0
 40
16.0
 40
17.0
 40
17.0
 40
17.0
 40
18.0
 40
18.0
 40
18.0
 40
19.0
 40
19.0
 40
19.0
 40
20.0
 40
20.0
 40
20.0
 40
21.0
 40
21.0
 40
21.0
 40
22.0
 40
22.0
 40
22.0
 40
23.0
 40
23.0
 40
23.0
 40
23.0
 10
91.8564453125
 20
-51.2939453125
 10
91.8564453125
 20
-51.2939453125
 10
91.5234375
 20
-51.638671875
 10
91.5234375
 20
-51.638671875
 10
91.24609375
 20
-51.369140625
 10
90.974609375
 20
-51.234375
 10
90.7099609375
 20
-51.234375
 10
90.5419921875
 20
-51.234375
 10
90.3974609375
 20
-51.2900390625
 10
90.27734375
 20
-51.4013671875
 10
90.1572265625
 20
-51.5126953125
 10
90.09765625
 20
-51.6416015625
 10
90.09765625
 20
-51.7900390625
 10
90.09765625
 20
-51.9208984375
 10
90.146484375
 20
-52.0458984375
 10
90.24609375
 20
-52.1640625
 10
90.3447265625
 20
-52.28515625
 10
90.552734375
 20
-52.427734375
 10
90.869140625
 20
-52.58984375
 10
91.2548828125
 20
-52.7900390625
 10
91.517578125
 20
-52.982421875
 10
91.65625
 20
-53.16796875
 10
91.7919921875
 20
-53.35546875
 10
91.8603515625
 20
-53.56640625
 10
91.8603515625
 20
-53.8017578125
 10
91.8603515625
 20
-54.1318359375
 10
91.744140625
 20
-54.412109375
 10
91.51171875
 20
-54.6416015625
 10
91.279296875
 20
-54.8720703125
 10
90.98828125
 20
-54.986328125
 10
90.6396484375
 20
-54.986328125
 10
90.4072265625
 20
-54.986328125
 10
90.185546875
 20
-54.935546875
 10
89.9736328125
 20
-54.8349609375
 10
89.7626953125
 20
-54.7333984375
 10
89.587890625
 20
-54.59375
 10
89.44921875
 20
-54.416015625
 10
89.44921875
 20
-54.416015625
 10
89.775390625
 20
-54.0458984375
 10
89.775390625
 20
-54.0458984375
 10
90.0400390625
 20
-54.3447265625
 10
90.3212890625
 20
-54.494140625
 10
90.6181640625
 20
-54.494140625
 10
90.826171875
 20
-54.494140625
 10
91.0029296875
 20
-54.427734375
 10
91.1484375
 20
-54.2939453125
 10
91.294921875
 20
-54.16015625
 10
91.3681640625
 20
-54.00390625
 10
91.3681640625
 20
-53.8232421875
 10
91.3681640625
 20
-53.67578125
 10
91.3193359375
 20
-53.54296875
 10
91.22265625
 20
-53.427734375
 10
91.126953125
 20
-53.3134765625
 10
90.9091796875
 20
-53.1708984375
 10
90.5693359375
 20
-52.998046875
 10
90.2060546875
 20
-52.8095703125
 10
89.958984375
 20
-52.625
 10
89.8271484375
 20
-52.4423828125
 10
89.6962890625
 20
-52.259765625
 10
89.630859375
 20
-52.05078125
 10
89.630859375
 20
-51.81640625
 10
89.630859375
 20
-51.509765625
 10
89.7353515625
 20
-51.255859375
 10
89.9443359375
 20
-51.052734375
 10
90.1533203125
 20
-50.8505859375
 10
90.4169921875
 20
-50.7490234375
 10
90.736328125
 20
-50.7490234375
 10
91.107421875
 20
-50.7490234375
 10
91.48046875
 20
-50.9306640625
 10
91.8564453125
 20
-51.2939453125
 97
        0
 97
        0
 75
     2
 76
     1
 98
        0
  0
SPLINE
  5
93
330
80
100
AcDbEntity
  8
Vrstva 4
370
     0
100
AcDbSpline
210
0.0
220
0.0
230
1.0
 70
    11
 71
     3
 72
    53
 73
    49
 74
     0
 42
0.0000000001
 43
0.0000000001
 12
1.0
 22
0.0
 32
0.0
 13
1.0
 23
0.0
 33
0.0
 40
0.0
 40
0.0
 40
0.0
 40
0.0
 40
1.0
 40
1.0
 40
1.0
 40
2.0
 40
2.0
 40
2.0
 40
3.0
 40
3.0
 40
3.0
 40
4.0
 40
4.0
 40
4.0
 40
5.0
 40
5.0
 40
5.0
 40
6.0
 40
6.0
 40
6.0
 40
7.0
 40
7.0
 40
7.0
 40
8.0
 40
8.0
 40
8.0
 40
9.0
 40
9.0
 40
9.0
 40
10.0
 40
10.0
 40
10.0
 40
11.0
 40
11.0
 40
11.0
 40
12.0
 40
12.0
 40
12.0
 40
13.0
 40
13.0
 40
13.0
 40
14.0
 40
14.0
 40
14.0
 40
15.0
 40
15.0
 40
15.0
 40
16.0
 40
16.0
 40
16.0
 40
16.0
 10
96.16796875
 20
-53.5458984375
 30
0.0
 10
96.16796875
 20
-53.5458984375
 30
0.0
 10
96.6044921875
 20
-53.775390625
 30
0.0
 10
96.6044921875
 20
-53.775390625
 30
0.0
 10
96.4609375
 20
-54.056640625
 30
0.0
 10
96.2958984375
 20
-54.2841796875
 30
0.0
 10
96.1083984375
 20
-54.45703125
 30
0.0
 10
95.919921875
 20
-54.6298828125
 30
0.0
 10
95.708984375
 20
-54.7607421875
 30
0.0
 10
95.4736328125
 20
-54.8515625
 30
0.0
 10
95.2392578125
 20
-54.94140625
 30
0.0
 10
94.9736328125
 20
-54.986328125
 30
0.0
 10
94.6767578125
 20
-54.986328125
 30
0.0
 10
94.01953125
 20
-54.986328125
 30
0.0
 10
93.505859375
 20
-54.771484375
 30
0.0
 10
93.134765625
 20
-54.33984375
 30
0.0
 10
92.763671875
 20
-53.9091796875
 30
0.0
 10
92.5791015625
 20
-53.421875
 30
0.0
 10
92.5791015625
 20
-52.87890625
 30
0.0
 10
92.5791015625
 20
-52.3681640625
 30
0.0
 10
92.7353515625
 20
-51.912109375
 30
0.0
 10
93.0498046875
 20
-51.5126953125
 30
0.0
 10
93.447265625
 20
-51.00390625
 30
0.0
 10
93.9794921875
 20
-50.7490234375
 30
0.0
 10
94.6474609375
 20
-50.7490234375
 30
0.0
 10
95.333984375
 20
-50.7490234375
 30
0.0
 10
95.8828125
 20
-51.009765625
 30
0.0
 10
96.29296875
 20
-51.53125
 30
0.0
 10
96.5849609375
 20
-51.8984375
 30
0.0
 10
96.7333984375
 20
-52.3583984375
 30
0.0
 10
96.73828125
 20
-52.9091796875
 30
0.0
 10
96.73828125
 20
-52.9091796875
 30
0.0
 10
93.1123046875
 20
-52.9091796875
 30
0.0
 10
93.1123046875
 20
-52.9091796875
 30
0.0
 10
93.1220703125
 20
-53.376953125
 30
0.0
 10
93.271484375
 20
-53.7607421875
 30
0.0
 10
93.560546875
 20
-54.0595703125
 30
0.0
 10
93.849609375
 20
-54.359375
 30
0.0
 10
94.20703125
 20
-54.5087890625
 30
0.0
 10
94.6328125
 20
-54.5087890625
 30
0.0
 10
94.837890625
 20
-54.5087890625
 30
0.0
 10
95.037109375
 20
-54.47265625
 30
0.0
 10
95.2314453125
 20
-54.4013671875
 30
0.0
 10
95.42578125
 20
-54.330078125
 30
0.0
 10
95.58984375
 20
-54.2353515625
 30
0.0
 10
95.7265625
 20
-54.1171875
 30
0.0
 10
95.8623046875
 20
-54.0
 30
0.0
 10
96.009765625
 20
-53.80859375
 30
0.0
 10
96.16796875
 20
-53.5458984375
 30
0.0
  0
SPLINE
  5
94
330
80
100
AcDbEntity
  8
Vrstva 4
370
     0
100
AcDbSpline
210
0.0
220
0.0
230
1.0
 70
    11
 71
     3
 72
    23
 73
    19
 74
     0
 42
0.0000000001
 43
0.0000000001
 12
1.0
 22
0.0
 32
0.0
 13
1.0
 23
0.0
 33
0.0
 40
0.0
 40
0.0
 40
0.0
 40
0.0
 40
1.0
 40
1.0
 40
1.0
 40
2.0
 40
2.0
 40
2.0
 40
3.0
 40
3.0
 40
3.0
 40
4.0
 40
4.0
 40
4.0
 40
5.0
 40
5.0
 40
5.0
 40
6.0
 40
6.0
 40
6.0
 40
6.0
 10
96.16796875
 20
-52.4609375
 30
0.0
 10
96.0986328125
 20
-52.18359375
 30
0.0
 10
95.998046875
 20
-51.962890625
 30
0.0
 10
95.865234375
 20
-51.7978515625
 30
0.0
 10
95.7333984375
 20
-51.6318359375
 30
0.0
 10
95.55859375
 20
-51.4990234375
 30
0.0
 10
95.3408203125
 20
-51.3974609375
 30
0.0
 10
95.123046875
 20
-51.296875
 30
0.0
 10
94.89453125
 20
-51.24609375
 30
0.0
 10
94.654296875
 20
-51.24609375
 30
0.0
 10
94.2587890625
 20
-51.24609375
 30
0.0
 10
93.9189453125
 20
-51.373046875
 30
0.0
 10
93.634765625
 20
-51.626953125
 30
0.0
 10
93.4267578125
 20
-51.8125
 30
0.0
 10
93.2705078125
 20
-52.08984375
 30
0.0
 10
93.1640625
 20
-52.4609375
 30
0.0
 10
93.1640625
 20
-52.4609375
 30
0.0
 10
96.16796875
 20
-52.4609375
 30
0.0
 10
96.16796875
 20
-52.4609375
 30
0.0
  0
HATCH
  5
95
330
80
100
AcDbEntity
  8
Vrstva 4
 62
     7
420
 16777215
100
AcDbHatch
 10
0.0
 20
0.0
 30
0.0
210
0.0
220
0.0
230
1.0
  2
SOLID
 70
     1
 71
     0
 91
        2
 92
        1
 93
        1
 72
     4
 94
        3
 73
     0
 74
     1
 95
       53
 96
       49
 40
0.0
 40
0.0
 40
0.0
 40
0.0
 40
1.0
 40
1.0
 40
1.0
 40
2.0
 40
2.0
 40
2.0
 40
3.0
 40
3.0
 40
3.0
 40
4.0
 40
4.0
 40
4.0
 40
5.0
 40
5.0
 40
5.0
 40
6.0
 40
6.0
 40
6.0
 40
7.0
 40
7.0
 40
7.0
 40
8.0
 40
8.0
 40
8.0
 40
9.0
 40
9.0
 40
9.0
 40
10.0
 40
10.0
 40
10.0
 40
11.0
 40
11.0
 40
11.0
 40
12.0
 40
12.0
 40
12.0
 40
13.0
 40
13.0
 40
13.0
 40
14.0
 40
14.0
 40
14.0
 40
15.0
 40
15.0
 40
15.0
 40
16.0
 40
16.0
 40
16.0
 40
16.0
 10
96.16796875
 20
-53.5458984375
 10
96.16796875
 20
-53.5458984375
 10
96.6044921875
 20
-53.775390625
 10
96.6044921875
 20
-53.775390625
 10
96.4609375
 20
-54.056640625
 10
96.2958984375
 20
-54.2841796875
 10
96.1083984375
 20
-54.45703125
 10
95.919921875
 20
-54.6298828125
 10
95.708984375
 20
-54.7607421875
 10
95.4736328125
 20
-54.8515625
 10
95.2392578125
 20
-54.94140625
 10
94.9736328125
 20
-54.986328125
 10
94.6767578125
 20
-54.986328125
 10
94.01953125
 20
-54.986328125
 10
93.505859375
 20
-54.771484375
 10
93.134765625
 20
-54.33984375
 10
92.763671875
 20
-53.9091796875
 10
92.5791015625
 20
-53.421875
 10
92.5791015625
 20
-52.87890625
 10
92.5791015625
 20
-52.3681640625
 10
92.7353515625
 20
-51.912109375
 10
93.0498046875
 20
-51.5126953125
 10
93.447265625
 20
-51.00390625
 10
93.9794921875
 20
-50.7490234375
 10
94.6474609375
 20
-50.7490234375
 10
95.333984375
 20
-50.7490234375
 10
95.8828125
 20
-51.009765625
 10
96.29296875
 20
-51.53125
 10
96.5849609375
 20
-51.8984375
 10
96.7333984375
 20
-52.3583984375
 10
96.73828125
 20
-52.9091796875
 10
96.73828125
 20
-52.9091796875
 10
93.1123046875
 20
-52.9091796875
 10
93.1123046875
 20
-52.9091796875
 10
93.1220703125
 20
-53.376953125
 10
93.271484375
 20
-53.7607421875
 10
93.560546875
 20
-54.0595703125
 10
93.849609375
 20
-54.359375
 10
94.20703125
 20
-54.5087890625
 10
94.6328125
 20
-54.5087890625
 10
94.837890625
 20
-54.5087890625
 10
95.037109375
 20
-54.47265625
 10
95.2314453125
 20
-54.4013671875
 10
95.42578125
 20
-54.330078125
 10
95.58984375
 20
-54.2353515625
 10
95.7265625
 20
-54.1171875
 10
95.8623046875
 20
-54.0
 10
96.009765625
 20
-53.80859375
 10
96.16796875
 20
-53.5458984375
 97
        0
 97
        0
 92
        1
 93
        1
 72
     4
 94
        3
 73
     0
 74
     1
 95
       23
 96
       19
 40
0.0
 40
0.0
 40
0.0
 40
0.0
 40
1.0
 40
1.0
 40
1.0
 40
2.0
 40
2.0
 40
2.0
 40
3.0
 40
3.0
 40
3.0
 40
4.0
 40
4.0
 40
4.0
 40
5.0
 40
5.0
 40
5.0
 40
6.0
 40
6.0
 40
6.0
 40
6.0
 10
96.16796875
 20
-52.4609375
 10
96.0986328125
 20
-52.18359375
 10
95.998046875
 20
-51.962890625
 10
95.865234375
 20
-51.7978515625
 10
95.7333984375
 20
-51.6318359375
 10
95.55859375
 20
-51.4990234375
 10
95.3408203125
 20
-51.3974609375
 10
95.123046875
 20
-51.296875
 10
94.89453125
 20
-51.24609375
 10
94.654296875
 20
-51.24609375
 10
94.2587890625
 20
-51.24609375
 10
93.9189453125
 20
-51.373046875
 10
93.634765625
 20
-51.626953125
 10
93.4267578125
 20
-51.8125
 10
93.2705078125
 20
-52.08984375
 10
93.1640625
 20
-52.4609375
 10
93.1640625
 20
-52.4609375
 10
96.16796875
 20
-52.4609375
 10
96.16796875
 20
-52.4609375
 97
        0
 97
        0
 75
     2
 76
     1
 98
        0
  0
SPLINE
  5
96
330
80
100
AcDbEntity
  8
Vrstva 4
370
     0
100
AcDbSpline
210
0.0
220
0.0
230
1.0
 70
    11
 71
     3
 72
    44
 73
    40
 74
     0
 42
0.0000000001
 43
0.0000000001
 12
1.0
 22
0.0
 32
0.0
 13
1.0
 23
0.0
 33
0.0
 40
0.0
 40
0.0
 40
0.0
 40
0.0
 40
1.0
 40
1.0
 40
1.0
 40
2.0
 40
2.0
 40
2.0
 40
3.0
 40
3.0
 40
3.0
 40
4.0
 40
4.0
 40
4.0
 40
5.0
 40
5.0
 40
5.0
 40
6.0
 40
6.0
 40
6.0
 40
7.0
 40
7.0
 40
7.0
 40
8.0
 40
8.0
 40
8.0
 40
9.0
 40
9.0
 40
9.0
 40
10.0
 40
10.0
 40
10.0
 40
11.0
 40
11.0
 40
11.0
 40
12.0
 40
12.0
 40
12.0
 40
13.0
 40
13.0
 40
13.0
 40
13.0
 10
97.5087890625
 20
-50.853515625
 30
0.0
 10
97.5087890625
 20
-50.853515625
 30
0.0
 10
98.0380859375
 20
-50.853515625
 30
0.0
 10
98.0380859375
 20
-50.853515625
 30
0.0
 10
98.0380859375
 20
-50.853515625
 30
0.0
 10
98.0380859375
 20
-51.4423828125
 30
0.0
 10
98.0380859375
 20
-51.4423828125
 30
0.0
 10
98.1962890625
 20
-51.2099609375
 30
0.0
 10
98.3623046875
 20
-51.0361328125
 30
0.0
 10
98.5380859375
 20
-50.921875
 30
0.0
 10
98.712890625
 20
-50.806640625
 30
0.0
 10
98.896484375
 20
-50.7490234375
 30
0.0
 10
99.0859375
 20
-50.7490234375
 30
0.0
 10
99.2294921875
 20
-50.7490234375
 30
0.0
 10
99.3828125
 20
-50.794921875
 30
0.0
 10
99.5458984375
 20
-50.88671875
 30
0.0
 10
99.5458984375
 20
-50.88671875
 30
0.0
 10
99.275390625
 20
-51.3232421875
 30
0.0
 10
99.275390625
 20
-51.3232421875
 30
0.0
 10
99.166015625
 20
-51.2763671875
 30
0.0
 10
99.0751953125
 20
-51.2529296875
 30
0.0
 10
99.0009765625
 20
-51.2529296875
 30
0.0
 10
98.828125
 20
-51.2529296875
 30
0.0
 10
98.6611328125
 20
-51.32421875
 30
0.0
 10
98.5009765625
 20
-51.4658203125
 30
0.0
 10
98.3408203125
 20
-51.6083984375
 30
0.0
 10
98.21875
 20
-51.828125
 30
0.0
 10
98.134765625
 20
-52.126953125
 30
0.0
 10
98.0703125
 20
-52.3564453125
 30
0.0
 10
98.0380859375
 20
-52.8212890625
 30
0.0
 10
98.0380859375
 20
-53.51953125
 30
0.0
 10
98.0380859375
 20
-53.51953125
 30
0.0
 10
98.0380859375
 20
-54.8828125
 30
0.0
 10
98.0380859375
 20
-54.8828125
 30
0.0
 10
98.0380859375
 20
-54.8828125
 30
0.0
 10
97.5087890625
 20
-54.8828125
 30
0.0
 10
97.5087890625
 20
-54.8828125
 30
0.0
 10
97.5087890625
 20
-54.8828125
 30
0.0
 10
97.5087890625
 20
-50.853515625
 30
0.0
 10
97.5087890625
 20
-50.853515625
 30
0.0
  0
HATCH
  5
97
330
80
100
AcDbEntity
  8
Vrstva 4
 62
     7
420
 16777215
100
AcDbHatch
 10
0.0
 20
0.0
 30
0.0
210
0.0
220
0.0
230
1.0
  2
SOLID
 70
     1
 71
     0
 91
        1
 92
        1
 93
        1
 72
     4
 94
        3
 73
     0
 74
     1
 95
       44
 96
       40
 40
0.0
 40
0.0
 40
0.0
 40
0.0
 40
1.0
 40
1.0
 40
1.0
 40
2.0
 40
2.0
 40
2.0
 40
3.0
 40
3.0
 40
3.0
 40
4.0
 40
4.0
 40
4.0
 40
5.0
 40
5.0
 40
5.0
 40
6.0
 40
6.0
 40
6.0
 40
7.0
 40
7.0
 40
7.0
 40
8.0
 40
8.0
 40
8.0
 40
9.0
 40
9.0
 40
9.0
 40
10.0
 40
10.0
 40
10.0
 40
11.0
 40
11.0
 40
11.0
 40
12.0
 40
12.0
 40
12.0
 40
13.0
 40
13.0
 40
13.0
 40
13.0
 10
97.5087890625
 20
-50.853515625
 10
97.5087890625
 20
-50.853515625
 10
98.0380859375
 20
-50.853515625
 10
98.0380859375
 20
-50.853515625
 10
98.0380859375
 20
-50.853515625
 10
98.0380859375
 20
-51.4423828125
 10
98.0380859375
 20
-51.4423828125
 10
98.1962890625
 20
-51.2099609375
 10
98.3623046875
 20
-51.0361328125
 10
98.5380859375
 20
-50.921875
 10
98.712890625
 20
-50.806640625
 10
98.896484375
 20
-50.7490234375
 10
99.0859375
 20
-50.7490234375
 10
99.2294921875
 20
-50.7490234375
 10
99.3828125
 20
-50.794921875
 10
99.5458984375
 20
-50.88671875
 10
99.5458984375
 20
-50.88671875
 10
99.275390625
 20
-51.3232421875
 10
99.275390625
 20
-51.3232421875
 10
99.166015625
 20
-51.2763671875
 10
99.0751953125
 20
-51.2529296875
 10
99.0009765625
 20
-51.2529296875
 10
98.828125
 20
-51.2529296875
 10
98.6611328125
 20
-51.32421875
 10
98.5009765625
 20
-51.4658203125
 10
98.3408203125
 20
-51.6083984375
 10
98.21875
 20
-51.828125
 10
98.134765625
 20
-52.126953125
 10
98.0703125
 20
-52.3564453125
 10
98.0380859375
 20
-52.8212890625
 10
98.0380859375
 20
-53.51953125
 10
98.0380859375
 20
-53.51953125
 10
98.0380859375
 20
-54.8828125
 10
98.0380859375
 20
-54.8828125
 10
98.0380859375
 20
-54.8828125
 10
97.5087890625
 20
-54.8828125
 10
97.5087890625
 20
-54.8828125
 10
97.5087890625
 20
-54.8828125
 10
97.5087890625
 20
-50.853515625
 10
97.5087890625
 20
-50.853515625
 97
        0
 97
        0
 75
     2
 76
     1
 98
        0
  0
SPLINE
  5
98
330
80
100
AcDbEntity
  8
Vrstva 4
370
     0
100
AcDbSpline
210
0.0
220
0.0
230
1.0
 70
    11
 71
     3
 72
    44
 73
    40
 74
     0
 42
0.0000000001
 43
0.0000000001
 12
1.0
 22
0.0
 32
0.0
 13
1.0
 23
0.0
 33
0.0
 40
0.0
 40
0.0
 40
0.0
 40
0.0
 40
1.0
 40
1.0
 40
1.0
 40
2.0
 40
2.0
 40
2.0
 40
3.0
 40
3.0
 40
3.0
 40
4.0
 40
4.0
 40
4.0
 40
5.0
 40
5.0
 40
5.0
 40
6.0
 40
6.0
 40
6.0
 40
7.0
 40
7.0
 40
7.0
 40
8.0
 40
8.0
 40
8.0
 40
9.0
 40
9.0
 40
9.0
 40
10.0
 40
10.0
 40
10.0
 40
11.0
 40
11.0
 40
11.0
 40
12.0
 40
12.0
 40
12.0
 40
13.0
 40
13.0
 40
13.0
 40
13.0
 10
106.107421875
 20
-49.2978515625
 30
0.0
 10
106.107421875
 20
-49.2978515625
 30
0.0
 10
106.107421875
 20
-54.8828125
 30
0.0
 10
106.107421875
 20
-54.8828125
 30
0.0
 10
106.107421875
 20
-54.8828125
 30
0.0
 10
105.5966796875
 20
-54.8828125
 30
0.0
 10
105.5966796875
 20
-54.8828125
 30
0.0
 10
105.5966796875
 20
-54.8828125
 30
0.0
 10
105.5966796875
 20
-54.1904296875
 30
0.0
 10
105.5966796875
 20
-54.1904296875
 30
0.0
 10
105.3798828125
 20
-54.4541015625
 30
0.0
 10
105.1357421875
 20
-54.6533203125
 30
0.0
 10
104.865234375
 20
-54.7861328125
 30
0.0
 10
104.5947265625
 20
-54.919921875
 30
0.0
 10
104.298828125
 20
-54.986328125
 30
0.0
 10
103.978515625
 20
-54.986328125
 30
0.0
 10
103.408203125
 20
-54.986328125
 30
0.0
 10
102.9208984375
 20
-54.779296875
 30
0.0
 10
102.5166015625
 20
-54.3662109375
 30
0.0
 10
102.11328125
 20
-53.9521484375
 30
0.0
 10
101.9111328125
 20
-53.44921875
 30
0.0
 10
101.9111328125
 20
-52.8564453125
 30
0.0
 10
101.9111328125
 20
-52.2763671875
 30
0.0
 10
102.115234375
 20
-51.7802734375
 30
0.0
 10
102.5224609375
 20
-51.3681640625
 30
0.0
 10
102.9296875
 20
-50.9560546875
 30
0.0
 10
103.419921875
 20
-50.7490234375
 30
0.0
 10
103.9931640625
 20
-50.7490234375
 30
0.0
 10
104.32421875
 20
-50.7490234375
 30
0.0
 10
104.623046875
 20
-50.8203125
 30
0.0
 10
104.8916015625
 20
-50.9609375
 30
0.0
 10
105.1591796875
 20
-51.1015625
 30
0.0
 10
105.39453125
 20
-51.3125
 30
0.0
 10
105.5966796875
 20
-51.59375
 30
0.0
 10
105.5966796875
 20
-51.59375
 30
0.0
 10
105.5966796875
 20
-49.2978515625
 30
0.0
 10
105.5966796875
 20
-49.2978515625
 30
0.0
 10
105.5966796875
 20
-49.2978515625
 30
0.0
 10
106.107421875
 20
-49.2978515625
 30
0.0
 10
106.107421875
 20
-49.2978515625
 30
0.0
  0
SPLINE
  5
99
330
80
100
AcDbEntity
  8
Vrstva 4
370
     0
100
AcDbSpline
210
0.0
220
0.0
230
1.0
 70
    11
 71
     3
 72
    38
 73
    34
 74
     0
 42
0.0000000001
 43
0.0000000001
 12
1.0
 22
0.0
 32
0.0
 13
1.0
 23
0.0
 33
0.0
 40
0.0
 40
0.0
 40
0.0
 40
0.0
 40
1.0
 40
1.0
 40
1.0
 40
2.0
 40
2.0
 40
2.0
 40
3.0
 40
3.0
 40
3.0
 40
4.0
 40
4.0
 40
4.0
 40
5.0
 40
5.0
 40
5.0
 40
6.0
 40
6.0
 40
6.0
 40
7.0
 40
7.0
 40
7.0
 40
8.0
 40
8.0
 40
8.0
 40
9.0
 40
9.0
 40
9.0
 40
10.0
 40
10.0
 40
10.0
 40
11.0
 40
11.0
 40
11.0
 40
11.0
 10
104.03515625
 20
-51.2490234375
 30
0.0
 10
103.7470703125
 20
-51.2490234375
 30
0.0
 10
103.48046875
 20
-51.3203125
 30
0.0
 10
103.236328125
 20
-51.4619140625
 30
0.0
 10
102.9921875
 20
-51.6044921875
 30
0.0
 10
102.7978515625
 20
-51.8037109375
 30
0.0
 10
102.654296875
 20
-52.0595703125
 30
0.0
 10
102.509765625
 20
-52.31640625
 30
0.0
 10
102.4375
 20
-52.587890625
 30
0.0
 10
102.4375
 20
-52.8740234375
 30
0.0
 10
102.4375
 20
-53.1572265625
 30
0.0
 10
102.509765625
 20
-53.4287109375
 30
0.0
 10
102.6552734375
 20
-53.6875
 30
0.0
 10
102.80078125
 20
-53.9462890625
 30
0.0
 10
102.9970703125
 20
-54.1484375
 30
0.0
 10
103.2421875
 20
-54.2919921875
 30
0.0
 10
103.4873046875
 20
-54.4365234375
 30
0.0
 10
103.7509765625
 20
-54.5087890625
 30
0.0
 10
104.0322265625
 20
-54.5087890625
 30
0.0
 10
104.3154296875
 20
-54.5087890625
 30
0.0
 10
104.583984375
 20
-54.4375
 30
0.0
 10
104.837890625
 20
-54.2939453125
 30
0.0
 10
105.0927734375
 20
-54.1513671875
 30
0.0
 10
105.2880859375
 20
-53.9580078125
 30
0.0
 10
105.4248046875
 20
-53.712890625
 30
0.0
 10
105.5615234375
 20
-53.46875
 30
0.0
 10
105.6298828125
 20
-53.1943359375
 30
0.0
 10
105.6298828125
 20
-52.888671875
 30
0.0
 10
105.6298828125
 20
-52.421875
 30
0.0
 10
105.4765625
 20
-52.0322265625
 30
0.0
 10
105.169921875
 20
-51.7197265625
 30
0.0
 10
104.8623046875
 20
-51.40625
 30
0.0
 10
104.484375
 20
-51.2490234375
 30
0.0
 10
104.03515625
 20
-51.2490234375
 30
0.0
  0
HATCH
  5
9A
330
80
100
AcDbEntity
  8
Vrstva 4
 62
     7
420
 16777215
100
AcDbHatch
 10
0.0
 20
0.0
 30
0.0
210
0.0
220
0.0
230
1.0
  2
SOLID
 70
     1
 71
     0
 91
        2
 92
        1
 93
        1
 72
     4
 94
        3
 73
     0
 74
     1
 95
       44
 96
       40
 40
0.0
 40
0.0
 40
0.0
 40
0.0
 40
1.0
 40
1.0
 40
1.0
 40
2.0
 40
2.0
 40
2.0
 40
3.0
 40
3.0
 40
3.0
 40
4.0
 40
4.0
 40
4.0
 40
5.0
 40
5.0
 40
5.0
 40
6.0
 40
6.0
 40
6.0
 40
7.0
 40
7.0
 40
7.0
 40
8.0
 40
8.0
 40
8.0
 40
9.0
 40
9.0
 40
9.0
 40
10.0
 40
10.0
 40
10.0
 40
11.0
 40
11.0
 40
11.0
 40
12.0
 40
12.0
 40
12.0
 40
13.0
 40
13.0
 40
13.0
 40
13.0
 10
106.107421875
 20
-49.2978515625
 10
106.107421875
 20
-49.2978515625
 10
106.107421875
 20
-54.8828125
 10
106.107421875
 20
-54.8828125
 10
106.107421875
 20
-54.8828125
 10
105.5966796875
 20
-54.8828125
 10
105.5966796875
 20
-54.8828125
 10
105.5966796875
 20
-54.8828125
 10
105.5966796875
 20
-54.1904296875
 10
105.5966796875
 20
-54.1904296875
 10
105.3798828125
 20
-54.4541015625
 10
105.1357421875
 20
-54.6533203125
 10
104.865234375
 20
-54.7861328125
 10
104.5947265625
 20
-54.919921875
 10
104.298828125
 20
-54.986328125
 10
103.978515625
 20
-54.986328125
 10
103.408203125
 20
-54.986328125
 10
102.9208984375
 20
-54.779296875
 10
102.5166015625
 20
-54.3662109375
 10
102.11328125
 20
-53.9521484375
 10
101.9111328125
 20
-53.44921875
 10
101.9111328125
 20
-52.8564453125
 10
101.9111328125
 20
-52.2763671875
 10
102.115234375
 20
-51.7802734375
 10
102.5224609375
 20
-51.3681640625
 10
102.9296875
 20
-50.9560546875
 10
103.419921875
 20
-50.7490234375
 10
103.9931640625
 20
-50.7490234375
 10
104.32421875
 20
-50.7490234375
 10
104.623046875
 20
-50.8203125
 10
104.8916015625
 20
-50.9609375
 10
105.1591796875
 20
-51.1015625
 10
105.39453125
 20
-51.3125
 10
105.5966796875
 20
-51.59375
 10
105.5966796875
 20
-51.59375
 10
105.5966796875
 20
-49.2978515625
 10
105.5966796875
 20
-49.2978515625
 10
105.5966796875
 20
-49.2978515625
 10
106.107421875
 20
-49.2978515625
 10
106.107421875
 20
-49.2978515625
 97
        0
 97
        0
 92
        1
 93
        1
 72
     4
 94
        3
 73
     0
 74
     1
 95
       38
 96
       34
 40
0.0
 40
0.0
 40
0.0
 40
0.0
 40
1.0
 40
1.0
 40
1.0
 40
2.0
 40
2.0
 40
2.0
 40
3.0
 40
3.0
 40
3.0
 40
4.0
 40
4.0
 40
4.0
 40
5.0
 40
5.0
 40
5.0
 40
6.0
 40
6.0
 40
6.0
 40
7.0
 40
7.0
 40
7.0
 40
8.0
 40
8.0
 40
8.0
 40
9.0
 40
9.0
 40
9.0
 40
10.0
 40
10.0
 40
10.0
 40
11.0
 40
11.0
 40
11.0
 40
11.0
 10
104.03515625
 20
-51.2490234375
 10
103.7470703125
 20
-51.2490234375
 10
103.48046875
 20
-51.3203125
 10
103.236328125
 20
-51.4619140625
 10
102.9921875
 20
-51.6044921875
 10
102.7978515625
 20
-51.8037109375
 10
102.654296875
 20
-52.0595703125
 10
102.509765625
 20
-52.31640625
 10
102.4375
 20
-52.587890625
 10
102.4375
 20
-52.8740234375
 10
102.4375
 20
-53.1572265625
 10
102.509765625
 20
-53.4287109375
 10
102.6552734375
 20
-53.6875
 10
102.80078125
 20
-53.9462890625
 10
102.9970703125
 20
-54.1484375
 10
103.2421875
 20
-54.2919921875
 10
103.4873046875
 20
-54.4365234375
 10
103.7509765625
 20
-54.5087890625
 10
104.0322265625
 20
-54.5087890625
 10
104.3154296875
 20
-54.5087890625
 10
104.583984375
 20
-54.4375
 10
104.837890625
 20
-54.2939453125
 10
105.0927734375
 20
-54.1513671875
 10
105.2880859375
 20
-53.9580078125
 10
105.4248046875
 20
-53.712890625
 10
105.5615234375
 20
-53.46875
 10
105.6298828125
 20
-53.1943359375
 10
105.6298828125
 20
-52.888671875
 10
105.6298828125
 20
-52.421875
 10
105.4765625
 20
-52.0322265625
 10
105.169921875
 20
-51.7197265625
 10
104.8623046875
 20
-51.40625
 10
104.484375
 20
-51.2490234375
 10
104.03515625
 20
-51.2490234375
 97
        0
 97
        0
 75
     2
 76
     1
 98
        0
  0
SPLINE
  5
9B
330
80
100
AcDbEntity
  8
Vrstva 4
370
     0
100
AcDbSpline
210
0.0
220
0.0
230
1.0
 70
    11
 71
     3
 72
    53
 73
    49
 74
     0
 42
0.0000000001
 43
0.0000000001
 12
1.0
 22
0.0
 32
0.0
 13
1.0
 23
0.0
 33
0.0
 40
0.0
 40
0.0
 40
0.0
 40
0.0
 40
1.0
 40
1.0
 40
1.0
 40
2.0
 40
2.0
 40
2.0
 40
3.0
 40
3.0
 40
3.0
 40
4.0
 40
4.0
 40
4.0
 40
5.0
 40
5.0
 40
5.0
 40
6.0
 40
6.0
 40
6.0
 40
7.0
 40
7.0
 40
7.0
 40
8.0
 40
8.0
 40
8.0
 40
9.0
 40
9.0
 40
9.0
 40
10.0
 40
10.0
 40
10.0
 40
11.0
 40
11.0
 40
11.0
 40
12.0
 40
12.0
 40
12.0
 40
13.0
 40
13.0
 40
13.0
 40
14.0
 40
14.0
 40
14.0
 40
15.0
 40
15.0
 40
15.0
 40
16.0
 40
16.0
 40
16.0
 40
16.0
 10
110.6748046875
 20
-53.5458984375
 30
0.0
 10
110.6748046875
 20
-53.5458984375
 30
0.0
 10
111.111328125
 20
-53.775390625
 30
0.0
 10
111.111328125
 20
-53.775390625
 30
0.0
 10
110.9677734375
 20
-54.056640625
 30
0.0
 10
110.802734375
 20
-54.2841796875
 30
0.0
 10
110.615234375
 20
-54.45703125
 30
0.0
 10
110.4267578125
 20
-54.6298828125
 30
0.0
 10
110.2158203125
 20
-54.7607421875
 30
0.0
 10
109.98046875
 20
-54.8515625
 30
0.0
 10
109.74609375
 20
-54.94140625
 30
0.0
 10
109.48046875
 20
-54.986328125
 30
0.0
 10
109.18359375
 20
-54.986328125
 30
0.0
 10
108.5263671875
 20
-54.986328125
 30
0.0
 10
108.0126953125
 20
-54.771484375
 30
0.0
 10
107.6416015625
 20
-54.33984375
 30
0.0
 10
107.2705078125
 20
-53.9091796875
 30
0.0
 10
107.0859375
 20
-53.421875
 30
0.0
 10
107.0859375
 20
-52.87890625
 30
0.0
 10
107.0859375
 20
-52.3681640625
 30
0.0
 10
107.2421875
 20
-51.912109375
 30
0.0
 10
107.556640625
 20
-51.5126953125
 30
0.0
 10
107.9541015625
 20
-51.00390625
 30
0.0
 10
108.486328125
 20
-50.7490234375
 30
0.0
 10
109.154296875
 20
-50.7490234375
 30
0.0
 10
109.8408203125
 20
-50.7490234375
 30
0.0
 10
110.3896484375
 20
-51.009765625
 30
0.0
 10
110.7998046875
 20
-51.53125
 30
0.0
 10
111.091796875
 20
-51.8984375
 30
0.0
 10
111.240234375
 20
-52.3583984375
 30
0.0
 10
111.2451171875
 20
-52.9091796875
 30
0.0
 10
111.2451171875
 20
-52.9091796875
 30
0.0
 10
107.619140625
 20
-52.9091796875
 30
0.0
 10
107.619140625
 20
-52.9091796875
 30
0.0
 10
107.62890625
 20
-53.376953125
 30
0.0
 10
107.7783203125
 20
-53.7607421875
 30
0.0
 10
108.0673828125
 20
-54.0595703125
 30
0.0
 10
108.3564453125
 20
-54.359375
 30
0.0
 10
108.7138671875
 20
-54.5087890625
 30
0.0
 10
109.1396484375
 20
-54.5087890625
 30
0.0
 10
109.3447265625
 20
-54.5087890625
 30
0.0
 10
109.5439453125
 20
-54.47265625
 30
0.0
 10
109.73828125
 20
-54.4013671875
 30
0.0
 10
109.9326171875
 20
-54.330078125
 30
0.0
 10
110.0966796875
 20
-54.2353515625
 30
0.0
 10
110.2333984375
 20
-54.1171875
 30
0.0
 10
110.369140625
 20
-54.0
 30
0.0
 10
110.5166015625
 20
-53.80859375
 30
0.0
 10
110.6748046875
 20
-53.5458984375
 30
0.0
  0
SPLINE
  5
9C
330
80
100
AcDbEntity
  8
Vrstva 4
370
     0
100
AcDbSpline
210
0.0
220
0.0
230
1.0
 70
    11
 71
     3
 72
    23
 73
    19
 74
     0
 42
0.0000000001
 43
0.0000000001
 12
1.0
 22
0.0
 32
0.0
 13
1.0
 23
0.0
 33
0.0
 40
0.0
 40
0.0
 40
0.0
 40
0.0
 40
1.0
 40
1.0
 40
1.0
 40
2.0
 40
2.0
 40
2.0
 40
3.0
 40
3.0
 40
3.0
 40
4.0
 40
4.0
 40
4.0
 40
5.0
 40
5.0
 40
5.0
 40
6.0
 40
6.0
 40
6.0
 40
6.0
 10
110.6748046875
 20
-52.4609375
 30
0.0
 10
110.60546875
 20
-52.18359375
 30
0.0
 10
110.5048828125
 20
-51.962890625
 30
0.0
 10
110.3720703125
 20
-51.7978515625
 30
0.0
 10
110.240234375
 20
-51.6318359375
 30
0.0
 10
110.0654296875
 20
-51.4990234375
 30
0.0
 10
109.84765625
 20
-51.3974609375
 30
0.0
 10
109.6298828125
 20
-51.296875
 30
0.0
 10
109.4013671875
 20
-51.24609375
 30
0.0
 10
109.1611328125
 20
-51.24609375
 30
0.0
 10
108.765625
 20
-51.24609375
 30
0.0
 10
108.42578125
 20
-51.373046875
 30
0.0
 10
108.1416015625
 20
-51.626953125
 30
0.0
 10
107.93359375
 20
-51.8125
 30
0.0
 10
107.77734375
 20
-52.08984375
 30
0.0
 10
107.6708984375
 20
-52.4609375
 30
0.0
 10
107.6708984375
 20
-52.4609375
 30
0.0
 10
110.6748046875
 20
-52.4609375
 30
0.0
 10
110.6748046875
 20
-52.4609375
 30
0.0
  0
HATCH
  5
9D
330
80
100
AcDbEntity
  8
Vrstva 4
 62
     7
420
 16777215
100
AcDbHatch
 10
0.0
 20
0.0
 30
0.0
210
0.0
220
0.0
230
1.0
  2
SOLID
 70
     1
 71
     0
 91
        2
 92
        1
 93
        1
 72
     4
 94
        3
 73
     0
 74
     1
 95
       53
 96
       49
 40
0.0
 40
0.0
 40
0.0
 40
0.0
 40
1.0
 40
1.0
 40
1.0
 40
2.0
 40
2.0
 40
2.0
 40
3.0
 40
3.0
 40
3.0
 40
4.0
 40
4.0
 40
4.0
 40
5.0
 40
5.0
 40
5.0
 40
6.0
 40
6.0
 40
6.0
 40
7.0
 40
7.0
 40
7.0
 40
8.0
 40
8.0
 40
8.0
 40
9.0
 40
9.0
 40
9.0
 40
10.0
 40
10.0
 40
10.0
 40
11.0
 40
11.0
 40
11.0
 40
12.0
 40
12.0
 40
12.0
 40
13.0
 40
13.0
 40
13.0
 40
14.0
 40
14.0
 40
14.0
 40
15.0
 40
15.0
 40
15.0
 40
16.0
 40
16.0
 40
16.0
 40
16.0
 10
110.6748046875
 20
-53.5458984375
 10
110.6748046875
 20
-53.5458984375
 10
111.111328125
 20
-53.775390625
 10
111.111328125
 20
-53.775390625
 10
110.9677734375
 20
-54.056640625
 10
110.802734375
 20
-54.2841796875
 10
110.615234375
 20
-54.45703125
 10
110.4267578125
 20
-54.6298828125
 10
110.2158203125
 20
-54.7607421875
 10
109.98046875
 20
-54.8515625
 10
109.74609375
 20
-54.94140625
 10
109.48046875
 20
-54.986328125
 10
109.18359375
 20
-54.986328125
 10
108.5263671875
 20
-54.986328125
 10
108.0126953125
 20
-54.771484375
 10
107.6416015625
 20
-54.33984375
 10
107.2705078125
 20
-53.9091796875
 10
107.0859375
 20
-53.421875
 10
107.0859375
 20
-52.87890625
 10
107.0859375
 20
-52.3681640625
 10
107.2421875
 20
-51.912109375
 10
107.556640625
 20
-51.5126953125
 10
107.9541015625
 20
-51.00390625
 10
108.486328125
 20
-50.7490234375
 10
109.154296875
 20
-50.7490234375
 10
109.8408203125
 20
-50.7490234375
 10
110.3896484375
 20
-51.009765625
 10
110.7998046875
 20
-51.53125
 10
111.091796875
 20
-51.8984375
 10
111.240234375
 20
-52.3583984375
 10
111.2451171875
 20
-52.9091796875
 10
111.2451171875
 20
-52.9091796875
 10
107.619140625
 20
-52.9091796875
 10
107.619140625
 20
-52.9091796875
 10
107.62890625
 20
-53.376953125
 10
107.7783203125
 20
-53.7607421875
 10
108.0673828125
 20
-54.0595703125
 10
108.3564453125
 20
-54.359375
 10
108.7138671875
 20
-54.5087890625
 10
109.1396484375
 20
-54.5087890625
 10
109.3447265625
 20
-54.5087890625
 10
109.5439453125
 20
-54.47265625
 10
109.73828125
 20
-54.4013671875
 10
109.9326171875
 20
-54.330078125
 10
110.0966796875
 20
-54.2353515625
 10
110.2333984375
 20
-54.1171875
 10
110.369140625
 20
-54.0
 10
110.5166015625
 20
-53.80859375
 10
110.6748046875
 20
-53.5458984375
 97
        0
 97
        0
 92
        1
 93
        1
 72
     4
 94
        3
 73
     0
 74
     1
 95
       23
 96
       19
 40
0.0
 40
0.0
 40
0.0
 40
0.0
 40
1.0
 40
1.0
 40
1.0
 40
2.0
 40
2.0
 40
2.0
 40
3.0
 40
3.0
 40
3.0
 40
4.0
 40
4.0
 40
4.0
 40
5.0
 40
5.0
 40
5.0
 40
6.0
 40
6.0
 40
6.0
 40
6.0
 10
110.6748046875
 20
-52.4609375
 10
110.60546875
 20
-52.18359375
 10
110.5048828125
 20
-51.962890625
 10
110.3720703125
 20
-51.7978515625
 10
110.240234375
 20
-51.6318359375
 10
110.0654296875
 20
-51.4990234375
 10
109.84765625
 20
-51.3974609375
 10
109.6298828125
 20
-51.296875
 10
109.4013671875
 20
-51.24609375
 10
109.1611328125
 20
-51.24609375
 10
108.765625
 20
-51.24609375
 10
108.42578125
 20
-51.373046875
 10
108.1416015625
 20
-51.626953125
 10
107.93359375
 20
-51.8125
 10
107.77734375
 20
-52.08984375
 10
107.6708984375
 20
-52.4609375
 10
107.6708984375
 20
-52.4609375
 10
110.6748046875
 20
-52.4609375
 10
110.6748046875
 20
-52.4609375
 97
        0
 97
        0
 75
     2
 76
     1
 98
        0
  0
SPLINE
  5
9E
330
80
100
AcDbEntity
  8
Vrstva 4
370
     0
100
AcDbSpline
210
0.0
220
0.0
230
1.0
 70
    11
 71
     3
 72
    74
 73
    70
 74
     0
 42
0.0000000001
 43
0.0000000001
 12
1.0
 22
0.0
 32
0.0
 13
1.0
 23
0.0
 33
0.0
 40
0.0
 40
0.0
 40
0.0
 40
0.0
 40
1.0
 40
1.0
 40
1.0
 40
2.0
 40
2.0
 40
2.0
 40
3.0
 40
3.0
 40
3.0
 40
4.0
 40
4.0
 40
4.0
 40
5.0
 40
5.0
 40
5.0
 40
6.0
 40
6.0
 40
6.0
 40
7.0
 40
7.0
 40
7.0
 40
8.0
 40
8.0
 40
8.0
 40
9.0
 40
9.0
 40
9.0
 40
10.0
 40
10.0
 40
10.0
 40
11.0
 40
11.0
 40
11.0
 40
12.0
 40
12.0
 40
12.0
 40
13.0
 40
13.0
 40
13.0
 40
14.0
 40
14.0
 40
14.0
 40
15.0
 40
15.0
 40
15.0
 40
16.0
 40
16.0
 40
16.0
 40
17.0
 40
17.0
 40
17.0
 40
18.0
 40
18.0
 40
18.0
 40
19.0
 40
19.0
 40
19.0
 40
20.0
 40
20.0
 40
20.0
 40
21.0
 40
21.0
 40
21.0
 40
22.0
 40
22.0
 40
22.0
 40
23.0
 40
23.0
 40
23.0
 40
23.0
 10
114.2373046875
 20
-51.2939453125
 30
0.0
 10
114.2373046875
 20
-51.2939453125
 30
0.0
 10
113.904296875
 20
-51.638671875
 30
0.0
 10
113.904296875
 20
-51.638671875
 30
0.0
 10
113.626953125
 20
-51.369140625
 30
0.0
 10
113.35546875
 20
-51.234375
 30
0.0
 10
113.0908203125
 20
-51.234375
 30
0.0
 10
112.9228515625
 20
-51.234375
 30
0.0
 10
112.7783203125
 20
-51.2900390625
 30
0.0
 10
112.658203125
 20
-51.4013671875
 30
0.0
 10
112.5380859375
 20
-51.5126953125
 30
0.0
 10
112.478515625
 20
-51.6416015625
 30
0.0
 10
112.478515625
 20
-51.7900390625
 30
0.0
 10
112.478515625
 20
-51.9208984375
 30
0.0
 10
112.52734375
 20
-52.0458984375
 30
0.0
 10
112.626953125
 20
-52.1640625
 30
0.0
 10
112.7255859375
 20
-52.28515625
 30
0.0
 10
112.93359375
 20
-52.427734375
 30
0.0
 10
113.25
 20
-52.58984375
 30
0.0
 10
113.6357421875
 20
-52.7900390625
 30
0.0
 10
113.8984375
 20
-52.982421875
 30
0.0
 10
114.037109375
 20
-53.16796875
 30
0.0
 10
114.1728515625
 20
-53.35546875
 30
0.0
 10
114.2412109375
 20
-53.56640625
 30
0.0
 10
114.2412109375
 20
-53.8017578125
 30
0.0
 10
114.2412109375
 20
-54.1318359375
 30
0.0
 10
114.125
 20
-54.412109375
 30
0.0
 10
113.892578125
 20
-54.6416015625
 30
0.0
 10
113.66015625
 20
-54.8720703125
 30
0.0
 10
113.369140625
 20
-54.986328125
 30
0.0
 10
113.0205078125
 20
-54.986328125
 30
0.0
 10
112.7880859375
 20
-54.986328125
 30
0.0
 10
112.56640625
 20
-54.935546875
 30
0.0
 10
112.3544921875
 20
-54.8349609375
 30
0.0
 10
112.1435546875
 20
-54.7333984375
 30
0.0
 10
111.96875
 20
-54.59375
 30
0.0
 10
111.830078125
 20
-54.416015625
 30
0.0
 10
111.830078125
 20
-54.416015625
 30
0.0
 10
112.15625
 20
-54.0458984375
 30
0.0
 10
112.15625
 20
-54.0458984375
 30
0.0
 10
112.4208984375
 20
-54.3447265625
 30
0.0
 10
112.7021484375
 20
-54.494140625
 30
0.0
 10
112.9990234375
 20
-54.494140625
 30
0.0
 10
113.20703125
 20
-54.494140625
 30
0.0
 10
113.3837890625
 20
-54.427734375
 30
0.0
 10
113.529296875
 20
-54.2939453125
 30
0.0
 10
113.67578125
 20
-54.16015625
 30
0.0
 10
113.7490234375
 20
-54.00390625
 30
0.0
 10
113.7490234375
 20
-53.8232421875
 30
0.0
 10
113.7490234375
 20
-53.67578125
 30
0.0
 10
113.7001953125
 20
-53.54296875
 30
0.0
 10
113.603515625
 20
-53.427734375
 30
0.0
 10
113.5078125
 20
-53.3134765625
 30
0.0
 10
113.2900390625
 20
-53.1708984375
 30
0.0
 10
112.9501953125
 20
-52.998046875
 30
0.0
 10
112.5869140625
 20
-52.8095703125
 30
0.0
 10
112.33984375
 20
-52.625
 30
0.0
 10
112.2080078125
 20
-52.4423828125
 30
0.0
 10
112.0771484375
 20
-52.259765625
 30
0.0
 10
112.01171875
 20
-52.05078125
 30
0.0
 10
112.01171875
 20
-51.81640625
 30
0.0
 10
112.01171875
 20
-51.509765625
 30
0.0
 10
112.1162109375
 20
-51.255859375
 30
0.0
 10
112.3251953125
 20
-51.052734375
 30
0.0
 10
112.5341796875
 20
-50.8505859375
 30
0.0
 10
112.7978515625
 20
-50.7490234375
 30
0.0
 10
113.1171875
 20
-50.7490234375
 30
0.0
 10
113.48828125
 20
-50.7490234375
 30
0.0
 10
113.861328125
 20
-50.9306640625
 30
0.0
 10
114.2373046875
 20
-51.2939453125
 30
0.0
  0
HATCH
  5
9F
330
80
100
AcDbEntity
  8
Vrstva 4
 62
     7
420
 16777215
100
AcDbHatch
 10
0.0
 20
0.0
 30
0.0
210
0.0
220
0.0
230
1.0
  2
SOLID
 70
     1
 71
     0
 91
        1
 92
        1
 93
        1
 72
     4
 94
        3
 73
     0
 74
     1
 95
       74
 96
       70
 40
0.0
 40
0.0
 40
0.0
 40
0.0
 40
1.0
 40
1.0
 40
1.0
 40
2.0
 40
2.0
 40
2.0
 40
3.0
 40
3.0
 40
3.0
 40
4.0
 40
4.0
 40
4.0
 40
5.0
 40
5.0
 40
5.0
 40
6.0
 40
6.0
 40
6.0
 40
7.0
 40
7.0
 40
7.0
 40
8.0
 40
8.0
 40
8.0
 40
9.0
 40
9.0
 40
9.0
 40
10.0
 40
10.0
 40
10.0
 40
11.0
 40
11.0
 40
11.0
 40
12.0
 40
12.0
 40
12.0
 40
13.0
 40
13.0
 40
13.0
 40
14.0
 40
14.0
 40
14.0
 40
15.0
 40
15.0
 40
15.0
 40
16.0
 40
16.0
 40
16.0
 40
17.0
 40
17.0
 40
17.0
 40
18.0
 40
18.0
 40
18.0
 40
19.0
 40
19.0
 40
19.0
 40
20.0
 40
20.0
 40
20.0
 40
21.0
 40
21.0
 40
21.0
 40
22.0
 40
22.0
 40
22.0
 40
23.0
 40
23.0
 40
23.0
 40
23.0
 10
114.2373046875
 20
-51.2939453125
 10
114.2373046875
 20
-51.2939453125
 10
113.904296875
 20
-51.638671875
 10
113.904296875
 20
-51.638671875
 10
113.626953125
 20
-51.369140625
 10
113.35546875
 20
-51.234375
 10
113.0908203125
 20
-51.234375
 10
112.9228515625
 20
-51.234375
 10
112.7783203125
 20
-51.2900390625
 10
112.658203125
 20
-51.4013671875
 10
112.5380859375
 20
-51.5126953125
 10
112.478515625
 20
-51.6416015625
 10
112.478515625
 20
-51.7900390625
 10
112.478515625
 20
-51.9208984375
 10
112.52734375
 20
-52.0458984375
 10
112.626953125
 20
-52.1640625
 10
112.7255859375
 20
-52.28515625
 10
112.93359375
 20
-52.427734375
 10
113.25
 20
-52.58984375
 10
113.6357421875
 20
-52.7900390625
 10
113.8984375
 20
-52.982421875
 10
114.037109375
 20
-53.16796875
 10
114.1728515625
 20
-53.35546875
 10
114.2412109375
 20
-53.56640625
 10
114.2412109375
 20
-53.8017578125
 10
114.2412109375
 20
-54.1318359375
 10
114.125
 20
-54.412109375
 10
113.892578125
 20
-54.6416015625
 10
113.66015625
 20
-54.8720703125
 10
113.369140625
 20
-54.986328125
 10
113.0205078125
 20
-54.986328125
 10
112.7880859375
 20
-54.986328125
 10
112.56640625
 20
-54.935546875
 10
112.3544921875
 20
-54.8349609375
 10
112.1435546875
 20
-54.7333984375
 10
111.96875
 20
-54.59375
 10
111.830078125
 20
-54.416015625
 10
111.830078125
 20
-54.416015625
 10
112.15625
 20
-54.0458984375
 10
112.15625
 20
-54.0458984375
 10
112.4208984375
 20
-54.3447265625
 10
112.7021484375
 20
-54.494140625
 10
112.9990234375
 20
-54.494140625
 10
113.20703125
 20
-54.494140625
 10
113.3837890625
 20
-54.427734375
 10
113.529296875
 20
-54.2939453125
 10
113.67578125
 20
-54.16015625
 10
113.7490234375
 20
-54.00390625
 10
113.7490234375
 20
-53.8232421875
 10
113.7490234375
 20
-53.67578125
 10
113.7001953125
 20
-53.54296875
 10
113.603515625
 20
-53.427734375
 10
113.5078125
 20
-53.3134765625
 10
113.2900390625
 20
-53.1708984375
 10
112.9501953125
 20
-52.998046875
 10
112.5869140625
 20
-52.8095703125
 10
112.33984375
 20
-52.625
 10
112.2080078125
 20
-52.4423828125
 10
112.0771484375
 20
-52.259765625
 10
112.01171875
 20
-52.05078125
 10
112.01171875
 20
-51.81640625
 10
112.01171875
 20
-51.509765625
 10
112.1162109375
 20
-51.255859375
 10
112.3251953125
 20
-51.052734375
 10
112.5341796875
 20
-50.8505859375
 10
112.7978515625
 20
-50.7490234375
 10
113.1171875
 20
-50.7490234375
 10
113.48828125
 20
-50.7490234375
 10
113.861328125
 20
-50.9306640625
 10
114.2373046875
 20
-51.2939453125
 97
        0
 97
        0
 75
     2
 76
     1
 98
        0
  0
SPLINE
  5
A0
330
80
100
AcDbEntity
  8
Vrstva 4
370
     0
100
AcDbSpline
210
0.0
220
0.0
230
1.0
 70
    11
 71
     3
 72
    29
 73
    25
 74
     0
 42
0.0000000001
 43
0.0000000001
 12
1.0
 22
0.0
 32
0.0
 13
1.0
 23
0.0
 33
0.0
 40
0.0
 40
0.0
 40
0.0
 40
0.0
 40
1.0
 40
1.0
 40
1.0
 40
2.0
 40
2.0
 40
2.0
 40
3.0
 40
3.0
 40
3.0
 40
4.0
 40
4.0
 40
4.0
 40
5.0
 40
5.0
 40
5.0
 40
6.0
 40
6.0
 40
6.0
 40
7.0
 40
7.0
 40
7.0
 40
8.0
 40
8.0
 40
8.0
 40
8.0
 10
115.3359375
 20
-49.1943359375
 30
0.0
 10
115.453125
 20
-49.1943359375
 30
0.0
 10
115.5546875
 20
-49.236328125
 30
0.0
 10
115.6376953125
 20
-49.3203125
 30
0.0
 10
115.7216796875
 20
-49.404296875
 30
0.0
 10
115.763671875
 20
-49.5048828125
 30
0.0
 10
115.763671875
 20
-49.6240234375
 30
0.0
 10
115.763671875
 20
-49.7392578125
 30
0.0
 10
115.7216796875
 20
-49.83984375
 30
0.0
 10
115.6376953125
 20
-49.923828125
 30
0.0
 10
115.5546875
 20
-50.0078125
 30
0.0
 10
115.453125
 20
-50.0498046875
 30
0.0
 10
115.3359375
 20
-50.0498046875
 30
0.0
 10
115.2197265625
 20
-50.0498046875
 30
0.0
 10
115.1201171875
 20
-50.0078125
 30
0.0
 10
115.037109375
 20
-49.923828125
 30
0.0
 10
114.953125
 20
-49.83984375
 30
0.0
 10
114.9111328125
 20
-49.7392578125
 30
0.0
 10
114.9111328125
 20
-49.6240234375
 30
0.0
 10
114.9111328125
 20
-49.5048828125
 30
0.0
 10
114.953125
 20
-49.404296875
 30
0.0
 10
115.037109375
 20
-49.3203125
 30
0.0
 10
115.1201171875
 20
-49.236328125
 30
0.0
 10
115.2197265625
 20
-49.1943359375
 30
0.0
 10
115.3359375
 20
-49.1943359375
 30
0.0
  0
POLYLINE
  5
A1
330
80
100
AcDbEntity
  8
Vrstva 4
370
     0
100
AcDb2dPolyline
 66
     1
 10
0.0
 20
0.0
 30
0.0
  0
VERTEX
  5
A2
330
A1
100
AcDbEntity
  8
Vrstva 4
370
     0
100
AcDbVertex
100
AcDb2dVertex
 10
115.078125
 20
-50.853515625
 30
0.0
  0
VERTEX
  5
A3
330
A1
100
AcDbEntity
  8
Vrstva 4
370
     0
100
AcDbVertex
100
AcDb2dVertex
 10
115.5966796875
 20
-50.853515625
 30
0.0
  0
VERTEX
  5
A4
330
A1
100
AcDbEntity
  8
Vrstva 4
370
     0
100
AcDbVertex
100
AcDb2dVertex
 10
115.5966796875
 20
-54.8828125
 30
0.0
  0
VERTEX
  5
A5
330
A1
100
AcDbEntity
  8
Vrstva 4
370
     0
100
AcDbVertex
100
AcDb2dVertex
 10
115.078125
 20
-54.8828125
 30
0.0
  0
VERTEX
  5
A6
330
A1
100
AcDbEntity
  8
Vrstva 4
370
     0
100
AcDbVertex
100
AcDb2dVertex
 10
115.078125
 20
-50.853515625
 30
0.0
  0
SEQEND
  5
A7
330
A1
100
AcDbEntity
  8
Vrstva 4
370
     0
  0
HATCH
  5
A8
330
80
100
AcDbEntity
  8
Vrstva 4
 62
     7
420
 16777215
100
AcDbHatch
 10
0.0
 20
0.0
 30
0.0
210
0.0
220
0.0
230
1.0
  2
SOLID
 70
     1
 71
     0
 91
        2
 92
        1
 93
        1
 72
     4
 94
        3
 73
     0
 74
     1
 95
       29
 96
       25
 40
0.0
 40
0.0
 40
0.0
 40
0.0
 40
1.0
 40
1.0
 40
1.0
 40
2.0
 40
2.0
 40
2.0
 40
3.0
 40
3.0
 40
3.0
 40
4.0
 40
4.0
 40
4.0
 40
5.0
 40
5.0
 40
5.0
 40
6.0
 40
6.0
 40
6.0
 40
7.0
 40
7.0
 40
7.0
 40
8.0
 40
8.0
 40
8.0
 40
8.0
 10
115.3359375
 20
-49.1943359375
 10
115.453125
 20
-49.1943359375
 10
115.5546875
 20
-49.236328125
 10
115.6376953125
 20
-49.3203125
 10
115.7216796875
 20
-49.404296875
 10
115.763671875
 20
-49.5048828125
 10
115.763671875
 20
-49.6240234375
 10
115.763671875
 20
-49.7392578125
 10
115.7216796875
 20
-49.83984375
 10
115.6376953125
 20
-49.923828125
 10
115.5546875
 20
-50.0078125
 10
115.453125
 20
-50.0498046875
 10
115.3359375
 20
-50.0498046875
 10
115.2197265625
 20
-50.0498046875
 10
115.1201171875
 20
-50.0078125
 10
115.037109375
 20
-49.923828125
 10
114.953125
 20
-49.83984375
 10
114.9111328125
 20
-49.7392578125
 10
114.9111328125
 20
-49.6240234375
 10
114.9111328125
 20
-49.5048828125
 10
114.953125
 20
-49.404296875
 10
115.037109375
 20
-49.3203125
 10
115.1201171875
 20
-49.236328125
 10
115.2197265625
 20
-49.1943359375
 10
115.3359375
 20
-49.1943359375
 97
        0
 97
        0
 92
        1
 93
        4
 72
     1
 10
115.078125
 20
-50.853515625
 11
115.5966796875
 21
-50.853515625
 72
     1
 10
115.5966796875
 20
-50.853515625
 11
115.5966796875
 21
-54.8828125
 72
     1
 10
115.5966796875
 20
-54.8828125
 11
115.078125
 21
-54.8828125
 72
     1
 10
115.078125
 20
-54.8828125
 11
115.078125
 21
-50.853515625
 97
        0
 75
     2
 76
     1
 98
        0
  0
SPLINE
  5
A9
330
80
100
AcDbEntity
  8
Vrstva 4
370
     0
100
AcDbSpline
210
0.0
220
0.0
230
1.0
 70
    11
 71
     3
 72
    83
 73
    79
 74
     0
 42
0.0000000001
 43
0.0000000001
 12
1.0
 22
0.0
 32
0.0
 13
1.0
 23
0.0
 33
0.0
 40
0.0
 40
0.0
 40
0.0
 40
0.0
 40
1.0
 40
1.0
 40
1.0
 40
2.0
 40
2.0
 40
2.0
 40
3.0
 40
3.0
 40
3.0
 40
4.0
 40
4.0
 40
4.0
 40
5.0
 40
5.0
 40
5.0
 40
6.0
 40
6.0
 40
6.0
 40
7.0
 40
7.0
 40
7.0
 40
8.0
 40
8.0
 40
8.0
 40
9.0
 40
9.0
 40
9.0
 40
10.0
 40
10.0
 40
10.0
 40
11.0
 40
11.0
 40
11.0
 40
12.0
 40
12.0
 40
12.0
 40
13.0
 40
13.0
 40
13.0
 40
14.0
 40
14.0
 40
14.0
 40
15.0
 40
15.0
 40
15.0
 40
16.0
 40
16.0
 40
16.0
 40
17.0
 40
17.0
 40
17.0
 40
18.0
 40
18.0
 40
18.0
 40
19.0
 40
19.0
 40
19.0
 40
20.0
 40
20.0
 40
20.0
 40
21.0
 40
21.0
 40
21.0
 40
22.0
 40
22.0
 40
22.0
 40
23.0
 40
23.0
 40
23.0
 40
24.0
 40
24.0
 40
24.0
 40
25.0
 40
25.0
 40
25.0
 40
26.0
 40
26.0
 40
26.0
 40
26.0
 10
120.1484375
 20
-50.853515625
 30
0.0
 10
120.1484375
 20
-50.853515625
 30
0.0
 10
120.6669921875
 20
-50.853515625
 30
0.0
 10
120.6669921875
 20
-50.853515625
 30
0.0
 10
120.6669921875
 20
-50.853515625
 30
0.0
 10
120.6669921875
 20
-54.064453125
 30
0.0
 10
120.6669921875
 20
-54.064453125
 30
0.0
 10
120.6669921875
 20
-54.6298828125
 30
0.0
 10
120.6171875
 20
-55.04296875
 30
0.0
 10
120.5185546875
 20
-55.3046875
 30
0.0
 10
120.3828125
 20
-55.67578125
 30
0.0
 10
120.1474609375
 20
-55.9609375
 30
0.0
 10
119.8115234375
 20
-56.16015625
 30
0.0
 10
119.4755859375
 20
-56.3603515625
 30
0.0
 10
119.072265625
 20
-56.4609375
 30
0.0
 10
118.6005859375
 20
-56.4609375
 30
0.0
 10
118.2548828125
 20
-56.4609375
 30
0.0
 10
117.9443359375
 20
-56.412109375
 30
0.0
 10
117.6689453125
 20
-56.3134765625
 30
0.0
 10
117.3935546875
 20
-56.2158203125
 30
0.0
 10
117.169921875
 20
-56.0849609375
 30
0.0
 10
116.9970703125
 20
-55.919921875
 30
0.0
 10
116.82421875
 20
-55.755859375
 30
0.0
 10
116.6650390625
 20
-55.5146484375
 30
0.0
 10
116.5185546875
 20
-55.197265625
 30
0.0
 10
116.5185546875
 20
-55.197265625
 30
0.0
 10
117.08203125
 20
-55.197265625
 30
0.0
 10
117.08203125
 20
-55.197265625
 30
0.0
 10
117.2353515625
 20
-55.4638671875
 30
0.0
 10
117.4326171875
 20
-55.662109375
 30
0.0
 10
117.6748046875
 20
-55.7900390625
 30
0.0
 10
117.9169921875
 20
-55.9189453125
 30
0.0
 10
118.2177734375
 20
-55.982421875
 30
0.0
 10
118.576171875
 20
-55.982421875
 30
0.0
 10
118.9296875
 20
-55.982421875
 30
0.0
 10
119.228515625
 20
-55.9169921875
 30
0.0
 10
119.4716796875
 20
-55.78515625
 30
0.0
 10
119.71484375
 20
-55.6533203125
 30
0.0
 10
119.888671875
 20
-55.48828125
 30
0.0
 10
119.9931640625
 20
-55.2890625
 30
0.0
 10
120.0966796875
 20
-55.08984375
 30
0.0
 10
120.1484375
 20
-54.767578125
 30
0.0
 10
120.1484375
 20
-54.3232421875
 30
0.0
 10
120.1484375
 20
-54.3232421875
 30
0.0
 10
120.1484375
 20
-54.1162109375
 30
0.0
 10
120.1484375
 20
-54.1162109375
 30
0.0
 10
119.953125
 20
-54.36328125
 30
0.0
 10
119.71484375
 20
-54.552734375
 30
0.0
 10
119.4326171875
 20
-54.6845703125
 30
0.0
 10
119.1513671875
 20
-54.81640625
 30
0.0
 10
118.8525390625
 20
-54.8828125
 30
0.0
 10
118.5361328125
 20
-54.8828125
 30
0.0
 10
118.1650390625
 20
-54.8828125
 30
0.0
 10
117.81640625
 20
-54.791015625
 30
0.0
 10
117.490234375
 20
-54.6064453125
 30
0.0
 10
117.1640625
 20
-54.4228515625
 30
0.0
 10
116.912109375
 20
-54.17578125
 30
0.0
 10
116.734375
 20
-53.8642578125
 30
0.0
 10
116.5556640625
 20
-53.552734375
 30
0.0
 10
116.466796875
 20
-53.2109375
 30
0.0
 10
116.466796875
 20
-52.837890625
 30
0.0
 10
116.466796875
 20
-52.4658203125
 30
0.0
 10
116.5595703125
 20
-52.1181640625
 30
0.0
 10
116.7451171875
 20
-51.7958984375
 30
0.0
 10
116.9306640625
 20
-51.4736328125
 30
0.0
 10
117.1865234375
 20
-51.21875
 30
0.0
 10
117.5146484375
 20
-51.03125
 30
0.0
 10
117.841796875
 20
-50.84375
 30
0.0
 10
118.1875
 20
-50.7490234375
 30
0.0
 10
118.55078125
 20
-50.7490234375
 30
0.0
 10
118.8525390625
 20
-50.7490234375
 30
0.0
 10
119.1337890625
 20
-50.8115234375
 30
0.0
 10
119.39453125
 20
-50.9365234375
 30
0.0
 10
119.6552734375
 20
-51.0615234375
 30
0.0
 10
119.90625
 20
-51.2666015625
 30
0.0
 10
120.1484375
 20
-51.552734375
 30
0.0
 10
120.1484375
 20
-51.552734375
 30
0.0
 10
120.1484375
 20
-50.853515625
 30
0.0
 10
120.1484375
 20
-50.853515625
 30
0.0
  0
SPLINE
  5
AA
330
80
100
AcDbEntity
  8
Vrstva 4
370
     0
100
AcDbSpline
210
0.0
220
0.0
230
1.0
 70
    11
 71
     3
 72
    35
 73
    31
 74
     0
 42
0.0000000001
 43
0.0000000001
 12
1.0
 22
0.0
 32
0.0
 13
1.0
 23
0.0
 33
0.0
 40
0.0
 40
0.0
 40
0.0
 40
0.0
 40
1.0
 40
1.0
 40
1.0
 40
2.0
 40
2.0
 40
2.0
 40
3.0
 40
3.0
 40
3.0
 40
4.0
 40
4.0
 40
4.0
 40
5.0
 40
5.0
 40
5.0
 40
6.0
 40
6.0
 40
6.0
 40
7.0
 40
7.0
 40
7.0
 40
8.0
 40
8.0
 40
8.0
 40
9.0
 40
9.0
 40
9.0
 40
10.0
 40
10.0
 40
10.0
 40
10.0
 10
118.619140625
 20
-51.2490234375
 30
0.0
 10
118.3251953125
 20
-51.2490234375
 30
0.0
 10
118.0517578125
 20
-51.3203125
 30
0.0
 10
117.80078125
 20
-51.462890625
 30
0.0
 10
117.548828125
 20
-51.6044921875
 30
0.0
 10
117.3505859375
 20
-51.80078125
 30
0.0
 10
117.2080078125
 20
-52.0517578125
 30
0.0
 10
117.064453125
 20
-52.3017578125
 30
0.0
 10
116.9931640625
 20
-52.5732421875
 30
0.0
 10
116.9931640625
 20
-52.8642578125
 30
0.0
 10
116.9931640625
 20
-53.306640625
 30
0.0
 10
117.1416015625
 20
-53.671875
 30
0.0
 10
117.4375
 20
-53.9609375
 30
0.0
 10
117.7333984375
 20
-54.2490234375
 30
0.0
 10
118.1171875
 20
-54.3935546875
 30
0.0
 10
118.5888671875
 20
-54.3935546875
 30
0.0
 10
119.0654296875
 20
-54.3935546875
 30
0.0
 10
119.44921875
 20
-54.2509765625
 30
0.0
 10
119.7392578125
 20
-53.9638671875
 30
0.0
 10
120.029296875
 20
-53.677734375
 30
0.0
 10
120.1748046875
 20
-53.3017578125
 30
0.0
 10
120.1748046875
 20
-52.8349609375
 30
0.0
 10
120.1748046875
 20
-52.53125
 30
0.0
 10
120.107421875
 20
-52.259765625
 30
0.0
 10
119.974609375
 20
-52.021484375
 30
0.0
 10
119.8408203125
 20
-51.783203125
 30
0.0
 10
119.65234375
 20
-51.5947265625
 30
0.0
 10
119.408203125
 20
-51.45703125
 30
0.0
 10
119.1630859375
 20
-51.318359375
 30
0.0
 10
118.900390625
 20
-51.2490234375
 30
0.0
 10
118.619140625
 20
-51.2490234375
 30
0.0
  0
HATCH
  5
AB
330
80
100
AcDbEntity
  8
Vrstva 4
 62
     7
420
 16777215
100
AcDbHatch
 10
0.0
 20
0.0
 30
0.0
210
0.0
220
0.0
230
1.0
  2
SOLID
 70
     1
 71
     0
 91
        2
 92
        1
 93
        1
 72
     4
 94
        3
 73
     0
 74
     1
 95
       83
 96
       79
 40
0.0
 40
0.0
 40
0.0
 40
0.0
 40
1.0
 40
1.0
 40
1.0
 40
2.0
 40
2.0
 40
2.0
 40
3.0
 40
3.0
 40
3.0
 40
4.0
 40
4.0
 40
4.0
 40
5.0
 40
5.0
 40
5.0
 40
6.0
 40
6.0
 40
6.0
 40
7.0
 40
7.0
 40
7.0
 40
8.0
 40
8.0
 40
8.0
 40
9.0
 40
9.0
 40
9.0
 40
10.0
 40
10.0
 40
10.0
 40
11.0
 40
11.0
 40
11.0
 40
12.0
 40
12.0
 40
12.0
 40
13.0
 40
13.0
 40
13.0
 40
14.0
 40
14.0
 40
14.0
 40
15.0
 40
15.0
 40
15.0
 40
16.0
 40
16.0
 40
16.0
 40
17.0
 40
17.0
 40
17.0
 40
18.0
 40
18.0
 40
18.0
 40
19.0
 40
19.0
 40
19.0
 40
20.0
 40
20.0
 40
20.0
 40
21.0
 40
21.0
 40
21.0
 40
22.0
 40
22.0
 40
22.0
 40
23.0
 40
23.0
 40
23.0
 40
24.0
 40
24.0
 40
24.0
 40
25.0
 40
25.0
 40
25.0
 40
26.0
 40
26.0
 40
26.0
 40
26.0
 10
120.1484375
 20
-50.853515625
 10
120.1484375
 20
-50.853515625
 10
120.6669921875
 20
-50.853515625
 10
120.6669921875
 20
-50.853515625
 10
120.6669921875
 20
-50.853515625
 10
120.6669921875
 20
-54.064453125
 10
120.6669921875
 20
-54.064453125
 10
120.6669921875
 20
-54.6298828125
 10
120.6171875
 20
-55.04296875
 10
120.5185546875
 20
-55.3046875
 10
120.3828125
 20
-55.67578125
 10
120.1474609375
 20
-55.9609375
 10
119.8115234375
 20
-56.16015625
 10
119.4755859375
 20
-56.3603515625
 10
119.072265625
 20
-56.4609375
 10
118.6005859375
 20
-56.4609375
 10
118.2548828125
 20
-56.4609375
 10
117.9443359375
 20
-56.412109375
 10
117.6689453125
 20
-56.3134765625
 10
117.3935546875
 20
-56.2158203125
 10
117.169921875
 20
-56.0849609375
 10
116.9970703125
 20
-55.919921875
 10
116.82421875
 20
-55.755859375
 10
116.6650390625
 20
-55.5146484375
 10
116.5185546875
 20
-55.197265625
 10
116.5185546875
 20
-55.197265625
 10
117.08203125
 20
-55.197265625
 10
117.08203125
 20
-55.197265625
 10
117.2353515625
 20
-55.4638671875
 10
117.4326171875
 20
-55.662109375
 10
117.6748046875
 20
-55.7900390625
 10
117.9169921875
 20
-55.9189453125
 10
118.2177734375
 20
-55.982421875
 10
118.576171875
 20
-55.982421875
 10
118.9296875
 20
-55.982421875
 10
119.228515625
 20
-55.9169921875
 10
119.4716796875
 20
-55.78515625
 10
119.71484375
 20
-55.6533203125
 10
119.888671875
 20
-55.48828125
 10
119.9931640625
 20
-55.2890625
 10
120.0966796875
 20
-55.08984375
 10
120.1484375
 20
-54.767578125
 10
120.1484375
 20
-54.3232421875
 10
120.1484375
 20
-54.3232421875
 10
120.1484375
 20
-54.1162109375
 10
120.1484375
 20
-54.1162109375
 10
119.953125
 20
-54.36328125
 10
119.71484375
 20
-54.552734375
 10
119.4326171875
 20
-54.6845703125
 10
119.1513671875
 20
-54.81640625
 10
118.8525390625
 20
-54.8828125
 10
118.5361328125
 20
-54.8828125
 10
118.1650390625
 20
-54.8828125
 10
117.81640625
 20
-54.791015625
 10
117.490234375
 20
-54.6064453125
 10
117.1640625
 20
-54.4228515625
 10
116.912109375
 20
-54.17578125
 10
116.734375
 20
-53.8642578125
 10
116.5556640625
 20
-53.552734375
 10
116.466796875
 20
-53.2109375
 10
116.466796875
 20
-52.837890625
 10
116.466796875
 20
-52.4658203125
 10
116.5595703125
 20
-52.1181640625
 10
116.7451171875
 20
-51.7958984375
 10
116.9306640625
 20
-51.4736328125
 10
117.1865234375
 20
-51.21875
 10
117.5146484375
 20
-51.03125
 10
117.841796875
 20
-50.84375
 10
118.1875
 20
-50.7490234375
 10
118.55078125
 20
-50.7490234375
 10
118.8525390625
 20
-50.7490234375
 10
119.1337890625
 20
-50.8115234375
 10
119.39453125
 20
-50.9365234375
 10
119.6552734375
 20
-51.0615234375
 10
119.90625
 20
-51.2666015625
 10
120.1484375
 20
-51.552734375
 10
120.1484375
 20
-51.552734375
 10
120.1484375
 20
-50.853515625
 10
120.1484375
 20
-50.853515625
 97
        0
 97
        0
 92
        1
 93
        1
 72
     4
 94
        3
 73
     0
 74
     1
 95
       35
 96
       31
 40
0.0
 40
0.0
 40
0.0
 40
0.0
 40
1.0
 40
1.0
 40
1.0
 40
2.0
 40
2.0
 40
2.0
 40
3.0
 40
3.0
 40
3.0
 40
4.0
 40
4.0
 40
4.0
 40
5.0
 40
5.0
 40
5.0
 40
6.0
 40
6.0
 40
6.0
 40
7.0
 40
7.0
 40
7.0
 40
8.0
 40
8.0
 40
8.0
 40
9.0
 40
9.0
 40
9.0
 40
10.0
 40
10.0
 40
10.0
 40
10.0
 10
118.619140625
 20
-51.2490234375
 10
118.3251953125
 20
-51.2490234375
 10
118.0517578125
 20
-51.3203125
 10
117.80078125
 20
-51.462890625
 10
117.548828125
 20
-51.6044921875
 10
117.3505859375
 20
-51.80078125
 10
117.2080078125
 20
-52.0517578125
 10
117.064453125
 20
-52.3017578125
 10
116.9931640625
 20
-52.5732421875
 10
116.9931640625
 20
-52.8642578125
 10
116.9931640625
 20
-53.306640625
 10
117.1416015625
 20
-53.671875
 10
117.4375
 20
-53.9609375
 10
117.7333984375
 20
-54.2490234375
 10
118.1171875
 20
-54.3935546875
 10
118.5888671875
 20
-54.3935546875
 10
119.0654296875
 20
-54.3935546875
 10
119.44921875
 20
-54.2509765625
 10
119.7392578125
 20
-53.9638671875
 10
120.029296875
 20
-53.677734375
 10
120.1748046875
 20
-53.3017578125
 10
120.1748046875
 20
-52.8349609375
 10
120.1748046875
 20
-52.53125
 10
120.107421875
 20
-52.259765625
 10
119.974609375
 20
-52.021484375
 10
119.8408203125
 20
-51.783203125
 10
119.65234375
 20
-51.5947265625
 10
119.408203125
 20
-51.45703125
 10
119.1630859375
 20
-51.318359375
 10
118.900390625
 20
-51.2490234375
 10
118.619140625
 20
-51.2490234375
 97
        0
 97
        0
 75
     2
 76
     1
 98
        0
  0
SPLINE
  5
AC
330
80
100
AcDbEntity
  8
Vrstva 4
370
     0
100
AcDbSpline
210
0.0
220
0.0
230
1.0
 70
    11
 71
     3
 72
    62
 73
    58
 74
     0
 42
0.0000000001
 43
0.0000000001
 12
1.0
 22
0.0
 32
0.0
 13
1.0
 23
0.0
 33
0.0
 40
0.0
 40
0.0
 40
0.0
 40
0.0
 40
1.0
 40
1.0
 40
1.0
 40
2.0
 40
2.0
 40
2.0
 40
3.0
 40
3.0
 40
3.0
 40
4.0
 40
4.0
 40
4.0
 40
5.0
 40
5.0
 40
5.0
 40
6.0
 40
6.0
 40
6.0
 40
7.0
 40
7.0
 40
7.0
 40
8.0
 40
8.0
 40
8.0
 40
9.0
 40
9.0
 40
9.0
 40
10.0
 40
10.0
 40
10.0
 40
11.0
 40
11.0
 40
11.0
 40
12.0
 40
12.0
 40
12.0
 40
13.0
 40
13.0
 40
13.0
 40
14.0
 40
14.0
 40
14.0
 40
15.0
 40
15.0
 40
15.0
 40
16.0
 40
16.0
 40
16.0
 40
17.0
 40
17.0
 40
17.0
 40
18.0
 40
18.0
 40
18.0
 40
19.0
 40
19.0
 40
19.0
 40
19.0
 10
121.779296875
 20
-50.853515625
 30
0.0
 10
121.779296875
 20
-50.853515625
 30
0.0
 10
122.2978515625
 20
-50.853515625
 30
0.0
 10
122.2978515625
 20
-50.853515625
 30
0.0
 10
122.2978515625
 20
-50.853515625
 30
0.0
 10
122.2978515625
 20
-51.5751953125
 30
0.0
 10
122.2978515625
 20
-51.5751953125
 30
0.0
 10
122.5048828125
 20
-51.298828125
 30
0.0
 10
122.734375
 20
-51.091796875
 30
0.0
 10
122.986328125
 20
-50.955078125
 30
0.0
 10
123.23828125
 20
-50.818359375
 30
0.0
 10
123.5126953125
 20
-50.7490234375
 30
0.0
 10
123.80859375
 20
-50.7490234375
 30
0.0
 10
124.109375
 20
-50.7490234375
 30
0.0
 10
124.376953125
 20
-50.826171875
 30
0.0
 10
124.6103515625
 20
-50.9794921875
 30
0.0
 10
124.84375
 20
-51.1318359375
 30
0.0
 10
125.015625
 20
-51.337890625
 30
0.0
 10
125.126953125
 20
-51.59765625
 30
0.0
 10
125.23828125
 20
-51.8564453125
 30
0.0
 10
125.2939453125
 20
-52.2607421875
 30
0.0
 10
125.2939453125
 20
-52.80859375
 30
0.0
 10
125.2939453125
 20
-52.80859375
 30
0.0
 10
125.2939453125
 20
-54.8828125
 30
0.0
 10
125.2939453125
 20
-54.8828125
 30
0.0
 10
125.2939453125
 20
-54.8828125
 30
0.0
 10
124.775390625
 20
-54.8828125
 30
0.0
 10
124.775390625
 20
-54.8828125
 30
0.0
 10
124.775390625
 20
-54.8828125
 30
0.0
 10
124.775390625
 20
-52.9609375
 30
0.0
 10
124.775390625
 20
-52.9609375
 30
0.0
 10
124.775390625
 20
-52.49609375
 30
0.0
 10
124.755859375
 20
-52.1865234375
 30
0.0
 10
124.7177734375
 20
-52.03125
 30
0.0
 10
124.6572265625
 20
-51.7646484375
 30
0.0
 10
124.5419921875
 20
-51.5634765625
 30
0.0
 10
124.3720703125
 20
-51.4287109375
 30
0.0
 10
124.201171875
 20
-51.294921875
 30
0.0
 10
123.9794921875
 20
-51.2275390625
 30
0.0
 10
123.705078125
 20
-51.2275390625
 30
0.0
 10
123.3916015625
 20
-51.2275390625
 30
0.0
 10
123.1103515625
 20
-51.3310546875
 30
0.0
 10
122.8623046875
 20
-51.5380859375
 30
0.0
 10
122.6142578125
 20
-51.74609375
 30
0.0
 10
122.4501953125
 20
-52.0029296875
 30
0.0
 10
122.37109375
 20
-52.30859375
 30
0.0
 10
122.322265625
 20
-52.5087890625
 30
0.0
 10
122.2978515625
 20
-52.8740234375
 30
0.0
 10
122.2978515625
 20
-53.4052734375
 30
0.0
 10
122.2978515625
 20
-53.4052734375
 30
0.0
 10
122.2978515625
 20
-54.8828125
 30
0.0
 10
122.2978515625
 20
-54.8828125
 30
0.0
 10
122.2978515625
 20
-54.8828125
 30
0.0
 10
121.779296875
 20
-54.8828125
 30
0.0
 10
121.779296875
 20
-54.8828125
 30
0.0
 10
121.779296875
 20
-54.8828125
 30
0.0
 10
121.779296875
 20
-50.853515625
 30
0.0
 10
121.779296875
 20
-50.853515625
 30
0.0
  0
HATCH
  5
AD
330
80
100
AcDbEntity
  8
Vrstva 4
 62
     7
420
 16777215
100
AcDbHatch
 10
0.0
 20
0.0
 30
0.0
210
0.0
220
0.0
230
1.0
  2
SOLID
 70
     1
 71
     0
 91
        1
 92
        1
 93
        1
 72
     4
 94
        3
 73
     0
 74
     1
 95
       62
 96
       58
 40
0.0
 40
0.0
 40
0.0
 40
0.0
 40
1.0
 40
1.0
 40
1.0
 40
2.0
 40
2.0
 40
2.0
 40
3.0
 40
3.0
 40
3.0
 40
4.0
 40
4.0
 40
4.0
 40
5.0
 40
5.0
 40
5.0
 40
6.0
 40
6.0
 40
6.0
 40
7.0
 40
7.0
 40
7.0
 40
8.0
 40
8.0
 40
8.0
 40
9.0
 40
9.0
 40
9.0
 40
10.0
 40
10.0
 40
10.0
 40
11.0
 40
11.0
 40
11.0
 40
12.0
 40
12.0
 40
12.0
 40
13.0
 40
13.0
 40
13.0
 40
14.0
 40
14.0
 40
14.0
 40
15.0
 40
15.0
 40
15.0
 40
16.0
 40
16.0
 40
16.0
 40
17.0
 40
17.0
 40
17.0
 40
18.0
 40
18.0
 40
18.0
 40
19.0
 40
19.0
 40
19.0
 40
19.0
 10
121.779296875
 20
-50.853515625
 10
121.779296875
 20
-50.853515625
 10
122.2978515625
 20
-50.853515625
 10
122.2978515625
 20
-50.853515625
 10
122.2978515625
 20
-50.853515625
 10
122.2978515625
 20
-51.5751953125
 10
122.2978515625
 20
-51.5751953125
 10
122.5048828125
 20
-51.298828125
 10
122.734375
 20
-51.091796875
 10
122.986328125
 20
-50.955078125
 10
123.23828125
 20
-50.818359375
 10
123.5126953125
 20
-50.7490234375
 10
123.80859375
 20
-50.7490234375
 10
124.109375
 20
-50.7490234375
 10
124.376953125
 20
-50.826171875
 10
124.6103515625
 20
-50.9794921875
 10
124.84375
 20
-51.1318359375
 10
125.015625
 20
-51.337890625
 10
125.126953125
 20
-51.59765625
 10
125.23828125
 20
-51.8564453125
 10
125.2939453125
 20
-52.2607421875
 10
125.2939453125
 20
-52.80859375
 10
125.2939453125
 20
-52.80859375
 10
125.2939453125
 20
-54.8828125
 10
125.2939453125
 20
-54.8828125
 10
125.2939453125
 20
-54.8828125
 10
124.775390625
 20
-54.8828125
 10
124.775390625
 20
-54.8828125
 10
124.775390625
 20
-54.8828125
 10
124.775390625
 20
-52.9609375
 10
124.775390625
 20
-52.9609375
 10
124.775390625
 20
-52.49609375
 10
124.755859375
 20
-52.1865234375
 10
124.7177734375
 20
-52.03125
 10
124.6572265625
 20
-51.7646484375
 10
124.5419921875
 20
-51.5634765625
 10
124.3720703125
 20
-51.4287109375
 10
124.201171875
 20
-51.294921875
 10
123.9794921875
 20
-51.2275390625
 10
123.705078125
 20
-51.2275390625
 10
123.3916015625
 20
-51.2275390625
 10
123.1103515625
 20
-51.3310546875
 10
122.8623046875
 20
-51.5380859375
 10
122.6142578125
 20
-51.74609375
 10
122.4501953125
 20
-52.0029296875
 10
122.37109375
 20
-52.30859375
 10
122.322265625
 20
-52.5087890625
 10
122.2978515625
 20
-52.8740234375
 10
122.2978515625
 20
-53.4052734375
 10
122.2978515625
 20
-53.4052734375
 10
122.2978515625
 20
-54.8828125
 10
122.2978515625
 20
-54.8828125
 10
122.2978515625
 20
-54.8828125
 10
121.779296875
 20
-54.8828125
 10
121.779296875
 20
-54.8828125
 10
121.779296875
 20
-54.8828125
 10
121.779296875
 20
-50.853515625
 10
121.779296875
 20
-50.853515625
 97
        0
 97
        0
 75
     2
 76
     1
 98
        0
  0
ENDBLK
  5
83
330
80
100
AcDbEntity
  8
0
100
AcDbBlockEnd
  0
ENDSEC
  0
SECTION
  2
ENTITIES
  0
MTEXT
  5
41
330
1F
100
AcDbEntity
  8
Vrstva 1
 62
     7
420
 16777215
100
AcDbMText
 10
8.58251953125
 20
-45.0595703125
 30
0.0
 40
28.95586418151855
 41
0.0
 46
0.0
 71
     7
 72
     1
  1
\fCentury Gothic|b0|i0|c0|p34;\W1;C.
 73
     1
 44
1.0
  0
MTEXT
  5
42
330
1F
100
AcDbEntity
  8
Vrstva 1
 62
     7
420
 16777215
100
AcDbMText
 10
73.46875
 20
-45.0595703125
 30
0.0
 40
28.95586418151855
 41
0.0
 46
0.0
 71
     7
 72
     1
  1
\fCentury Gothic|b0|i0|c0|p34;\W1;.A.
 73
     1
 44
1.0
  0
INSERT
  5
44
330
1F
100
AcDbEntity
  8
Vrstva 1
100
AcDbBlockReference
  2
block 2
 10
0.0
 20
0.0
 30
0.0
  0
SPLINE
  5
49
330
1F
100
AcDbEntity
  8
Vrstva 1
370
     0
100
AcDbSpline
210
0.0
220
0.0
230
1.0
 70
     8
 71
     3
 72
    29
 73
    25
 74
     0
 42
0.0000000001
 43
0.0000000001
 12
1.0
 22
0.0
 32
0.0
 13
1.0
 23
0.0
 33
0.0
 40
0.0
 40
0.0
 40
0.0
 40
0.0
 40
1.0
 40
1.0
 40
1.0
 40
2.0
 40
2.0
 40
2.0
 40
3.0
 40
3.0
 40
3.0
 40
4.0
 40
4.0
 40
4.0
 40
5.0
 40
5.0
 40
5.0
 40
6.0
 40
6.0
 40
6.0
 40
7.0
 40
7.0
 40
7.0
 40
8.0
 40
8.0
 40
8.0
 40
8.0
 10
63.59142088931912
 20
-33.98468892244273
 30
0.0
 10
62.82608866745068
 20
-33.98468892244273
 30
0.0
 10
62.12634033471022
 20
-33.70916718714761
 30
0.0
 10
61.58405205974668
 20
-33.24559559476256
 30
0.0
 10
61.58405205974668
 20
-33.24559559476256
 30
0.0
 10
26.78110846210257
 20
-33.24559559476256
 30
0.0
 10
26.78110846210257
 20
-33.24559559476256
 30
0.0
 10
26.69366327659918
 20
-33.25872838818759
 30
0.0
 10
26.60181380061385
 20
-33.26310598599775
 30
0.0
 10
26.50996432462762
 20
-33.26310598599775
 30
0.0
 10
25.2067214256067
 20
-33.26310598599775
 30
0.0
 10
24.1483837698861
 20
-32.20911923541098
 30
0.0
 10
24.1483837698861
 20
-30.90149873857899
 30
0.0
 10
24.1483837698861
 20
-29.59825583956172
 30
0.0
 10
25.2067214256067
 20
-28.54426908897676
 30
0.0
 10
26.50996432462762
 20
-28.54426908897676
 30
0.0
 10
26.50996432462762
 20
-28.54426908897676
 30
0.0
 10
26.50996432462762
 20
-28.52240779260046
 30
0.0
 10
26.50996432462762
 20
-28.52240779260046
 30
0.0
 10
26.50996432462762
 20
-28.52240779260046
 30
0.0
 10
61.58405205974668
 20
-28.52240779260046
 30
0.0
 10
61.58405205974668
 20
-28.52240779260046
 30
0.0
 10
62.12634033471022
 20
-28.05883620019813
 30
0.0
 10
62.82608866745068
 20
-27.78331446491848
 30
0.0
 10
63.59142088931912
 20
-27.78331446491848
 30
0.0
  0
SPLINE
  5
4A
330
1F
100
AcDbEntity
  8
Vrstva 1
370
     0
100
AcDbSpline
210
0.0
220
0.0
230
1.0
 70
     8
 71
     3
 72
    11
 73
     7
 74
     0
 42
0.0000000001
 43
0.0000000001
 12
1.0
 22
0.0
 32
0.0
 13
1.0
 23
0.0
 33
0.0
 40
0.0
 40
0.0
 40
0.0
 40
0.0
 40
1.0
 40
1.0
 40
1.0
 40
2.0
 40
2.0
 40
2.0
 40
2.0
 10
63.59142088931912
 20
-27.78312160754012
 30
0.0
 10
65.30583627115266
 20
-27.78312160754012
 30
0.0
 10
66.69223707591846
 20
-29.17390021102801
 30
0.0
 10
66.69223707591846
 20
-30.88396448803542
 30
0.0
 10
66.69223707591846
 20
-32.5940020711414
 30
0.0
 10
65.30583627115266
 20
-33.98478067462565
 30
0.0
 10
63.59142088931912
 20
-33.98478067462565
 30
0.0
  0
POLYLINE
  5
4B
330
1F
100
AcDbEntity
  8
Vrstva 1
 62
     7
420
 16777215
370
    18
100
AcDb2dPolyline
 66
     1
 10
0.0
 20
0.0
 30
0.0
  0
VERTEX
  5
4C
330
4B
100
AcDbEntity
  8
Vrstva 1
 62
     7
420
 16777215
370
    18
100
AcDbVertex
100
AcDb2dVertex
 10
2.20818559520103
 20
-12.80000000000018
 30
0.0
  0
VERTEX
  5
4D
330
4B
100
AcDbEntity
  8
Vrstva 1
 62
     7
420
 16777215
370
    18
100
AcDbVertex
100
AcDb2dVertex
 10
124.9746561834363
 20
-12.80000000000018
 30
0.0
  0
SEQEND
  5
4E
330
4B
100
AcDbEntity
  8
Vrstva 1
 62
     7
420
 16777215
370
    18
  0
POLYLINE
  5
4F
330
1F
100
AcDbEntity
  8
Vrstva 1
 62
     7
420
 16777215
370
    18
100
AcDb2dPolyline
 66
     1
 10
0.0
 20
0.0
 30
0.0
  0
VERTEX
  5
50
330
4F
100
AcDbEntity
  8
Vrstva 1
 62
     7
420
 16777215
370
    18
100
AcDbVertex
100
AcDb2dVertex
 10
2.208185595200121
 20
-47.82778092603985
 30
0.0
  0
VERTEX
  5
51
330
4F
100
AcDbEntity
  8
Vrstva 1
 62
     7
420
 16777215
370
    18
100
AcDbVertex
100
AcDb2dVertex
 10
124.9746561834363
 20
-47.82778092603985
 30
0.0
  0
SEQEND
  5
52
330
4F
100
AcDbEntity
  8
Vrstva 1
 62
     7
420
 16777215
370
    18
  0
MTEXT
  5
54
330
1F
100
AcDbEntity
  8
Vrstva 2
 62
     7
420
 16777215
100
AcDbMText
 10
80.3134765625
 20
-54.59680986404419
 30
0.0
 40
5.370319793701172
 41
0.0
 46
0.0
 71
     7
 72
     1
  1
\fCentury Gothic|b0|i0|c0|p34;\W1;Laser design
 73
     1
 44
1.0
  0
INSERT
  5
58
330
1F
100
AcDbEntity
  8
Vrstva 4
100
AcDbBlockReference
  2
block 3
 10
0.0
 20
0.0
 30
0.0
  0
INSERT
  5
60
330
1F
100
AcDbEntity
  8
Vrstva 4
100
AcDbBlockReference
  2
block 4
 10
0.0
 20
0.0
 30
0.0
  0
INSERT
  5
7A
330
1F
100
AcDbEntity
  8
Vrstva 4
100
AcDbBlockReference
  2
block 5
 10
0.0
 20
0.0
 30
0.0
  0
SPLINE
  5
7F
330
1F
100
AcDbEntity
  8
Vrstva 4
370
     0
100
AcDbSpline
210
0.0
220
0.0
230
1.0
 70
    11
 71
     3
 72
    35
 73
    31
 74
     0
 42
0.0000000001
 43
0.0000000001
 12
1.0
 22
0.0
 32
0.0
 13
1.0
 23
0.0
 33
0.0
 40
0.0
 40
0.0
 40
0.0
 40
0.0
 40
1.0
 40
1.0
 40
1.0
 40
2.0
 40
2.0
 40
2.0
 40
3.0
 40
3.0
 40
3.0
 40
4.0
 40
4.0
 40
4.0
 40
5.0
 40
5.0
 40
5.0
 40
6.0
 40
6.0
 40
6.0
 40
7.0
 40
7.0
 40
7.0
 40
8.0
 40
8.0
 40
8.0
 40
9.0
 40
9.0
 40
9.0
 40
10.0
 40
10.0
 40
10.0
 40
10.0
 10
63.84512735325643
 20
-34.27112384925204
 30
0.0
 10
65.55954273508905
 20
-34.27112384925204
 30
0.0
 10
66.94594353985667
 20
-32.88034524576688
 30
0.0
 10
66.94594353985667
 20
-31.17030766266089
 30
0.0
 10
66.94594353985667
 20
-29.46024338565348
 30
0.0
 10
65.55954273508905
 20
-28.0694647821656
 30
0.0
 10
63.84512735325643
 20
-28.06965763954395
 30
0.0
 10
63.07979513138798
 20
-28.06965763954395
 30
0.0
 10
62.38004679864753
 20
-28.3451793748236
 30
0.0
 10
61.83775852368399
 20
-28.80875096722593
 30
0.0
 10
61.83775852368399
 20
-28.80875096722593
 30
0.0
 10
26.76367078856492
 20
-28.80875096722593
 30
0.0
 10
26.76367078856492
 20
-28.80875096722593
 30
0.0
 10
26.76367078856492
 20
-28.80875096722593
 30
0.0
 10
26.76367078856492
 20
-28.83061226360223
 30
0.0
 10
26.76367078856492
 20
-28.83061226360223
 30
0.0
 10
25.46042788954401
 20
-28.83061226360223
 30
0.0
 10
24.4020902338234
 20
-29.88459901418719
 30
0.0
 10
24.4020902338234
 20
-31.18784191320447
 30
0.0
 10
24.4020902338234
 20
-32.49546241003645
 30
0.0
 10
25.46042788954401
 20
-33.54944916062232
 30
0.0
 10
26.76367078856492
 20
-33.54944916062232
 30
0.0
 10
26.85552026455116
 20
-33.54944916062232
 30
0.0
 10
26.94736974053649
 20
-33.54507156281397
 30
0.0
 10
27.03481492603987
 20
-33.53193876938894
 30
0.0
 10
27.03481492603987
 20
-33.53193876938894
 30
0.0
 10
61.83775852368399
 20
-33.53193876938894
 30
0.0
 10
61.83775852368399
 20
-33.53193876938894
 30
0.0
 10
62.38004679864753
 20
-33.99551036177218
 30
0.0
 10
63.07979513138798
 20
-34.27103209706911
 30
0.0
 10
63.84512735325643
 20
-34.27112384925204
 30
0.0
  0
INSERT
  5
81
330
1F
100
AcDbEntity
  8
Vrstva 4
100
AcDbBlockReference
  2
block 6
 10
0.0
 20
0.0
 30
0.0
  0
POLYLINE
  5
AE
330
1F
100
AcDbEntity
  8
Vrstva 4
370
     0
100
AcDb2dPolyline
 66
     1
 10
0.0
 20
0.0
 30
0.0
  0
VERTEX
  5
AF
330
AE
100
AcDbEntity
  8
Vrstva 4
370
     0
100
AcDbVertex
100
AcDb2dVertex
 10
125.2283626473727
 20
-12.86173533148758
 30
0.0
  0
VERTEX
  5
B0
330
AE
100
AcDbEntity
  8
Vrstva 4
370
     0
100
AcDbVertex
100
AcDb2dVertex
 10
2.461892059138336
 20
-12.86173533148758
 30
0.0
  0
VERTEX
  5
B1
330
AE
100
AcDbEntity
  8
Vrstva 4
370
     0
100
AcDbVertex
100
AcDb2dVertex
 10
2.461892059138336
 20
-13.40467650795927
 30
0.0
  0
VERTEX
  5
B2
330
AE
100
AcDbEntity
  8
Vrstva 4
370
     0
100
AcDbVertex
100
AcDb2dVertex
 10
125.2283626473727
 20
-13.40467650795927
 30
0.0
  0
VERTEX
  5
B3
330
AE
100
AcDbEntity
  8
Vrstva 4
370
     0
100
AcDbVertex
100
AcDb2dVertex
 10
125.2283626473727
 20
-12.86173533148758
 30
0.0
  0
SEQEND
  5
B5
330
AE
100
AcDbEntity
  8
Vrstva 4
370
     0
  0
HATCH
  5
B4
330
1F
100
AcDbEntity
  8
Vrstva 4
 62
     7
420
 16777215
100
AcDbHatch
 10
0.0
 20
0.0
 30
0.0
210
0.0
220
0.0
230
1.0
  2
SOLID
 70
     1
 71
     0
 91
        1
 92
        1
 93
        4
 72
     1
 10
125.2283626473727
 20
-12.86173533148758
 11
2.461892059138336
 21
-12.86173533148758
 72
     1
 10
2.461892059138336
 20
-12.86173533148758
 11
2.461892059138336
 21
-13.40467650795927
 72
     1
 10
2.461892059138336
 20
-13.40467650795927
 11
125.2283626473727
 21
-13.40467650795927
 72
     1
 10
125.2283626473727
 20
-13.40467650795927
 11
125.2283626473727
 21
-12.86173533148758
 97
        0
 75
     2
 76
     1
 98
        0
  0
POLYLINE
  5
B6
330
1F
100
AcDbEntity
  8
Vrstva 4
370
     0
100
AcDb2dPolyline
 66
     1
 10
0.0
 20
0.0
 30
0.0
  0
VERTEX
  5
B7
330
B6
100
AcDbEntity
  8
Vrstva 4
370
     0
100
AcDbVertex
100
AcDb2dVertex
 10
125.3832352941172
 20
-47.84265351243084
 30
0.0
  0
VERTEX
  5
B8
330
B6
100
AcDbEntity
  8
Vrstva 4
370
     0
100
AcDbVertex
100
AcDb2dVertex
 10
2.616764705882815
 20
-47.84265351243084
 30
0.0
  0
VERTEX
  5
B9
330
B6
100
AcDbEntity
  8
Vrstva 4
370
     0
100
AcDbVertex
100
AcDb2dVertex
 10
2.616764705882815
 20
-48.38559468890162
 30
0.0
  0
VERTEX
  5
BA
330
B6
100
AcDbEntity
  8
Vrstva 4
370
     0
100
AcDbVertex
100
AcDb2dVertex
 10
125.3832352941172
 20
-48.38559468890162
 30
0.0
  0
VERTEX
  5
BB
330
B6
100
AcDbEntity
  8
Vrstva 4
370
     0
100
AcDbVertex
100
AcDb2dVertex
 10
125.3832352941172
 20
-47.84265351243084
 30
0.0
  0
SEQEND
  5
BD
330
B6
100
AcDbEntity
  8
Vrstva 4
370
     0
  0
HATCH
  5
BC
330
1F
100
AcDbEntity
  8
Vrstva 4
 62
     7
420
 16777215
100
AcDbHatch
 10
0.0
 20
0.0
 30
0.0
210
0.0
220
0.0
230
1.0
  2
SOLID
 70
     1
 71
     0
 91
        1
 92
        1
 93
        4
 72
     1
 10
125.3832352941172
 20
-47.84265351243084
 11
2.616764705882815
 21
-47.84265351243084
 72
     1
 10
2.616764705882815
 20
-47.84265351243084
 11
2.616764705882815
 21
-48.38559468890162
 72
     1
 10
2.616764705882815
 20
-48.38559468890162
 11
125.3832352941172
 21
-48.38559468890162
 72
     1
 10
125.3832352941172
 20
-48.38559468890162
 11
125.3832352941172
 21
-47.84265351243084
 97
        0
 75
     2
 76
     1
 98
        0
  0
ENDSEC
  0
SECTION
  2
OBJECTS
  0
DICTIONARY
  5
C
330
0
100
AcDbDictionary
281
     1
  3
ACAD_GROUP
350
D
  3
ACAD_LAYOUT
350
1A
  3
ACAD_MATERIAL
350
3B
  3
ACAD_MLEADERSTYLE
350
BF
  3
ACAD_MLINESTYLE
350
17
  3
ACAD_PLOTSETTINGS
350
19
  3
ACAD_PLOTSTYLENAME
350
E
  3
ACAD_TABLESTYLE
350
BE
  3
ACAD_VISUALSTYLE
350
2A
  0
SUN
  5
3F
330
29
100
AcDbSun
 90
        1
290
     0
 63
     7
421
 16777215
 40
1.0
291
     1
 91
  2455826
 92
 54000000
292
     0
 70
     2
 71
   256
280
     1
  0
DICTIONARY
  5
D
102
{ACAD_REACTORS
330
C
102
}
330
C
100
AcDbDictionary
281
     1
  0
DICTIONARY
  5
1A
102
{ACAD_REACTORS
330
C
102
}
330
C
100
AcDbDictionary
281
     1
  3
Layout1
350
1E
  3
Layout2
350
26
  3
Model
350
22
  0
DICTIONARY
  5
3B
102
{ACAD_REACTORS
330
C
102
}
330
C
100
AcDbDictionary
281
     1
  3
ByBlock
350
3D
  3
ByLayer
350
3C
  3
Global
350
3E
  0
DICTIONARY
  5
BF
102
{ACAD_REACTORS
330
C
102
}
330
C
100
AcDbDictionary
281
     1
  0
DICTIONARY
  5
17
102
{ACAD_REACTORS
330
C
102
}
330
C
100
AcDbDictionary
281
     1
  3
Standard
350
18
  0
DICTIONARY
  5
19
102
{ACAD_REACTORS
330
C
102
}
330
C
100
AcDbDictionary
281
     1
  0
ACDBDICTIONARYWDFLT
  5
E
102
{ACAD_REACTORS
330
C
102
}
330
C
100
AcDbDictionary
281
     1
  3
Normal
350
F
100
AcDbDictionaryWithDefault
340
F
  0
DICTIONARY
  5
BE
102
{ACAD_REACTORS
330
C
102
}
330
C
100
AcDbDictionary
281
     1
  0
DICTIONARY
  5
2A
102
{ACAD_REACTORS
330
C
102
}
330
C
100
AcDbDictionary
281
     1
  3
2dWireframe
350
2F
  3
3D Hidden
350
31
  3
3dWireframe
350
30
  3
Basic
350
32
  3
Brighten
350
36
  3
ColorChange
350
3A
  3
Conceptual
350
34
  3
Dim
350
35
  3
Facepattern
350
39
  3
Flat
350
2B
  3
FlatWithEdges
350
2C
  3
Gouraud
350
2D
  3
GouraudWithEdges
350
2E
  3
Linepattern
350
38
  3
Realistic
350
33
  3
Thicken
350
37
  0
LAYOUT
  5
1E
102
{ACAD_REACTORS
330
1A
102
}
330
1A
100
AcDbPlotSettings
  1

  2
none_device
  4

  6

 40
0.0
 41
0.0
 42
0.0
 43
0.0
 44
0.0
 45
0.0
 46
0.0
 47
0.0
 48
0.0
 49
0.0
140
0.0
141
0.0
142
1.0
143
1.0
 70
   688
 72
     0
 73
     0
 74
     5
  7

 75
    16
 76
     0
 77
     2
 78
   300
147
1.0
148
0.0
149
0.0
100
AcDbLayout
  1
Layout1
 70
     1
 71
     1
 10
0.0
 20
0.0
 11
12.0
 21
9.0
 12
0.0
 22
0.0
 32
0.0
 14
1.000000000000000E+20
 24
1.000000000000000E+20
 34
1.000000000000000E+20
 15
-1.000000000000000E+20
 25
-1.000000000000000E+20
 35
-1.000000000000000E+20
146
0.0
 13
0.0
 23
0.0
 33
0.0
 16
1.0
 26
0.0
 36
0.0
 17
0.0
 27
1.0
 37
0.0
 76
     0
330
1B
  0
LAYOUT
  5
26
102
{ACAD_REACTORS
330
1A
102
}
330
1A
100
AcDbPlotSettings
  1

  2
none_device
  4

  6

 40
0.0
 41
0.0
 42
0.0
 43
0.0
 44
0.0
 45
0.0
 46
0.0
 47
0.0
 48
0.0
 49
0.0
140
0.0
141
0.0
142
1.0
143
1.0
 70
   688
 72
     0
 73
     0
 74
     5
  7

 75
    16
 76
     0
 77
     2
 78
   300
147
1.0
148
0.0
149
0.0
100
AcDbLayout
  1
Layout2
 70
     1
 71
     2
 10
0.0
 20
0.0
 11
0.0
 21
0.0
 12
0.0
 22
0.0
 32
0.0
 14
0.0
 24
0.0
 34
0.0
 15
0.0
 25
0.0
 35
0.0
146
0.0
 13
0.0
 23
0.0
 33
0.0
 16
1.0
 26
0.0
 36
0.0
 17
0.0
 27
1.0
 37
0.0
 76
     0
330
23
  0
LAYOUT
  5
22
102
{ACAD_REACTORS
330
1A
102
}
330
1A
100
AcDbPlotSettings
  1

  2
none_device
  4

  6

 40
0.0
 41
0.0
 42
0.0
 43
0.0
 44
0.0
 45
0.0
 46
0.0
 47
0.0
 48
0.0
 49
0.0
140
0.0
141
0.0
142
1.0
143
1.0
 70
  1712
 72
     0
 73
     0
 74
     0
  7

 75
     0
 76
     0
 77
     2
 78
   300
147
1.0
148
0.0
149
0.0
100
AcDbLayout
  1
Model
 70
     1
 71
     0
 10
0.0
 20
0.0
 11
12.0
 21
9.0
 12
0.0
 22
0.0
 32
0.0
 14
1.000000000000000E+20
 24
1.000000000000000E+20
 34
1.000000000000000E+20
 15
-1.000000000000000E+20
 25
-1.000000000000000E+20
 35
-1.000000000000000E+20
146
0.0
 13
0.0
 23
0.0
 33
0.0
 16
1.0
 26
0.0
 36
0.0
 17
0.0
 27
1.0
 37
0.0
 76
     0
330
1F
331
29
  0
MATERIAL
  5
3D
102
{ACAD_REACTORS
330
3B
102
}
330
3B
100
AcDbMaterial
  1
ByBlock
 72
     1
 94
      127
  0
MATERIAL
  5
3C
102
{ACAD_REACTORS
330
3B
102
}
330
3B
100
AcDbMaterial
  1
ByLayer
 72
     1
 94
      127
  0
MATERIAL
  5
3E
102
{ACAD_REACTORS
330
3B
102
}
330
3B
100
AcDbMaterial
  1
Global
 72
     1
 94
      127
  0
MLINESTYLE
  5
18
102
{ACAD_REACTORS
330
17
102
}
330
17
100
AcDbMlineStyle
  2
Standard
 70
     0
  3

 62
   256
 51
90.0
 52
90.0
 71
     2
 49
0.5
 62
   256
  6
BYLAYER
 49
-0.5
 62
   256
  6
BYLAYER
  0
ACDBPLACEHOLDER
  5
F
102
{ACAD_REACTORS
330
E
102
}
330
E
  0
VISUALSTYLE
  5
2F
102
{ACAD_REACTORS
330
2A
102
}
330
2A
100
AcDbVisualStyle
  2
2dWireframe
 70
     4
177
     2
291
     0
 71
     0
176
     1
 72
     2
176
     1
 73
     0
176
     1
 90
        0
176
     1
 40
-0.6
176
     1
 41
-30.0
176
     1
 62
     5
 63
     7
421
 16777215
176
     1
 74
     1
176
     1
 91
        4
176
     1
 64
     7
176
     1
 65
   257
176
     1
 75
     1
176
     1
175
     1
176
     1
 42
1.0
176
     1
 92
        0
176
     1
 66
   257
176
     1
 43
1.0
176
     1
 76
     1
176
     1
 77
     6
176
     1
 78
     2
176
     1
 67
     7
176
     1
 79
     5
176
     1
170
     0
176
     1
171
     0
176
     1
290
     0
176
     1
 93
        1
176
     1
 44
0.0
176
     1
173
     0
176
     1
  0
VISUALSTYLE
  5
31
102
{ACAD_REACTORS
330
2A
102
}
330
2A
100
AcDbVisualStyle
  2
3D Hidden
 70
     6
177
     2
291
     0
 71
     1
176
     1
 72
     2
176
     1
 73
     2
176
     1
 90
        0
176
     1
 40
-0.6
176
     1
 41
-30.0
176
     1
 62
     5
 63
     7
421
 16777215
176
     1
 74
     2
176
     1
 91
        2
176
     1
 64
     7
176
     1
 65
   257
176
     1
 75
     2
176
     1
175
     1
176
     1
 42
40.0
176
     1
 92
        0
176
     1
 66
   257
176
     1
 43
1.0
176
     1
 76
     1
176
     1
 77
     6
176
     1
 78
     2
176
     1
 67
     7
176
     1
 79
     3
176
     1
170
     0
176
     1
171
     0
176
     1
290
     0
176
     1
 93
        1
176
     1
 44
0.0
176
     1
173
     0
176
     1
  0
VISUALSTYLE
  5
30
102
{ACAD_REACTORS
330
2A
102
}
330
2A
100
AcDbVisualStyle
  2
3dWireframe
 70
     5
177
     2
291
     0
 71
     0
176
     1
 72
     2
176
     1
 73
     0
176
     1
 90
        0
176
     1
 40
-0.6
176
     1
 41
-30.0
176
     1
 62
     5
 63
     7
421
 16777215
176
     1
 74
     1
176
     1
 91
        4
176
     1
 64
     7
176
     1
 65
   257
176
     1
 75
     1
176
     1
175
     1
176
     1
 42
1.0
176
     1
 92
        0
176
     1
 66
   257
176
     1
 43
1.0
176
     1
 76
     1
176
     1
 77
     6
176
     1
 78
     2
176
     1
 67
     7
176
     1
 79
     5
176
     1
170
     0
176
     1
171
     0
176
     1
290
     0
176
     1
 93
        1
176
     1
 44
0.0
176
     1
173
     0
176
     1
  0
VISUALSTYLE
  5
32
102
{ACAD_REACTORS
330
2A
102
}
330
2A
100
AcDbVisualStyle
  2
Basic
 70
     7
177
     2
291
     1
 71
     1
176
     1
 72
     0
176
     1
 73
     1
176
     1
 90
        0
176
     1
 40
-0.6
176
     1
 41
-30.0
176
     1
 62
     5
 63
     7
421
 16777215
176
     1
 74
     0
176
     1
 91
        4
176
     1
 64
     7
176
     1
 65
   257
176
     1
 75
     1
176
     1
175
     1
176
     1
 42
1.0
176
     1
 92
        8
176
     1
 66
     7
176
     1
 43
1.0
176
     1
 76
     1
176
     1
 77
     6
176
     1
 78
     2
176
     1
 67
     7
176
     1
 79
     5
176
     1
170
     0
176
     1
171
     0
176
     1
290
     0
176
     1
 93
        1
176
     1
 44
0.0
176
     1
173
     0
176
     1
  0
VISUALSTYLE
  5
36
102
{ACAD_REACTORS
330
2A
102
}
330
2A
100
AcDbVisualStyle
  2
Brighten
 70
    12
177
     2
291
     1
 71
     2
176
     1
 72
     2
176
     1
 73
     0
176
     1
 90
        0
176
     1
 40
-0.6
176
     1
 41
-30.0
176
     1
 62
     5
 63
     7
421
 16777215
176
     1
 74
     1
176
     1
 91
        4
176
     1
 64
     7
176
     1
 65
   257
176
     1
 75
     1
176
     1
175
     1
176
     1
 42
1.0
176
     1
 92
        8
176
     1
 66
     7
176
     1
 43
1.0
176
     1
 76
     1
176
     1
 77
     6
176
     1
 78
     2
176
     1
 67
     7
176
     1
 79
     5
176
     1
170
     0
176
     1
171
     0
176
     1
290
     0
176
     1
 93
        1
176
     1
 44
50.0
176
     1
173
     0
176
     1
  0
VISUALSTYLE
  5
3A
102
{ACAD_REACTORS
330
2A
102
}
330
2A
100
AcDbVisualStyle
  2
ColorChange
 70
    16
177
     2
291
     1
 71
     2
176
     1
 72
     2
176
     1
 73
     3
176
     1
 90
        0
176
     1
 40
-0.6
176
     1
 41
-30.0
176
     1
 62
     5
 63
     8
421
  8421504
176
     1
 74
     1
176
     1
 91
        4
176
     1
 64
     7
176
     1
 65
   257
176
     1
 75
     1
176
     1
175
     1
176
     1
 42
1.0
176
     1
 92
        8
176
     1
 66
     8
424
  8421504
176
     1
 43
1.0
176
     1
 76
     1
176
     1
 77
     6
176
     1
 78
     2
176
     1
 67
     7
176
     1
 79
     5
176
     1
170
     0
176
     1
171
     0
176
     1
290
     0
176
     1
 93
        1
176
     1
 44
0.0
176
     1
173
     0
176
     1
  0
VISUALSTYLE
  5
34
102
{ACAD_REACTORS
330
2A
102
}
330
2A
100
AcDbVisualStyle
  2
Conceptual
 70
     9
177
     2
291
     0
 71
     3
176
     1
 72
     2
176
     1
 73
     0
176
     1
 90
        0
176
     1
 40
-0.6
176
     1
 41
-30.0
176
     1
 62
     5
 63
     7
421
 16777215
176
     1
 74
     2
176
     1
 91
        2
176
     1
 64
     7
176
     1
 65
   257
176
     1
 75
     1
176
     1
175
     1
176
     1
 42
40.0
176
     1
 92
        8
176
     1
 66
     7
176
     1
 43
1.0
176
     1
 76
     1
176
     1
 77
     6
176
     1
 78
     2
176
     1
 67
     7
176
     1
 79
     3
176
     1
170
     0
176
     1
171
     0
176
     1
290
     0
176
     1
 93
        1
176
     1
 44
0.0
176
     1
173
     0
176
     1
  0
VISUALSTYLE
  5
35
102
{ACAD_REACTORS
330
2A
102
}
330
2A
100
AcDbVisualStyle
  2
Dim
 70
    11
177
     2
291
     1
 71
     2
176
     1
 72
     2
176
     1
 73
     0
176
     1
 90
        0
176
     1
 40
-0.6
176
     1
 41
-30.0
176
     1
 62
     5
 63
     7
421
 16777215
176
     1
 74
     1
176
     1
 91
        4
176
     1
 64
     7
176
     1
 65
   257
176
     1
 75
     1
176
     1
175
     1
176
     1
 42
1.0
176
     1
 92
        8
176
     1
 66
     7
176
     1
 43
1.0
176
     1
 76
     1
176
     1
 77
     6
176
     1
 78
     2
176
     1
 67
     7
176
     1
 79
     5
176
     1
170
     0
176
     1
171
     0
176
     1
290
     0
176
     1
 93
        1
176
     1
 44
-50.0
176
     1
173
     0
176
     1
  0
VISUALSTYLE
  5
39
102
{ACAD_REACTORS
330
2A
102
}
330
2A
100
AcDbVisualStyle
  2
Facepattern
 70
    15
177
     2
291
     1
 71
     2
176
     1
 72
     2
176
     1
 73
     0
176
     1
 90
        0
176
     1
 40
-0.6
176
     1
 41
-30.0
176
     1
 62
     5
 63
     7
421
 16777215
176
     1
 74
     1
176
     1
 91
        4
176
     1
 64
     7
176
     1
 65
   257
176
     1
 75
     1
176
     1
175
     1
176
     1
 42
1.0
176
     1
 92
        8
176
     1
 66
     7
176
     1
 43
1.0
176
     1
 76
     1
176
     1
 77
     6
176
     1
 78
     2
176
     1
 67
     7
176
     1
 79
     5
176
     1
170
     0
176
     1
171
     0
176
     1
290
     0
176
     1
 93
        1
176
     1
 44
0.0
176
     1
173
     0
176
     1
  0
VISUALSTYLE
  5
2B
102
{ACAD_REACTORS
330
2A
102
}
330
2A
100
AcDbVisualStyle
  2
Flat
 70
     0
177
     2
291
     1
 71
     2
176
     1
 72
     1
176
     1
 73
     1
176
     1
 90
        2
176
     1
 40
-0.6
176
     1
 41
30.0
176
     1
 62
     5
 63
     7
421
 16777215
176
     1
 74
     0
176
     1
 91
        4
176
     1
 64
     7
176
     1
 65
   257
176
     1
 75
     1
176
     1
175
     1
176
     1
 42
1.0
176
     1
 92
        8
176
     1
 66
     7
176
     1
 43
1.0
176
     1
 76
     1
176
     1
 77
     6
176
     1
 78
     2
176
     1
 67
     7
176
     1
 79
     5
176
     1
170
     0
176
     1
171
     0
176
     1
290
     0
176
     1
 93
       13
176
     1
 44
0.0
176
     1
173
     0
176
     1
  0
VISUALSTYLE
  5
2C
102
{ACAD_REACTORS
330
2A
102
}
330
2A
100
AcDbVisualStyle
  2
FlatWithEdges
 70
     1
177
     2
291
     1
 71
     2
176
     1
 72
     1
176
     1
 73
     1
176
     1
 90
        2
176
     1
 40
-0.6
176
     1
 41
30.0
176
     1
 62
     5
 63
     7
421
 16777215
176
     1
 74
     1
176
     1
 91
        4
176
     1
 64
     7
176
     1
 65
   257
176
     1
 75
     1
176
     1
175
     1
176
     1
 42
1.0
176
     1
 92
        0
176
     1
 66
   257
176
     1
 43
1.0
176
     1
 76
     1
176
     1
 77
     6
176
     1
 78
     2
176
     1
 67
     7
176
     1
 79
     5
176
     1
170
     0
176
     1
171
     0
176
     1
290
     0
176
     1
 93
       13
176
     1
 44
0.0
176
     1
173
     0
176
     1
  0
VISUALSTYLE
  5
2D
102
{ACAD_REACTORS
330
2A
102
}
330
2A
100
AcDbVisualStyle
  2
Gouraud
 70
     2
177
     2
291
     1
 71
     2
176
     1
 72
     2
176
     1
 73
     1
176
     1
 90
        2
176
     1
 40
-0.6
176
     1
 41
30.0
176
     1
 62
     5
 63
     7
421
 16777215
176
     1
 74
     0
176
     1
 91
        4
176
     1
 64
     7
176
     1
 65
   257
176
     1
 75
     1
176
     1
175
     1
176
     1
 42
1.0
176
     1
 92
        0
176
     1
 66
     7
176
     1
 43
1.0
176
     1
 76
     1
176
     1
 77
     6
176
     1
 78
     2
176
     1
 67
     7
176
     1
 79
     5
176
     1
170
     0
176
     1
171
     0
176
     1
290
     0
176
     1
 93
       13
176
     1
 44
0.0
176
     1
173
     0
176
     1
  0
VISUALSTYLE
  5
2E
102
{ACAD_REACTORS
330
2A
102
}
330
2A
100
AcDbVisualStyle
  2
GouraudWithEdges
 70
     3
177
     2
291
     1
 71
     2
176
     1
 72
     2
176
     1
 73
     1
176
     1
 90
        2
176
     1
 40
-0.6
176
     1
 41
30.0
176
     1
 62
     5
 63
     7
421
 16777215
176
     1
 74
     1
176
     1
 91
        4
176
     1
 64
     7
176
     1
 65
   257
176
     1
 75
     1
176
     1
175
     1
176
     1
 42
1.0
176
     1
 92
        0
176
     1
 66
   257
176
     1
 43
1.0
176
     1
 76
     1
176
     1
 77
     6
176
     1
 78
     2
176
     1
 67
     7
176
     1
 79
     5
176
     1
170
     0
176
     1
171
     0
176
     1
290
     0
176
     1
 93
       13
176
     1
 44
0.0
176
     1
173
     0
176
     1
  0
VISUALSTYLE
  5
38
102
{ACAD_REACTORS
330
2A
102
}
330
2A
100
AcDbVisualStyle
  2
Linepattern
 70
    14
177
     2
291
     1
 71
     2
176
     1
 72
     2
176
     1
 73
     0
176
     1
 90
        0
176
     1
 40
-0.6
176
     1
 41
-30.0
176
     1
 62
     5
 63
     7
421
 16777215
176
     1
 74
     1
176
     1
 91
        4
176
     1
 64
     7
176
     1
 65
   257
176
     1
 75
     7
176
     1
175
     7
176
     1
 42
1.0
176
     1
 92
        8
176
     1
 66
     7
176
     1
 43
1.0
176
     1
 76
     1
176
     1
 77
     6
176
     1
 78
     2
176
     1
 67
     7
176
     1
 79
     5
176
     1
170
     0
176
     1
171
     0
176
     1
290
     0
176
     1
 93
        1
176
     1
 44
0.0
176
     1
173
     0
176
     1
  0
VISUALSTYLE
  5
33
102
{ACAD_REACTORS
330
2A
102
}
330
2A
100
AcDbVisualStyle
  2
Realistic
 70
     8
177
     2
291
     0
 71
     2
176
     1
 72
     2
176
     1
 73
     0
176
     1
 90
        0
176
     1
 40
-0.6
176
     1
 41
-30.0
176
     1
 62
     5
 63
     7
421
 16777215
176
     1
 74
     1
176
     1
 91
        0
176
     1
 64
     7
176
     1
 65
   257
176
     1
 75
     1
176
     1
175
     1
176
     1
 42
1.0
176
     1
 92
        8
176
     1
 66
     8
424
  7895160
176
     1
 43
1.0
176
     1
 76
     1
176
     1
 77
     6
176
     1
 78
     2
176
     1
 67
     7
176
     1
 79
     5
176
     1
170
     0
176
     1
171
     0
176
     1
290
     0
176
     1
 93
       13
176
     1
 44
0.0
176
     1
173
     0
176
     1
  0
VISUALSTYLE
  5
37
102
{ACAD_REACTORS
330
2A
102
}
330
2A
100
AcDbVisualStyle
  2
Thicken
 70
    13
177
     2
291
     1
 71
     2
176
     1
 72
     2
176
     1
 73
     0
176
     1
 90
        0
176
     1
 40
-0.6
176
     1
 41
-30.0
176
     1
 62
     5
 63
     7
421
 16777215
176
     1
 74
     1
176
     1
 91
        4
176
     1
 64
     7
176
     1
 65
   257
176
     1
 75
     1
176
     1
175
     1
176
     1
 42
1.0
176
     1
 92
       12
176
     1
 66
     7
176
     1
 43
1.0
176
     1
 76
     1
176
     1
 77
     6
176
     1
 78
     2
176
     1
 67
     7
176
     1
 79
     5
176
     1
170
     0
176
     1
171
     0
176
     1
290
     0
176
     1
 93
        1
176
     1
 44
0.0
176
     1
173
     0
176
     1
  0
ENDSEC
  0
EOF
